<?xml version="1.0" standalone="no"?>
 <!DOCTYPE svg PUBLIC "-//W3C//DTD SVG 1.1//EN" 
 "http://www.w3.org/Graphics/SVG/1.1/DTD/svg11.dtd"> 
<svg
  xmlns:svg="http://www.w3.org/2000/svg"
  xmlns="http://www.w3.org/2000/svg"
  xmlns:xlink="http://www.w3.org/1999/xlink"
  version="1.1"
  width="128.9558mm" height="129.6924mm" viewBox="0.0000 0.0000 128.9558 129.6924">
<title>SVG Image created as microlidian-Edge_Cuts.svg date 2023/03/19 20:04:40 </title>
  <desc>Image generated by PCBNEW </desc>
<g style="fill:#000000; fill-opacity:1.0000;stroke:#000000; stroke-opacity:1.0000;
stroke-linecap:round; stroke-linejoin:round;"
 transform="translate(0 0) scale(1 1)">
</g>
<g style="fill:#000000; fill-opacity:0.0; 
stroke:#000000; stroke-width:0.0000; stroke-opacity:1; 
stroke-linecap:round; stroke-linejoin:round;">
</g>
<g style="fill:#000000; fill-opacity:0.0; 
stroke:#000000; stroke-width:0.1000; stroke-opacity:1; 
stroke-linecap:round; stroke-linejoin:round;">
<path d="M44.7540 11.8249
L85.0540 11.8249
" />
<path d="M85.0540 11.8249
L85.0540 109.0459
" />
<path d="M85.0540 109.0459
L44.7540 109.0459
" />
<path d="M44.7540 109.0459
L44.7540 11.8249
" />
<path d="M0.0500 11.8249
L40.3500 11.8249
" />
<path d="M40.3500 11.8249
L40.3500 109.0459
" />
<path d="M40.3500 109.0459
L0.0500 109.0459
" />
<path d="M0.0500 109.0459
L0.0500 11.8249
" />
</g>
<g style="fill:#000000; fill-opacity:0.0; 
stroke:#000000; stroke-width:0.0500; stroke-opacity:1; 
stroke-linecap:round; stroke-linejoin:round;">
<path d="M98.3659 17.4902
L118.9399 17.4902
" />
<path d="M118.9399 17.4902
L118.9399 20.0302
" />
<path d="M118.9399 20.0302
L98.3659 20.0302
" />
<path d="M98.3659 20.0302
L98.3659 17.4902
" />
<circle cx="118.2716" cy="59.6308" r="2.1850" /> 
<path d="M97.1510 128.2780 A1.6000 1.6000 0.0 0 0 97.1510 125.0780" />
<path d="M95.1510 2.5780 A1.6000 1.6000 0.0 0 0 95.1510 5.7780" />
<path d="M120.5510 5.7780
L122.5510 5.7780
" />
<path d="M122.5510 5.7780 A1.6000 1.6000 0.0 0 0 122.5510 2.5780" />
<circle cx="99.5156" cy="59.8398" r="3.5000" /> 
<path d="M122.5510 125.0780
L120.5510 125.0780
" />
<path d="M103.5564 111.6438
L115.0564 111.6438
" />
<path d="M115.0564 111.6438
L115.0564 117.1438
" />
<path d="M115.0564 117.1438
L103.5564 117.1438
" />
<path d="M103.5564 117.1438
L103.5564 111.6438
" />
<circle cx="117.6799" cy="79.5533" r="3.5035" /> 
<path d="M122.5510 2.5780
L120.5510 2.5780
" />
<path d="M88.6510 1.1780
L88.6510 129.6780
" />
<path d="M122.5510 128.2780 A1.6000 1.6000 0.0 0 0 122.5510 125.0780" />
<path d="M97.1510 2.5780
L95.1510 2.5780
" />
<circle cx="99.5099" cy="79.5528" r="3.4664" /> 
<path d="M95.1510 5.7780
L97.1510 5.7780
" />
<circle cx="99.5099" cy="98.3396" r="3.4873" /> 
<path d="M128.9510 129.6780
L128.9510 1.1780
" />
<path d="M95.1510 125.0780 A1.6000 1.6000 0.0 0 0 95.1510 128.2780" />
<path d="M88.6510 129.6780
L128.9510 129.6780
" />
<circle cx="95.6017" cy="42.9742" r="1.6152" /> 
<path d="M120.5510 128.2780
L122.5510 128.2780
" />
<path d="M128.9510 1.1780
L88.6510 1.1780
" />
<path d="M97.1510 5.7780 A1.6000 1.6000 0.0 0 0 97.1510 2.5780" />
<path d="M95.1510 128.2780
L97.1510 128.2780
" />
<path d="M120.5510 2.5780 A1.6000 1.6000 0.0 0 0 120.5510 5.7780" />
<circle cx="102.0564" cy="114.3938" r="0.5500" /> 
<circle cx="95.6017" cy="19.9742" r="1.6152" /> 
<circle cx="116.5564" cy="114.3938" r="0.5500" /> 
<path d="M92.5695 22.3522
L125.7165 22.3522
" />
<path d="M125.7165 22.3522
L125.7165 40.5132
" />
<path d="M125.7165 40.5132
L92.5695 40.5132
" />
<path d="M92.5695 40.5132
L92.5695 22.3522
" />
<circle cx="117.6799" cy="98.3396" r="3.5000" /> 
<circle cx="122.0017" cy="42.9742" r="1.6152" /> 
<path d="M120.5510 125.0780 A1.6000 1.6000 0.0 0 0 120.5510 128.2780" />
<circle cx="122.0001" cy="19.9754" r="1.6152" /> 
<path d="M97.1510 125.0780
L95.1510 125.0780
" />
</g>
<g style="fill:#000000; fill-opacity:1.0000; 
stroke:#000000; stroke-width:0.0000; stroke-opacity:1; 
stroke-linecap:round; stroke-linejoin:round;">
<circle cx="51.7044" cy="19.9738" r="1.5600" /> 
<circle cx="51.7044" cy="42.9738" r="1.5600" /> 
</g>
<g style="fill:#000000; fill-opacity:0.0; 
stroke:#000000; stroke-width:0.1200; stroke-opacity:1; 
stroke-linecap:round; stroke-linejoin:round;">
</g>
<g style="fill:#000000; fill-opacity:1.0000; 
stroke:#000000; stroke-width:0.0000; stroke-opacity:1; 
stroke-linecap:round; stroke-linejoin:round;">
<circle cx="53.0144" cy="21.2838" r="0.0600" /> 
<circle cx="78.1044" cy="19.9738" r="1.5600" /> 
<circle cx="78.1044" cy="42.9738" r="1.5600" /> 
<g >
</g>
<g >
</g>
<g >
</g>
<g >
</g>
<g >
</g>
<g >
</g>
<g >
</g>
<g >
</g>
<g >
</g>
<g >
</g>
<g >
</g>
<g >
</g>
<g >
</g>
<g >
</g>
<g >
</g>
<g >
</g>
<g >
</g>
<g >
</g>
<g >
</g>
<g >
</g>
<g >
</g>
<g >
</g>
<g >
</g>
<g >
</g>
<g >
</g>
<g >
</g>
<g >
</g>
<g >
</g>
<g >
</g>
<g >
</g>
<g >
</g>
<g >
</g>
<g >
</g>
<g >
</g>
</g> 
</svg>
