M48
; DRILL file {KiCad (7.0.0)} date Sun Mar 19 22:54:56 2023
; FORMAT={-:-/ absolute / metric / decimal}
; #@! TF.CreationDate,2023-03-19T22:54:56+00:00
; #@! TF.GenerationSoftware,Kicad,Pcbnew,(7.0.0)
; #@! TF.FileFunction,Plated,1,2,PTH
FMAT,2
METRIC
; #@! TA.AperFunction,Plated,PTH,ViaDrill
T1C0.400
; #@! TA.AperFunction,Plated,PTH,ComponentDrill
T2C0.750
; #@! TA.AperFunction,Plated,PTH,ComponentDrill
T3C0.800
; #@! TA.AperFunction,Plated,PTH,ComponentDrill
T4C1.000
; #@! TA.AperFunction,Plated,PTH,ComponentDrill
T5C1.016
; #@! TA.AperFunction,Plated,PTH,ComponentDrill
T6C1.100
%
G90
G05
T1
X46.025Y-95.58
X50.47Y-72.746
T2
X58.974Y-93.04
X58.974Y-94.31
X58.974Y-95.58
T3
X55.27Y-90.493
X55.27Y-97.993
X62.635Y-109.614
X62.635Y-114.614
X64.16Y-86.877
X64.16Y-94.377
X71.399Y-101.609
X71.399Y-104.109
X71.526Y-73.44
X71.526Y-75.94
T4
X42.316Y-70.129
X42.316Y-72.669
X42.316Y-75.209
X42.316Y-77.749
X42.316Y-80.289
X42.316Y-82.829
X42.316Y-85.369
X44.145Y-49.174
X46.685Y-49.174
X48.87Y-141.3
X49.225Y-49.174
X51.41Y-141.3
X51.765Y-49.174
X53.95Y-141.3
X54.305Y-49.174
X55.524Y-114.63
X55.524Y-117.17
X55.524Y-119.71
X55.524Y-122.25
X55.524Y-124.79
X56.042Y-57.807
X56.042Y-60.347
X56.49Y-141.3
X56.845Y-49.174
X57.556Y-70.129
X57.556Y-72.669
X57.556Y-75.209
X57.556Y-77.749
X57.556Y-80.289
X57.556Y-82.829
X57.556Y-85.369
X58.582Y-57.807
X58.582Y-60.347
X59.03Y-141.3
X59.385Y-49.174
X61.122Y-57.807
X61.122Y-60.347
X61.57Y-141.3
X61.925Y-49.174
X63.662Y-57.807
X63.662Y-60.347
X64.11Y-141.3
X64.465Y-49.174
X66.202Y-57.807
X66.202Y-60.347
X66.65Y-141.3
X67.005Y-49.174
X68.742Y-57.807
X68.742Y-60.347
X69.545Y-49.174
X70.383Y-83.642
X70.383Y-86.182
X70.383Y-88.722
X70.383Y-91.262
X70.383Y-93.802
X71.282Y-57.807
X71.282Y-60.347
X72.085Y-49.174
X72.923Y-83.642
X72.923Y-86.182
X72.923Y-88.722
X72.923Y-91.262
X72.923Y-93.802
X73.304Y-114.63
X73.304Y-117.17
X73.304Y-119.71
X73.304Y-122.25
X73.304Y-124.79
X73.822Y-57.807
X73.822Y-60.347
T5
X48.666Y-83.781
X48.666Y-86.321
X51.206Y-83.781
X51.206Y-86.321
T6
X55.524Y-101.549
X64.16Y-73.99
X64.16Y-84.15
X65.684Y-101.549
T0
M30
