G04 #@! TF.GenerationSoftware,KiCad,Pcbnew,(7.0.0)*
G04 #@! TF.CreationDate,2023-03-19T22:54:38+00:00*
G04 #@! TF.ProjectId,back_microlidian,6261636b-5f6d-4696-9372-6f6c69646961,rev?*
G04 #@! TF.SameCoordinates,Original*
G04 #@! TF.FileFunction,Legend,Bot*
G04 #@! TF.FilePolarity,Positive*
%FSLAX46Y46*%
G04 Gerber Fmt 4.6, Leading zero omitted, Abs format (unit mm)*
G04 Created by KiCad (PCBNEW (7.0.0)) date 2023-03-19 22:54:38*
%MOMM*%
%LPD*%
G01*
G04 APERTURE LIST*
G04 Aperture macros list*
%AMRoundRect*
0 Rectangle with rounded corners*
0 $1 Rounding radius*
0 $2 $3 $4 $5 $6 $7 $8 $9 X,Y pos of 4 corners*
0 Add a 4 corners polygon primitive as box body*
4,1,4,$2,$3,$4,$5,$6,$7,$8,$9,$2,$3,0*
0 Add four circle primitives for the rounded corners*
1,1,$1+$1,$2,$3*
1,1,$1+$1,$4,$5*
1,1,$1+$1,$6,$7*
1,1,$1+$1,$8,$9*
0 Add four rect primitives between the rounded corners*
20,1,$1+$1,$2,$3,$4,$5,0*
20,1,$1+$1,$4,$5,$6,$7,0*
20,1,$1+$1,$6,$7,$8,$9,0*
20,1,$1+$1,$8,$9,$2,$3,0*%
G04 Aperture macros list end*
%ADD10C,0.150000*%
%ADD11C,0.300000*%
%ADD12C,0.120000*%
%ADD13R,1.500000X1.050000*%
%ADD14O,1.500000X1.050000*%
%ADD15R,1.700000X1.700000*%
%ADD16O,1.700000X1.700000*%
%ADD17R,2.200000X2.200000*%
%ADD18O,2.200000X2.200000*%
%ADD19C,1.600000*%
%ADD20O,1.600000X1.600000*%
%ADD21R,1.600000X1.600000*%
%ADD22O,2.750000X1.800000*%
%ADD23C,1.397000*%
%ADD24RoundRect,0.250000X0.600000X0.600000X-0.600000X0.600000X-0.600000X-0.600000X0.600000X-0.600000X0*%
%ADD25C,1.700000*%
G04 APERTURE END LIST*
D10*
X72113864Y-55919561D02*
X71979177Y-55852217D01*
X71979177Y-55852217D02*
X71810818Y-55683859D01*
X71810818Y-55683859D02*
X71777147Y-55582843D01*
X71777147Y-55582843D02*
X71777147Y-55515500D01*
X71777147Y-55515500D02*
X71810818Y-55414485D01*
X71810818Y-55414485D02*
X71878162Y-55347141D01*
X71878162Y-55347141D02*
X71979177Y-55313469D01*
X71979177Y-55313469D02*
X72046521Y-55313469D01*
X72046521Y-55313469D02*
X72147536Y-55347141D01*
X72147536Y-55347141D02*
X72315895Y-55448156D01*
X72315895Y-55448156D02*
X72416910Y-55481828D01*
X72416910Y-55481828D02*
X72484253Y-55481828D01*
X72484253Y-55481828D02*
X72585269Y-55448156D01*
X72585269Y-55448156D02*
X72652612Y-55380813D01*
X72652612Y-55380813D02*
X72686284Y-55279798D01*
X72686284Y-55279798D02*
X72686284Y-55212454D01*
X72686284Y-55212454D02*
X72652612Y-55111439D01*
X72652612Y-55111439D02*
X72484253Y-54943080D01*
X72484253Y-54943080D02*
X72349566Y-54875737D01*
X71373086Y-55246126D02*
X72080192Y-54539019D01*
X72080192Y-54539019D02*
X71810818Y-54269645D01*
X71810818Y-54269645D02*
X71709803Y-54235973D01*
X71709803Y-54235973D02*
X71642460Y-54235973D01*
X71642460Y-54235973D02*
X71541444Y-54269645D01*
X71541444Y-54269645D02*
X71440429Y-54370660D01*
X71440429Y-54370660D02*
X71406757Y-54471675D01*
X71406757Y-54471675D02*
X71406757Y-54539019D01*
X71406757Y-54539019D02*
X71440429Y-54640034D01*
X71440429Y-54640034D02*
X71709803Y-54909408D01*
X70665979Y-54539019D02*
X71373086Y-53831912D01*
X69568280Y-53306633D02*
X69568280Y-53373977D01*
X69568280Y-53373977D02*
X69635624Y-53508664D01*
X69635624Y-53508664D02*
X69702967Y-53576007D01*
X69702967Y-53576007D02*
X69837654Y-53643351D01*
X69837654Y-53643351D02*
X69972341Y-53643351D01*
X69972341Y-53643351D02*
X70073356Y-53609679D01*
X70073356Y-53609679D02*
X70241715Y-53508664D01*
X70241715Y-53508664D02*
X70342730Y-53407648D01*
X70342730Y-53407648D02*
X70443746Y-53239290D01*
X70443746Y-53239290D02*
X70477417Y-53138274D01*
X70477417Y-53138274D02*
X70477417Y-53003587D01*
X70477417Y-53003587D02*
X70410074Y-52868900D01*
X70410074Y-52868900D02*
X70342730Y-52801557D01*
X70342730Y-52801557D02*
X70208043Y-52734213D01*
X70208043Y-52734213D02*
X70140700Y-52734213D01*
X68861173Y-52734213D02*
X69197891Y-53070931D01*
X69197891Y-53070931D02*
X69904998Y-52363824D01*
X68625471Y-52498511D02*
X69332578Y-51791404D01*
X68221410Y-52094450D02*
X68928517Y-51993435D01*
X68928517Y-51387343D02*
X68928517Y-52195465D01*
X62178619Y-63037514D02*
X62178619Y-63513704D01*
X62178619Y-63513704D02*
X61702428Y-63561323D01*
X61702428Y-63561323D02*
X61750047Y-63513704D01*
X61750047Y-63513704D02*
X61797666Y-63418466D01*
X61797666Y-63418466D02*
X61797666Y-63180371D01*
X61797666Y-63180371D02*
X61750047Y-63085133D01*
X61750047Y-63085133D02*
X61702428Y-63037514D01*
X61702428Y-63037514D02*
X61607190Y-62989895D01*
X61607190Y-62989895D02*
X61369095Y-62989895D01*
X61369095Y-62989895D02*
X61273857Y-63037514D01*
X61273857Y-63037514D02*
X61226238Y-63085133D01*
X61226238Y-63085133D02*
X61178619Y-63180371D01*
X61178619Y-63180371D02*
X61178619Y-63418466D01*
X61178619Y-63418466D02*
X61226238Y-63513704D01*
X61226238Y-63513704D02*
X61273857Y-63561323D01*
X61845285Y-62656561D02*
X61178619Y-62418466D01*
X61178619Y-62418466D02*
X61845285Y-62180371D01*
X69254643Y-54963469D02*
X68850582Y-54559408D01*
X68345505Y-55468546D02*
X69052612Y-54761439D01*
X68042459Y-54424721D02*
X68278162Y-54660423D01*
X67907772Y-55030813D02*
X68614879Y-54323706D01*
X68614879Y-54323706D02*
X68278162Y-53986988D01*
X68109803Y-53818629D02*
X67705742Y-53414568D01*
X67200666Y-54323706D02*
X67907772Y-53616599D01*
X66338669Y-53461709D02*
X67045775Y-52754602D01*
X67045775Y-52754602D02*
X66877417Y-52586243D01*
X66877417Y-52586243D02*
X66742730Y-52518900D01*
X66742730Y-52518900D02*
X66608043Y-52518900D01*
X66608043Y-52518900D02*
X66507027Y-52552571D01*
X66507027Y-52552571D02*
X66338669Y-52653587D01*
X66338669Y-52653587D02*
X66237653Y-52754602D01*
X66237653Y-52754602D02*
X66136638Y-52922961D01*
X66136638Y-52922961D02*
X66102966Y-53023976D01*
X66102966Y-53023976D02*
X66102966Y-53158663D01*
X66102966Y-53158663D02*
X66170310Y-53293350D01*
X66170310Y-53293350D02*
X66338669Y-53461709D01*
X65294844Y-52283197D02*
X65294844Y-52350541D01*
X65294844Y-52350541D02*
X65362188Y-52485228D01*
X65362188Y-52485228D02*
X65429531Y-52552571D01*
X65429531Y-52552571D02*
X65564218Y-52619915D01*
X65564218Y-52619915D02*
X65698905Y-52619915D01*
X65698905Y-52619915D02*
X65799921Y-52586243D01*
X65799921Y-52586243D02*
X65968279Y-52485228D01*
X65968279Y-52485228D02*
X66069295Y-52384213D01*
X66069295Y-52384213D02*
X66170310Y-52215854D01*
X66170310Y-52215854D02*
X66203982Y-52114839D01*
X66203982Y-52114839D02*
X66203982Y-51980152D01*
X66203982Y-51980152D02*
X66136638Y-51845465D01*
X66136638Y-51845465D02*
X66069295Y-51778121D01*
X66069295Y-51778121D02*
X65934608Y-51710778D01*
X65934608Y-51710778D02*
X65867264Y-51710778D01*
X58706521Y-55929561D02*
X59413627Y-55222454D01*
X59413627Y-55222454D02*
X58672849Y-55491828D01*
X58672849Y-55491828D02*
X58942223Y-54751050D01*
X58942223Y-54751050D02*
X58235116Y-55458156D01*
X57898399Y-55121439D02*
X58605505Y-54414332D01*
X57561682Y-54784722D02*
X58268788Y-54077615D01*
X58268788Y-54077615D02*
X58100430Y-53909256D01*
X58100430Y-53909256D02*
X57965743Y-53841913D01*
X57965743Y-53841913D02*
X57831056Y-53841913D01*
X57831056Y-53841913D02*
X57730040Y-53875584D01*
X57730040Y-53875584D02*
X57561682Y-53976600D01*
X57561682Y-53976600D02*
X57460666Y-54077615D01*
X57460666Y-54077615D02*
X57359651Y-54245974D01*
X57359651Y-54245974D02*
X57325979Y-54346989D01*
X57325979Y-54346989D02*
X57325979Y-54481676D01*
X57325979Y-54481676D02*
X57393323Y-54616363D01*
X57393323Y-54616363D02*
X57561682Y-54784722D01*
X56854575Y-54077615D02*
X57561682Y-53370508D01*
X56901716Y-52710542D02*
X56497655Y-52306481D01*
X55992578Y-53215618D02*
X56699685Y-52508512D01*
X56329296Y-52138122D02*
X55150784Y-52373824D01*
X55857891Y-51666718D02*
X55622189Y-52845229D01*
X75043864Y-56489561D02*
X74909177Y-56422217D01*
X74909177Y-56422217D02*
X74740818Y-56253859D01*
X74740818Y-56253859D02*
X74707147Y-56152843D01*
X74707147Y-56152843D02*
X74707147Y-56085500D01*
X74707147Y-56085500D02*
X74740818Y-55984485D01*
X74740818Y-55984485D02*
X74808162Y-55917141D01*
X74808162Y-55917141D02*
X74909177Y-55883469D01*
X74909177Y-55883469D02*
X74976521Y-55883469D01*
X74976521Y-55883469D02*
X75077536Y-55917141D01*
X75077536Y-55917141D02*
X75245895Y-56018156D01*
X75245895Y-56018156D02*
X75346910Y-56051828D01*
X75346910Y-56051828D02*
X75414253Y-56051828D01*
X75414253Y-56051828D02*
X75515269Y-56018156D01*
X75515269Y-56018156D02*
X75582612Y-55950813D01*
X75582612Y-55950813D02*
X75616284Y-55849798D01*
X75616284Y-55849798D02*
X75616284Y-55782454D01*
X75616284Y-55782454D02*
X75582612Y-55681439D01*
X75582612Y-55681439D02*
X75414253Y-55513080D01*
X75414253Y-55513080D02*
X75279566Y-55445737D01*
X74303086Y-55816126D02*
X75010192Y-55109019D01*
X75010192Y-55109019D02*
X74740818Y-54839645D01*
X74740818Y-54839645D02*
X74639803Y-54805973D01*
X74639803Y-54805973D02*
X74572460Y-54805973D01*
X74572460Y-54805973D02*
X74471444Y-54839645D01*
X74471444Y-54839645D02*
X74370429Y-54940660D01*
X74370429Y-54940660D02*
X74336757Y-55041675D01*
X74336757Y-55041675D02*
X74336757Y-55109019D01*
X74336757Y-55109019D02*
X74370429Y-55210034D01*
X74370429Y-55210034D02*
X74639803Y-55479408D01*
X73595979Y-55109019D02*
X74303086Y-54401912D01*
X72834998Y-54348038D02*
X73542104Y-53640931D01*
X73542104Y-53640931D02*
X72801326Y-53910305D01*
X72801326Y-53910305D02*
X73070700Y-53169526D01*
X73070700Y-53169526D02*
X72363593Y-53876633D01*
X72599295Y-52698122D02*
X72464608Y-52563435D01*
X72464608Y-52563435D02*
X72363593Y-52529763D01*
X72363593Y-52529763D02*
X72228906Y-52529763D01*
X72228906Y-52529763D02*
X72060547Y-52630779D01*
X72060547Y-52630779D02*
X71824845Y-52866481D01*
X71824845Y-52866481D02*
X71723830Y-53034840D01*
X71723830Y-53034840D02*
X71723830Y-53169527D01*
X71723830Y-53169527D02*
X71757502Y-53270542D01*
X71757502Y-53270542D02*
X71892189Y-53405229D01*
X71892189Y-53405229D02*
X71993204Y-53438901D01*
X71993204Y-53438901D02*
X72127891Y-53438901D01*
X72127891Y-53438901D02*
X72296250Y-53337885D01*
X72296250Y-53337885D02*
X72531952Y-53102183D01*
X72531952Y-53102183D02*
X72632967Y-52933824D01*
X72632967Y-52933824D02*
X72632967Y-52799137D01*
X72632967Y-52799137D02*
X72599295Y-52698122D01*
X71353441Y-52799137D02*
X71218754Y-52731794D01*
X71218754Y-52731794D02*
X71050395Y-52563435D01*
X71050395Y-52563435D02*
X71016723Y-52462420D01*
X71016723Y-52462420D02*
X71016723Y-52395076D01*
X71016723Y-52395076D02*
X71050395Y-52294061D01*
X71050395Y-52294061D02*
X71117738Y-52226718D01*
X71117738Y-52226718D02*
X71218754Y-52193046D01*
X71218754Y-52193046D02*
X71286097Y-52193046D01*
X71286097Y-52193046D02*
X71387112Y-52226718D01*
X71387112Y-52226718D02*
X71555471Y-52327733D01*
X71555471Y-52327733D02*
X71656486Y-52361405D01*
X71656486Y-52361405D02*
X71723830Y-52361405D01*
X71723830Y-52361405D02*
X71824845Y-52327733D01*
X71824845Y-52327733D02*
X71892189Y-52260389D01*
X71892189Y-52260389D02*
X71925860Y-52159374D01*
X71925860Y-52159374D02*
X71925860Y-52092031D01*
X71925860Y-52092031D02*
X71892189Y-51991015D01*
X71892189Y-51991015D02*
X71723830Y-51822657D01*
X71723830Y-51822657D02*
X71589143Y-51755313D01*
X70612662Y-52125702D02*
X71319769Y-51418595D01*
X66984643Y-55293469D02*
X66580582Y-54889408D01*
X66075505Y-55798546D02*
X66782612Y-55091439D01*
X65772459Y-54754721D02*
X66008162Y-54990423D01*
X65637772Y-55360813D02*
X66344879Y-54653706D01*
X66344879Y-54653706D02*
X66008162Y-54316988D01*
X65839803Y-54148629D02*
X65435742Y-53744568D01*
X64930666Y-54653706D02*
X65637772Y-53946599D01*
X63731951Y-53320304D02*
X63731951Y-53387648D01*
X63731951Y-53387648D02*
X63799295Y-53522335D01*
X63799295Y-53522335D02*
X63866638Y-53589678D01*
X63866638Y-53589678D02*
X64001325Y-53657022D01*
X64001325Y-53657022D02*
X64136012Y-53657022D01*
X64136012Y-53657022D02*
X64237027Y-53623350D01*
X64237027Y-53623350D02*
X64405386Y-53522335D01*
X64405386Y-53522335D02*
X64506401Y-53421319D01*
X64506401Y-53421319D02*
X64607417Y-53252961D01*
X64607417Y-53252961D02*
X64641088Y-53151945D01*
X64641088Y-53151945D02*
X64641088Y-53017258D01*
X64641088Y-53017258D02*
X64573745Y-52882571D01*
X64573745Y-52882571D02*
X64506401Y-52815228D01*
X64506401Y-52815228D02*
X64371714Y-52747884D01*
X64371714Y-52747884D02*
X64304371Y-52747884D01*
X63428905Y-53084602D02*
X63294218Y-53017258D01*
X63294218Y-53017258D02*
X63125860Y-52848900D01*
X63125860Y-52848900D02*
X63092188Y-52747884D01*
X63092188Y-52747884D02*
X63092188Y-52680541D01*
X63092188Y-52680541D02*
X63125860Y-52579526D01*
X63125860Y-52579526D02*
X63193203Y-52512182D01*
X63193203Y-52512182D02*
X63294218Y-52478510D01*
X63294218Y-52478510D02*
X63361562Y-52478510D01*
X63361562Y-52478510D02*
X63462577Y-52512182D01*
X63462577Y-52512182D02*
X63630936Y-52613197D01*
X63630936Y-52613197D02*
X63731951Y-52646869D01*
X63731951Y-52646869D02*
X63799295Y-52646869D01*
X63799295Y-52646869D02*
X63900310Y-52613197D01*
X63900310Y-52613197D02*
X63967653Y-52545854D01*
X63967653Y-52545854D02*
X64001325Y-52444839D01*
X64001325Y-52444839D02*
X64001325Y-52377495D01*
X64001325Y-52377495D02*
X63967653Y-52276480D01*
X63967653Y-52276480D02*
X63799295Y-52108121D01*
X63799295Y-52108121D02*
X63664608Y-52040778D01*
D11*
X51732800Y-132276885D02*
X51732800Y-131562600D01*
X51304228Y-132419742D02*
X52804228Y-131919742D01*
X52804228Y-131919742D02*
X51304228Y-131419742D01*
X51304228Y-130919743D02*
X52804228Y-130919743D01*
X52804228Y-130919743D02*
X52804228Y-130562600D01*
X52804228Y-130562600D02*
X52732800Y-130348314D01*
X52732800Y-130348314D02*
X52589942Y-130205457D01*
X52589942Y-130205457D02*
X52447085Y-130134028D01*
X52447085Y-130134028D02*
X52161371Y-130062600D01*
X52161371Y-130062600D02*
X51947085Y-130062600D01*
X51947085Y-130062600D02*
X51661371Y-130134028D01*
X51661371Y-130134028D02*
X51518514Y-130205457D01*
X51518514Y-130205457D02*
X51375657Y-130348314D01*
X51375657Y-130348314D02*
X51304228Y-130562600D01*
X51304228Y-130562600D02*
X51304228Y-130919743D01*
X51375657Y-129491171D02*
X51304228Y-129276886D01*
X51304228Y-129276886D02*
X51304228Y-128919743D01*
X51304228Y-128919743D02*
X51375657Y-128776886D01*
X51375657Y-128776886D02*
X51447085Y-128705457D01*
X51447085Y-128705457D02*
X51589942Y-128634028D01*
X51589942Y-128634028D02*
X51732800Y-128634028D01*
X51732800Y-128634028D02*
X51875657Y-128705457D01*
X51875657Y-128705457D02*
X51947085Y-128776886D01*
X51947085Y-128776886D02*
X52018514Y-128919743D01*
X52018514Y-128919743D02*
X52089942Y-129205457D01*
X52089942Y-129205457D02*
X52161371Y-129348314D01*
X52161371Y-129348314D02*
X52232800Y-129419743D01*
X52232800Y-129419743D02*
X52375657Y-129491171D01*
X52375657Y-129491171D02*
X52518514Y-129491171D01*
X52518514Y-129491171D02*
X52661371Y-129419743D01*
X52661371Y-129419743D02*
X52732800Y-129348314D01*
X52732800Y-129348314D02*
X52804228Y-129205457D01*
X52804228Y-129205457D02*
X52804228Y-128848314D01*
X52804228Y-128848314D02*
X52732800Y-128634028D01*
X51304228Y-127205457D02*
X51304228Y-128062600D01*
X51304228Y-127634029D02*
X52804228Y-127634029D01*
X52804228Y-127634029D02*
X52589942Y-127776886D01*
X52589942Y-127776886D02*
X52447085Y-127919743D01*
X52447085Y-127919743D02*
X52375657Y-128062600D01*
X52804228Y-126276886D02*
X52804228Y-126134029D01*
X52804228Y-126134029D02*
X52732800Y-125991172D01*
X52732800Y-125991172D02*
X52661371Y-125919744D01*
X52661371Y-125919744D02*
X52518514Y-125848315D01*
X52518514Y-125848315D02*
X52232800Y-125776886D01*
X52232800Y-125776886D02*
X51875657Y-125776886D01*
X51875657Y-125776886D02*
X51589942Y-125848315D01*
X51589942Y-125848315D02*
X51447085Y-125919744D01*
X51447085Y-125919744D02*
X51375657Y-125991172D01*
X51375657Y-125991172D02*
X51304228Y-126134029D01*
X51304228Y-126134029D02*
X51304228Y-126276886D01*
X51304228Y-126276886D02*
X51375657Y-126419744D01*
X51375657Y-126419744D02*
X51447085Y-126491172D01*
X51447085Y-126491172D02*
X51589942Y-126562601D01*
X51589942Y-126562601D02*
X51875657Y-126634029D01*
X51875657Y-126634029D02*
X52232800Y-126634029D01*
X52232800Y-126634029D02*
X52518514Y-126562601D01*
X52518514Y-126562601D02*
X52661371Y-126491172D01*
X52661371Y-126491172D02*
X52732800Y-126419744D01*
X52732800Y-126419744D02*
X52804228Y-126276886D01*
X51304228Y-124348315D02*
X51304228Y-125205458D01*
X51304228Y-124776887D02*
X52804228Y-124776887D01*
X52804228Y-124776887D02*
X52589942Y-124919744D01*
X52589942Y-124919744D02*
X52447085Y-125062601D01*
X52447085Y-125062601D02*
X52375657Y-125205458D01*
X52804228Y-122991173D02*
X52804228Y-123705459D01*
X52804228Y-123705459D02*
X52089942Y-123776887D01*
X52089942Y-123776887D02*
X52161371Y-123705459D01*
X52161371Y-123705459D02*
X52232800Y-123562602D01*
X52232800Y-123562602D02*
X52232800Y-123205459D01*
X52232800Y-123205459D02*
X52161371Y-123062602D01*
X52161371Y-123062602D02*
X52089942Y-122991173D01*
X52089942Y-122991173D02*
X51947085Y-122919744D01*
X51947085Y-122919744D02*
X51589942Y-122919744D01*
X51589942Y-122919744D02*
X51447085Y-122991173D01*
X51447085Y-122991173D02*
X51375657Y-123062602D01*
X51375657Y-123062602D02*
X51304228Y-123205459D01*
X51304228Y-123205459D02*
X51304228Y-123562602D01*
X51304228Y-123562602D02*
X51375657Y-123705459D01*
X51375657Y-123705459D02*
X51447085Y-123776887D01*
X51304228Y-120734031D02*
X52089942Y-120734031D01*
X52089942Y-120734031D02*
X52232800Y-120805459D01*
X52232800Y-120805459D02*
X52304228Y-120948316D01*
X52304228Y-120948316D02*
X52304228Y-121234031D01*
X52304228Y-121234031D02*
X52232800Y-121376888D01*
X51375657Y-120734031D02*
X51304228Y-120876888D01*
X51304228Y-120876888D02*
X51304228Y-121234031D01*
X51304228Y-121234031D02*
X51375657Y-121376888D01*
X51375657Y-121376888D02*
X51518514Y-121448316D01*
X51518514Y-121448316D02*
X51661371Y-121448316D01*
X51661371Y-121448316D02*
X51804228Y-121376888D01*
X51804228Y-121376888D02*
X51875657Y-121234031D01*
X51875657Y-121234031D02*
X51875657Y-120876888D01*
X51875657Y-120876888D02*
X51947085Y-120734031D01*
X52304228Y-120019745D02*
X51304228Y-120019745D01*
X52161371Y-120019745D02*
X52232800Y-119948316D01*
X52232800Y-119948316D02*
X52304228Y-119805459D01*
X52304228Y-119805459D02*
X52304228Y-119591173D01*
X52304228Y-119591173D02*
X52232800Y-119448316D01*
X52232800Y-119448316D02*
X52089942Y-119376888D01*
X52089942Y-119376888D02*
X51304228Y-119376888D01*
X51304228Y-118019745D02*
X52089942Y-118019745D01*
X52089942Y-118019745D02*
X52232800Y-118091173D01*
X52232800Y-118091173D02*
X52304228Y-118234030D01*
X52304228Y-118234030D02*
X52304228Y-118519745D01*
X52304228Y-118519745D02*
X52232800Y-118662602D01*
X51375657Y-118019745D02*
X51304228Y-118162602D01*
X51304228Y-118162602D02*
X51304228Y-118519745D01*
X51304228Y-118519745D02*
X51375657Y-118662602D01*
X51375657Y-118662602D02*
X51518514Y-118734030D01*
X51518514Y-118734030D02*
X51661371Y-118734030D01*
X51661371Y-118734030D02*
X51804228Y-118662602D01*
X51804228Y-118662602D02*
X51875657Y-118519745D01*
X51875657Y-118519745D02*
X51875657Y-118162602D01*
X51875657Y-118162602D02*
X51947085Y-118019745D01*
X51304228Y-117091173D02*
X51375657Y-117234030D01*
X51375657Y-117234030D02*
X51518514Y-117305459D01*
X51518514Y-117305459D02*
X52804228Y-117305459D01*
X51304228Y-116305459D02*
X51375657Y-116448316D01*
X51375657Y-116448316D02*
X51447085Y-116519745D01*
X51447085Y-116519745D02*
X51589942Y-116591173D01*
X51589942Y-116591173D02*
X52018514Y-116591173D01*
X52018514Y-116591173D02*
X52161371Y-116519745D01*
X52161371Y-116519745D02*
X52232800Y-116448316D01*
X52232800Y-116448316D02*
X52304228Y-116305459D01*
X52304228Y-116305459D02*
X52304228Y-116091173D01*
X52304228Y-116091173D02*
X52232800Y-115948316D01*
X52232800Y-115948316D02*
X52161371Y-115876888D01*
X52161371Y-115876888D02*
X52018514Y-115805459D01*
X52018514Y-115805459D02*
X51589942Y-115805459D01*
X51589942Y-115805459D02*
X51447085Y-115876888D01*
X51447085Y-115876888D02*
X51375657Y-115948316D01*
X51375657Y-115948316D02*
X51304228Y-116091173D01*
X51304228Y-116091173D02*
X51304228Y-116305459D01*
X52304228Y-114519745D02*
X51089942Y-114519745D01*
X51089942Y-114519745D02*
X50947085Y-114591173D01*
X50947085Y-114591173D02*
X50875657Y-114662602D01*
X50875657Y-114662602D02*
X50804228Y-114805459D01*
X50804228Y-114805459D02*
X50804228Y-115019745D01*
X50804228Y-115019745D02*
X50875657Y-115162602D01*
X51375657Y-114519745D02*
X51304228Y-114662602D01*
X51304228Y-114662602D02*
X51304228Y-114948316D01*
X51304228Y-114948316D02*
X51375657Y-115091173D01*
X51375657Y-115091173D02*
X51447085Y-115162602D01*
X51447085Y-115162602D02*
X51589942Y-115234030D01*
X51589942Y-115234030D02*
X52018514Y-115234030D01*
X52018514Y-115234030D02*
X52161371Y-115162602D01*
X52161371Y-115162602D02*
X52232800Y-115091173D01*
X52232800Y-115091173D02*
X52304228Y-114948316D01*
X52304228Y-114948316D02*
X52304228Y-114662602D01*
X52304228Y-114662602D02*
X52232800Y-114519745D01*
D10*
X52543104Y-89307980D02*
X52543104Y-90117504D01*
X52543104Y-90117504D02*
X52495485Y-90212742D01*
X52495485Y-90212742D02*
X52447866Y-90260361D01*
X52447866Y-90260361D02*
X52352628Y-90307980D01*
X52352628Y-90307980D02*
X52162152Y-90307980D01*
X52162152Y-90307980D02*
X52066914Y-90260361D01*
X52066914Y-90260361D02*
X52019295Y-90212742D01*
X52019295Y-90212742D02*
X51971676Y-90117504D01*
X51971676Y-90117504D02*
X51971676Y-89307980D01*
X51543104Y-90260361D02*
X51400247Y-90307980D01*
X51400247Y-90307980D02*
X51162152Y-90307980D01*
X51162152Y-90307980D02*
X51066914Y-90260361D01*
X51066914Y-90260361D02*
X51019295Y-90212742D01*
X51019295Y-90212742D02*
X50971676Y-90117504D01*
X50971676Y-90117504D02*
X50971676Y-90022266D01*
X50971676Y-90022266D02*
X51019295Y-89927028D01*
X51019295Y-89927028D02*
X51066914Y-89879409D01*
X51066914Y-89879409D02*
X51162152Y-89831790D01*
X51162152Y-89831790D02*
X51352628Y-89784171D01*
X51352628Y-89784171D02*
X51447866Y-89736552D01*
X51447866Y-89736552D02*
X51495485Y-89688933D01*
X51495485Y-89688933D02*
X51543104Y-89593695D01*
X51543104Y-89593695D02*
X51543104Y-89498457D01*
X51543104Y-89498457D02*
X51495485Y-89403219D01*
X51495485Y-89403219D02*
X51447866Y-89355600D01*
X51447866Y-89355600D02*
X51352628Y-89307980D01*
X51352628Y-89307980D02*
X51114533Y-89307980D01*
X51114533Y-89307980D02*
X50971676Y-89355600D01*
X50209771Y-89784171D02*
X50066914Y-89831790D01*
X50066914Y-89831790D02*
X50019295Y-89879409D01*
X50019295Y-89879409D02*
X49971676Y-89974647D01*
X49971676Y-89974647D02*
X49971676Y-90117504D01*
X49971676Y-90117504D02*
X50019295Y-90212742D01*
X50019295Y-90212742D02*
X50066914Y-90260361D01*
X50066914Y-90260361D02*
X50162152Y-90307980D01*
X50162152Y-90307980D02*
X50543104Y-90307980D01*
X50543104Y-90307980D02*
X50543104Y-89307980D01*
X50543104Y-89307980D02*
X50209771Y-89307980D01*
X50209771Y-89307980D02*
X50114533Y-89355600D01*
X50114533Y-89355600D02*
X50066914Y-89403219D01*
X50066914Y-89403219D02*
X50019295Y-89498457D01*
X50019295Y-89498457D02*
X50019295Y-89593695D01*
X50019295Y-89593695D02*
X50066914Y-89688933D01*
X50066914Y-89688933D02*
X50114533Y-89736552D01*
X50114533Y-89736552D02*
X50209771Y-89784171D01*
X50209771Y-89784171D02*
X50543104Y-89784171D01*
X48562152Y-90260361D02*
X48657390Y-90307980D01*
X48657390Y-90307980D02*
X48847866Y-90307980D01*
X48847866Y-90307980D02*
X48943104Y-90260361D01*
X48943104Y-90260361D02*
X48990723Y-90165123D01*
X48990723Y-90165123D02*
X48990723Y-89784171D01*
X48990723Y-89784171D02*
X48943104Y-89688933D01*
X48943104Y-89688933D02*
X48847866Y-89641314D01*
X48847866Y-89641314D02*
X48657390Y-89641314D01*
X48657390Y-89641314D02*
X48562152Y-89688933D01*
X48562152Y-89688933D02*
X48514533Y-89784171D01*
X48514533Y-89784171D02*
X48514533Y-89879409D01*
X48514533Y-89879409D02*
X48990723Y-89974647D01*
X48085961Y-89641314D02*
X48085961Y-90307980D01*
X48085961Y-89736552D02*
X48038342Y-89688933D01*
X48038342Y-89688933D02*
X47943104Y-89641314D01*
X47943104Y-89641314D02*
X47800247Y-89641314D01*
X47800247Y-89641314D02*
X47705009Y-89688933D01*
X47705009Y-89688933D02*
X47657390Y-89784171D01*
X47657390Y-89784171D02*
X47657390Y-90307980D01*
X46752628Y-90307980D02*
X46752628Y-89307980D01*
X46752628Y-90260361D02*
X46847866Y-90307980D01*
X46847866Y-90307980D02*
X47038342Y-90307980D01*
X47038342Y-90307980D02*
X47133580Y-90260361D01*
X47133580Y-90260361D02*
X47181199Y-90212742D01*
X47181199Y-90212742D02*
X47228818Y-90117504D01*
X47228818Y-90117504D02*
X47228818Y-89831790D01*
X47228818Y-89831790D02*
X47181199Y-89736552D01*
X47181199Y-89736552D02*
X47133580Y-89688933D01*
X47133580Y-89688933D02*
X47038342Y-89641314D01*
X47038342Y-89641314D02*
X46847866Y-89641314D01*
X46847866Y-89641314D02*
X46752628Y-89688933D01*
X59528619Y-63528942D02*
X59528619Y-62909895D01*
X59528619Y-62909895D02*
X59147666Y-63243228D01*
X59147666Y-63243228D02*
X59147666Y-63100371D01*
X59147666Y-63100371D02*
X59100047Y-63005133D01*
X59100047Y-63005133D02*
X59052428Y-62957514D01*
X59052428Y-62957514D02*
X58957190Y-62909895D01*
X58957190Y-62909895D02*
X58719095Y-62909895D01*
X58719095Y-62909895D02*
X58623857Y-62957514D01*
X58623857Y-62957514D02*
X58576238Y-63005133D01*
X58576238Y-63005133D02*
X58528619Y-63100371D01*
X58528619Y-63100371D02*
X58528619Y-63386085D01*
X58528619Y-63386085D02*
X58576238Y-63481323D01*
X58576238Y-63481323D02*
X58623857Y-63528942D01*
X59195285Y-62576561D02*
X58528619Y-62338466D01*
X58528619Y-62338466D02*
X59195285Y-62100371D01*
X77601828Y-95342104D02*
X77601828Y-95008771D01*
X77078019Y-94865914D02*
X77078019Y-95342104D01*
X77078019Y-95342104D02*
X78078019Y-95342104D01*
X78078019Y-95342104D02*
X78078019Y-94865914D01*
X78078019Y-94437342D02*
X77268495Y-94437342D01*
X77268495Y-94437342D02*
X77173257Y-94389723D01*
X77173257Y-94389723D02*
X77125638Y-94342104D01*
X77125638Y-94342104D02*
X77078019Y-94246866D01*
X77078019Y-94246866D02*
X77078019Y-94056390D01*
X77078019Y-94056390D02*
X77125638Y-93961152D01*
X77125638Y-93961152D02*
X77173257Y-93913533D01*
X77173257Y-93913533D02*
X77268495Y-93865914D01*
X77268495Y-93865914D02*
X78078019Y-93865914D01*
X77078019Y-92818295D02*
X77554209Y-93151628D01*
X77078019Y-93389723D02*
X78078019Y-93389723D01*
X78078019Y-93389723D02*
X78078019Y-93008771D01*
X78078019Y-93008771D02*
X78030400Y-92913533D01*
X78030400Y-92913533D02*
X77982780Y-92865914D01*
X77982780Y-92865914D02*
X77887542Y-92818295D01*
X77887542Y-92818295D02*
X77744685Y-92818295D01*
X77744685Y-92818295D02*
X77649447Y-92865914D01*
X77649447Y-92865914D02*
X77601828Y-92913533D01*
X77601828Y-92913533D02*
X77554209Y-93008771D01*
X77554209Y-93008771D02*
X77554209Y-93389723D01*
X78078019Y-92199247D02*
X78078019Y-92008771D01*
X78078019Y-92008771D02*
X78030400Y-91913533D01*
X78030400Y-91913533D02*
X77935161Y-91818295D01*
X77935161Y-91818295D02*
X77744685Y-91770676D01*
X77744685Y-91770676D02*
X77411352Y-91770676D01*
X77411352Y-91770676D02*
X77220876Y-91818295D01*
X77220876Y-91818295D02*
X77125638Y-91913533D01*
X77125638Y-91913533D02*
X77078019Y-92008771D01*
X77078019Y-92008771D02*
X77078019Y-92199247D01*
X77078019Y-92199247D02*
X77125638Y-92294485D01*
X77125638Y-92294485D02*
X77220876Y-92389723D01*
X77220876Y-92389723D02*
X77411352Y-92437342D01*
X77411352Y-92437342D02*
X77744685Y-92437342D01*
X77744685Y-92437342D02*
X77935161Y-92389723D01*
X77935161Y-92389723D02*
X78030400Y-92294485D01*
X78030400Y-92294485D02*
X78078019Y-92199247D01*
X77078019Y-90770676D02*
X77554209Y-91104009D01*
X77078019Y-91342104D02*
X78078019Y-91342104D01*
X78078019Y-91342104D02*
X78078019Y-90961152D01*
X78078019Y-90961152D02*
X78030400Y-90865914D01*
X78030400Y-90865914D02*
X77982780Y-90818295D01*
X77982780Y-90818295D02*
X77887542Y-90770676D01*
X77887542Y-90770676D02*
X77744685Y-90770676D01*
X77744685Y-90770676D02*
X77649447Y-90818295D01*
X77649447Y-90818295D02*
X77601828Y-90865914D01*
X77601828Y-90865914D02*
X77554209Y-90961152D01*
X77554209Y-90961152D02*
X77554209Y-91342104D01*
X77363733Y-90389723D02*
X77363733Y-89913533D01*
X77078019Y-90484961D02*
X78078019Y-90151628D01*
X78078019Y-90151628D02*
X77078019Y-89818295D01*
X77173257Y-88913533D02*
X77125638Y-88961152D01*
X77125638Y-88961152D02*
X77078019Y-89104009D01*
X77078019Y-89104009D02*
X77078019Y-89199247D01*
X77078019Y-89199247D02*
X77125638Y-89342104D01*
X77125638Y-89342104D02*
X77220876Y-89437342D01*
X77220876Y-89437342D02*
X77316114Y-89484961D01*
X77316114Y-89484961D02*
X77506590Y-89532580D01*
X77506590Y-89532580D02*
X77649447Y-89532580D01*
X77649447Y-89532580D02*
X77839923Y-89484961D01*
X77839923Y-89484961D02*
X77935161Y-89437342D01*
X77935161Y-89437342D02*
X78030400Y-89342104D01*
X78030400Y-89342104D02*
X78078019Y-89199247D01*
X78078019Y-89199247D02*
X78078019Y-89104009D01*
X78078019Y-89104009D02*
X78030400Y-88961152D01*
X78030400Y-88961152D02*
X77982780Y-88913533D01*
X77078019Y-88484961D02*
X78078019Y-88484961D01*
X77078019Y-87913533D02*
X77649447Y-88342104D01*
X78078019Y-87913533D02*
X77506590Y-88484961D01*
X77078019Y-86884961D02*
X78078019Y-86884961D01*
X78078019Y-86884961D02*
X78078019Y-86504009D01*
X78078019Y-86504009D02*
X78030400Y-86408771D01*
X78030400Y-86408771D02*
X77982780Y-86361152D01*
X77982780Y-86361152D02*
X77887542Y-86313533D01*
X77887542Y-86313533D02*
X77744685Y-86313533D01*
X77744685Y-86313533D02*
X77649447Y-86361152D01*
X77649447Y-86361152D02*
X77601828Y-86408771D01*
X77601828Y-86408771D02*
X77554209Y-86504009D01*
X77554209Y-86504009D02*
X77554209Y-86884961D01*
X78078019Y-85694485D02*
X78078019Y-85504009D01*
X78078019Y-85504009D02*
X78030400Y-85408771D01*
X78030400Y-85408771D02*
X77935161Y-85313533D01*
X77935161Y-85313533D02*
X77744685Y-85265914D01*
X77744685Y-85265914D02*
X77411352Y-85265914D01*
X77411352Y-85265914D02*
X77220876Y-85313533D01*
X77220876Y-85313533D02*
X77125638Y-85408771D01*
X77125638Y-85408771D02*
X77078019Y-85504009D01*
X77078019Y-85504009D02*
X77078019Y-85694485D01*
X77078019Y-85694485D02*
X77125638Y-85789723D01*
X77125638Y-85789723D02*
X77220876Y-85884961D01*
X77220876Y-85884961D02*
X77411352Y-85932580D01*
X77411352Y-85932580D02*
X77744685Y-85932580D01*
X77744685Y-85932580D02*
X77935161Y-85884961D01*
X77935161Y-85884961D02*
X78030400Y-85789723D01*
X78030400Y-85789723D02*
X78078019Y-85694485D01*
X78078019Y-84932580D02*
X77078019Y-84694485D01*
X77078019Y-84694485D02*
X77792304Y-84504009D01*
X77792304Y-84504009D02*
X77078019Y-84313533D01*
X77078019Y-84313533D02*
X78078019Y-84075438D01*
X77601828Y-83694485D02*
X77601828Y-83361152D01*
X77078019Y-83218295D02*
X77078019Y-83694485D01*
X77078019Y-83694485D02*
X78078019Y-83694485D01*
X78078019Y-83694485D02*
X78078019Y-83218295D01*
X77078019Y-82218295D02*
X77554209Y-82551628D01*
X77078019Y-82789723D02*
X78078019Y-82789723D01*
X78078019Y-82789723D02*
X78078019Y-82408771D01*
X78078019Y-82408771D02*
X78030400Y-82313533D01*
X78030400Y-82313533D02*
X77982780Y-82265914D01*
X77982780Y-82265914D02*
X77887542Y-82218295D01*
X77887542Y-82218295D02*
X77744685Y-82218295D01*
X77744685Y-82218295D02*
X77649447Y-82265914D01*
X77649447Y-82265914D02*
X77601828Y-82313533D01*
X77601828Y-82313533D02*
X77554209Y-82408771D01*
X77554209Y-82408771D02*
X77554209Y-82789723D01*
X54331000Y-59279895D02*
X54378619Y-59375133D01*
X54378619Y-59375133D02*
X54378619Y-59517990D01*
X54378619Y-59517990D02*
X54331000Y-59660847D01*
X54331000Y-59660847D02*
X54235761Y-59756085D01*
X54235761Y-59756085D02*
X54140523Y-59803704D01*
X54140523Y-59803704D02*
X53950047Y-59851323D01*
X53950047Y-59851323D02*
X53807190Y-59851323D01*
X53807190Y-59851323D02*
X53616714Y-59803704D01*
X53616714Y-59803704D02*
X53521476Y-59756085D01*
X53521476Y-59756085D02*
X53426238Y-59660847D01*
X53426238Y-59660847D02*
X53378619Y-59517990D01*
X53378619Y-59517990D02*
X53378619Y-59422752D01*
X53378619Y-59422752D02*
X53426238Y-59279895D01*
X53426238Y-59279895D02*
X53473857Y-59232276D01*
X53473857Y-59232276D02*
X53807190Y-59232276D01*
X53807190Y-59232276D02*
X53807190Y-59422752D01*
X53378619Y-58803704D02*
X54378619Y-58803704D01*
X54378619Y-58803704D02*
X53378619Y-58232276D01*
X53378619Y-58232276D02*
X54378619Y-58232276D01*
X53378619Y-57756085D02*
X54378619Y-57756085D01*
X54378619Y-57756085D02*
X54378619Y-57517990D01*
X54378619Y-57517990D02*
X54331000Y-57375133D01*
X54331000Y-57375133D02*
X54235761Y-57279895D01*
X54235761Y-57279895D02*
X54140523Y-57232276D01*
X54140523Y-57232276D02*
X53950047Y-57184657D01*
X53950047Y-57184657D02*
X53807190Y-57184657D01*
X53807190Y-57184657D02*
X53616714Y-57232276D01*
X53616714Y-57232276D02*
X53521476Y-57279895D01*
X53521476Y-57279895D02*
X53426238Y-57375133D01*
X53426238Y-57375133D02*
X53378619Y-57517990D01*
X53378619Y-57517990D02*
X53378619Y-57756085D01*
X52485942Y-74429180D02*
X51819276Y-75429180D01*
X51819276Y-74429180D02*
X52485942Y-75429180D01*
X51438323Y-75429180D02*
X51438323Y-74429180D01*
X51009752Y-75143466D02*
X50533562Y-75143466D01*
X51104990Y-75429180D02*
X50771657Y-74429180D01*
X50771657Y-74429180D02*
X50438324Y-75429180D01*
X49914514Y-74429180D02*
X49724038Y-74429180D01*
X49724038Y-74429180D02*
X49628800Y-74476800D01*
X49628800Y-74476800D02*
X49533562Y-74572038D01*
X49533562Y-74572038D02*
X49485943Y-74762514D01*
X49485943Y-74762514D02*
X49485943Y-75095847D01*
X49485943Y-75095847D02*
X49533562Y-75286323D01*
X49533562Y-75286323D02*
X49628800Y-75381561D01*
X49628800Y-75381561D02*
X49724038Y-75429180D01*
X49724038Y-75429180D02*
X49914514Y-75429180D01*
X49914514Y-75429180D02*
X50009752Y-75381561D01*
X50009752Y-75381561D02*
X50104990Y-75286323D01*
X50104990Y-75286323D02*
X50152609Y-75095847D01*
X50152609Y-75095847D02*
X50152609Y-74762514D01*
X50152609Y-74762514D02*
X50104990Y-74572038D01*
X50104990Y-74572038D02*
X50009752Y-74476800D01*
X50009752Y-74476800D02*
X49914514Y-74429180D01*
X51819276Y-77049180D02*
X52152609Y-76572990D01*
X52390704Y-77049180D02*
X52390704Y-76049180D01*
X52390704Y-76049180D02*
X52009752Y-76049180D01*
X52009752Y-76049180D02*
X51914514Y-76096800D01*
X51914514Y-76096800D02*
X51866895Y-76144419D01*
X51866895Y-76144419D02*
X51819276Y-76239657D01*
X51819276Y-76239657D02*
X51819276Y-76382514D01*
X51819276Y-76382514D02*
X51866895Y-76477752D01*
X51866895Y-76477752D02*
X51914514Y-76525371D01*
X51914514Y-76525371D02*
X52009752Y-76572990D01*
X52009752Y-76572990D02*
X52390704Y-76572990D01*
X51390704Y-77049180D02*
X51390704Y-76049180D01*
X51390704Y-76049180D02*
X51009752Y-76049180D01*
X51009752Y-76049180D02*
X50914514Y-76096800D01*
X50914514Y-76096800D02*
X50866895Y-76144419D01*
X50866895Y-76144419D02*
X50819276Y-76239657D01*
X50819276Y-76239657D02*
X50819276Y-76382514D01*
X50819276Y-76382514D02*
X50866895Y-76477752D01*
X50866895Y-76477752D02*
X50914514Y-76525371D01*
X50914514Y-76525371D02*
X51009752Y-76572990D01*
X51009752Y-76572990D02*
X51390704Y-76572990D01*
X50438323Y-76144419D02*
X50390704Y-76096800D01*
X50390704Y-76096800D02*
X50295466Y-76049180D01*
X50295466Y-76049180D02*
X50057371Y-76049180D01*
X50057371Y-76049180D02*
X49962133Y-76096800D01*
X49962133Y-76096800D02*
X49914514Y-76144419D01*
X49914514Y-76144419D02*
X49866895Y-76239657D01*
X49866895Y-76239657D02*
X49866895Y-76334895D01*
X49866895Y-76334895D02*
X49914514Y-76477752D01*
X49914514Y-76477752D02*
X50485942Y-77049180D01*
X50485942Y-77049180D02*
X49866895Y-77049180D01*
X49247847Y-76049180D02*
X49152609Y-76049180D01*
X49152609Y-76049180D02*
X49057371Y-76096800D01*
X49057371Y-76096800D02*
X49009752Y-76144419D01*
X49009752Y-76144419D02*
X48962133Y-76239657D01*
X48962133Y-76239657D02*
X48914514Y-76430133D01*
X48914514Y-76430133D02*
X48914514Y-76668228D01*
X48914514Y-76668228D02*
X48962133Y-76858704D01*
X48962133Y-76858704D02*
X49009752Y-76953942D01*
X49009752Y-76953942D02*
X49057371Y-77001561D01*
X49057371Y-77001561D02*
X49152609Y-77049180D01*
X49152609Y-77049180D02*
X49247847Y-77049180D01*
X49247847Y-77049180D02*
X49343085Y-77001561D01*
X49343085Y-77001561D02*
X49390704Y-76953942D01*
X49390704Y-76953942D02*
X49438323Y-76858704D01*
X49438323Y-76858704D02*
X49485942Y-76668228D01*
X49485942Y-76668228D02*
X49485942Y-76430133D01*
X49485942Y-76430133D02*
X49438323Y-76239657D01*
X49438323Y-76239657D02*
X49390704Y-76144419D01*
X49390704Y-76144419D02*
X49343085Y-76096800D01*
X49343085Y-76096800D02*
X49247847Y-76049180D01*
X48057371Y-76382514D02*
X48057371Y-77049180D01*
X48295466Y-76001561D02*
X48533561Y-76715847D01*
X48533561Y-76715847D02*
X47914514Y-76715847D01*
X47343085Y-76049180D02*
X47247847Y-76049180D01*
X47247847Y-76049180D02*
X47152609Y-76096800D01*
X47152609Y-76096800D02*
X47104990Y-76144419D01*
X47104990Y-76144419D02*
X47057371Y-76239657D01*
X47057371Y-76239657D02*
X47009752Y-76430133D01*
X47009752Y-76430133D02*
X47009752Y-76668228D01*
X47009752Y-76668228D02*
X47057371Y-76858704D01*
X47057371Y-76858704D02*
X47104990Y-76953942D01*
X47104990Y-76953942D02*
X47152609Y-77001561D01*
X47152609Y-77001561D02*
X47247847Y-77049180D01*
X47247847Y-77049180D02*
X47343085Y-77049180D01*
X47343085Y-77049180D02*
X47438323Y-77001561D01*
X47438323Y-77001561D02*
X47485942Y-76953942D01*
X47485942Y-76953942D02*
X47533561Y-76858704D01*
X47533561Y-76858704D02*
X47581180Y-76668228D01*
X47581180Y-76668228D02*
X47581180Y-76430133D01*
X47581180Y-76430133D02*
X47533561Y-76239657D01*
X47533561Y-76239657D02*
X47485942Y-76144419D01*
X47485942Y-76144419D02*
X47438323Y-76096800D01*
X47438323Y-76096800D02*
X47343085Y-76049180D01*
X70223238Y-66187321D02*
X70694643Y-66658725D01*
X70930345Y-66894427D02*
X70863001Y-66894427D01*
X70863001Y-66894427D02*
X70863001Y-66827084D01*
X70863001Y-66827084D02*
X70930345Y-66827084D01*
X70930345Y-66827084D02*
X70930345Y-66894427D01*
X70930345Y-66894427D02*
X70863001Y-66827084D01*
X71166047Y-66524038D02*
X71233390Y-66524038D01*
X71233390Y-66524038D02*
X71334406Y-66490367D01*
X71334406Y-66490367D02*
X71502764Y-66322008D01*
X71502764Y-66322008D02*
X71536436Y-66220993D01*
X71536436Y-66220993D02*
X71536436Y-66153649D01*
X71536436Y-66153649D02*
X71502764Y-66052634D01*
X71502764Y-66052634D02*
X71435421Y-65985290D01*
X71435421Y-65985290D02*
X71300734Y-65917947D01*
X71300734Y-65917947D02*
X70492612Y-65917947D01*
X70492612Y-65917947D02*
X70930345Y-65480214D01*
X71570108Y-64907794D02*
X71469093Y-64941466D01*
X71469093Y-64941466D02*
X71334406Y-65076153D01*
X71334406Y-65076153D02*
X71300734Y-65177168D01*
X71300734Y-65177168D02*
X71300734Y-65244512D01*
X71300734Y-65244512D02*
X71334406Y-65345527D01*
X71334406Y-65345527D02*
X71536436Y-65547558D01*
X71536436Y-65547558D02*
X71637451Y-65581229D01*
X71637451Y-65581229D02*
X71704795Y-65581229D01*
X71704795Y-65581229D02*
X71805810Y-65547558D01*
X71805810Y-65547558D02*
X71940497Y-65412871D01*
X71940497Y-65412871D02*
X71974169Y-65311855D01*
X72263746Y-64214156D02*
X72331090Y-64079469D01*
X72331090Y-64079469D02*
X72499448Y-63911110D01*
X72499448Y-63911110D02*
X72600464Y-63877439D01*
X72600464Y-63877439D02*
X72667807Y-63877439D01*
X72667807Y-63877439D02*
X72768822Y-63911110D01*
X72768822Y-63911110D02*
X72836166Y-63978454D01*
X72836166Y-63978454D02*
X72869838Y-64079469D01*
X72869838Y-64079469D02*
X72869838Y-64146813D01*
X72869838Y-64146813D02*
X72836166Y-64247828D01*
X72836166Y-64247828D02*
X72735151Y-64416187D01*
X72735151Y-64416187D02*
X72701479Y-64517202D01*
X72701479Y-64517202D02*
X72701479Y-64584545D01*
X72701479Y-64584545D02*
X72735151Y-64685561D01*
X72735151Y-64685561D02*
X72802494Y-64752904D01*
X72802494Y-64752904D02*
X72903509Y-64786576D01*
X72903509Y-64786576D02*
X72970853Y-64786576D01*
X72970853Y-64786576D02*
X73071868Y-64752904D01*
X73071868Y-64752904D02*
X73240227Y-64584545D01*
X73240227Y-64584545D02*
X73307570Y-64449858D01*
X72937181Y-63473378D02*
X73644288Y-64180484D01*
X73644288Y-64180484D02*
X73812647Y-64012126D01*
X73812647Y-64012126D02*
X73879990Y-63877439D01*
X73879990Y-63877439D02*
X73879990Y-63742752D01*
X73879990Y-63742752D02*
X73846318Y-63641736D01*
X73846318Y-63641736D02*
X73745303Y-63473378D01*
X73745303Y-63473378D02*
X73644288Y-63372362D01*
X73644288Y-63372362D02*
X73475929Y-63271347D01*
X73475929Y-63271347D02*
X73374914Y-63237675D01*
X73374914Y-63237675D02*
X73240227Y-63237675D01*
X73240227Y-63237675D02*
X73105540Y-63305019D01*
X73105540Y-63305019D02*
X72937181Y-63473378D01*
X73812647Y-63001973D02*
X74149364Y-62665256D01*
X73543273Y-62867286D02*
X74486082Y-63338691D01*
X74486082Y-63338691D02*
X74014677Y-62395882D01*
D11*
X76269200Y-131972085D02*
X76269200Y-131257800D01*
X75840628Y-132114942D02*
X77340628Y-131614942D01*
X77340628Y-131614942D02*
X75840628Y-131114942D01*
X75840628Y-130614943D02*
X77340628Y-130614943D01*
X77340628Y-130614943D02*
X77340628Y-130257800D01*
X77340628Y-130257800D02*
X77269200Y-130043514D01*
X77269200Y-130043514D02*
X77126342Y-129900657D01*
X77126342Y-129900657D02*
X76983485Y-129829228D01*
X76983485Y-129829228D02*
X76697771Y-129757800D01*
X76697771Y-129757800D02*
X76483485Y-129757800D01*
X76483485Y-129757800D02*
X76197771Y-129829228D01*
X76197771Y-129829228D02*
X76054914Y-129900657D01*
X76054914Y-129900657D02*
X75912057Y-130043514D01*
X75912057Y-130043514D02*
X75840628Y-130257800D01*
X75840628Y-130257800D02*
X75840628Y-130614943D01*
X75912057Y-129186371D02*
X75840628Y-128972086D01*
X75840628Y-128972086D02*
X75840628Y-128614943D01*
X75840628Y-128614943D02*
X75912057Y-128472086D01*
X75912057Y-128472086D02*
X75983485Y-128400657D01*
X75983485Y-128400657D02*
X76126342Y-128329228D01*
X76126342Y-128329228D02*
X76269200Y-128329228D01*
X76269200Y-128329228D02*
X76412057Y-128400657D01*
X76412057Y-128400657D02*
X76483485Y-128472086D01*
X76483485Y-128472086D02*
X76554914Y-128614943D01*
X76554914Y-128614943D02*
X76626342Y-128900657D01*
X76626342Y-128900657D02*
X76697771Y-129043514D01*
X76697771Y-129043514D02*
X76769200Y-129114943D01*
X76769200Y-129114943D02*
X76912057Y-129186371D01*
X76912057Y-129186371D02*
X77054914Y-129186371D01*
X77054914Y-129186371D02*
X77197771Y-129114943D01*
X77197771Y-129114943D02*
X77269200Y-129043514D01*
X77269200Y-129043514D02*
X77340628Y-128900657D01*
X77340628Y-128900657D02*
X77340628Y-128543514D01*
X77340628Y-128543514D02*
X77269200Y-128329228D01*
X75840628Y-126900657D02*
X75840628Y-127757800D01*
X75840628Y-127329229D02*
X77340628Y-127329229D01*
X77340628Y-127329229D02*
X77126342Y-127472086D01*
X77126342Y-127472086D02*
X76983485Y-127614943D01*
X76983485Y-127614943D02*
X76912057Y-127757800D01*
X77340628Y-125972086D02*
X77340628Y-125829229D01*
X77340628Y-125829229D02*
X77269200Y-125686372D01*
X77269200Y-125686372D02*
X77197771Y-125614944D01*
X77197771Y-125614944D02*
X77054914Y-125543515D01*
X77054914Y-125543515D02*
X76769200Y-125472086D01*
X76769200Y-125472086D02*
X76412057Y-125472086D01*
X76412057Y-125472086D02*
X76126342Y-125543515D01*
X76126342Y-125543515D02*
X75983485Y-125614944D01*
X75983485Y-125614944D02*
X75912057Y-125686372D01*
X75912057Y-125686372D02*
X75840628Y-125829229D01*
X75840628Y-125829229D02*
X75840628Y-125972086D01*
X75840628Y-125972086D02*
X75912057Y-126114944D01*
X75912057Y-126114944D02*
X75983485Y-126186372D01*
X75983485Y-126186372D02*
X76126342Y-126257801D01*
X76126342Y-126257801D02*
X76412057Y-126329229D01*
X76412057Y-126329229D02*
X76769200Y-126329229D01*
X76769200Y-126329229D02*
X77054914Y-126257801D01*
X77054914Y-126257801D02*
X77197771Y-126186372D01*
X77197771Y-126186372D02*
X77269200Y-126114944D01*
X77269200Y-126114944D02*
X77340628Y-125972086D01*
X75840628Y-124043515D02*
X75840628Y-124900658D01*
X75840628Y-124472087D02*
X77340628Y-124472087D01*
X77340628Y-124472087D02*
X77126342Y-124614944D01*
X77126342Y-124614944D02*
X76983485Y-124757801D01*
X76983485Y-124757801D02*
X76912057Y-124900658D01*
X77340628Y-122686373D02*
X77340628Y-123400659D01*
X77340628Y-123400659D02*
X76626342Y-123472087D01*
X76626342Y-123472087D02*
X76697771Y-123400659D01*
X76697771Y-123400659D02*
X76769200Y-123257802D01*
X76769200Y-123257802D02*
X76769200Y-122900659D01*
X76769200Y-122900659D02*
X76697771Y-122757802D01*
X76697771Y-122757802D02*
X76626342Y-122686373D01*
X76626342Y-122686373D02*
X76483485Y-122614944D01*
X76483485Y-122614944D02*
X76126342Y-122614944D01*
X76126342Y-122614944D02*
X75983485Y-122686373D01*
X75983485Y-122686373D02*
X75912057Y-122757802D01*
X75912057Y-122757802D02*
X75840628Y-122900659D01*
X75840628Y-122900659D02*
X75840628Y-123257802D01*
X75840628Y-123257802D02*
X75912057Y-123400659D01*
X75912057Y-123400659D02*
X75983485Y-123472087D01*
X75840628Y-120429231D02*
X77340628Y-120429231D01*
X75912057Y-120429231D02*
X75840628Y-120572088D01*
X75840628Y-120572088D02*
X75840628Y-120857802D01*
X75840628Y-120857802D02*
X75912057Y-121000659D01*
X75912057Y-121000659D02*
X75983485Y-121072088D01*
X75983485Y-121072088D02*
X76126342Y-121143516D01*
X76126342Y-121143516D02*
X76554914Y-121143516D01*
X76554914Y-121143516D02*
X76697771Y-121072088D01*
X76697771Y-121072088D02*
X76769200Y-121000659D01*
X76769200Y-121000659D02*
X76840628Y-120857802D01*
X76840628Y-120857802D02*
X76840628Y-120572088D01*
X76840628Y-120572088D02*
X76769200Y-120429231D01*
X75840628Y-119714945D02*
X76840628Y-119714945D01*
X77340628Y-119714945D02*
X77269200Y-119786373D01*
X77269200Y-119786373D02*
X77197771Y-119714945D01*
X77197771Y-119714945D02*
X77269200Y-119643516D01*
X77269200Y-119643516D02*
X77340628Y-119714945D01*
X77340628Y-119714945D02*
X77197771Y-119714945D01*
X76840628Y-118357802D02*
X75626342Y-118357802D01*
X75626342Y-118357802D02*
X75483485Y-118429230D01*
X75483485Y-118429230D02*
X75412057Y-118500659D01*
X75412057Y-118500659D02*
X75340628Y-118643516D01*
X75340628Y-118643516D02*
X75340628Y-118857802D01*
X75340628Y-118857802D02*
X75412057Y-119000659D01*
X75912057Y-118357802D02*
X75840628Y-118500659D01*
X75840628Y-118500659D02*
X75840628Y-118786373D01*
X75840628Y-118786373D02*
X75912057Y-118929230D01*
X75912057Y-118929230D02*
X75983485Y-119000659D01*
X75983485Y-119000659D02*
X76126342Y-119072087D01*
X76126342Y-119072087D02*
X76554914Y-119072087D01*
X76554914Y-119072087D02*
X76697771Y-119000659D01*
X76697771Y-119000659D02*
X76769200Y-118929230D01*
X76769200Y-118929230D02*
X76840628Y-118786373D01*
X76840628Y-118786373D02*
X76840628Y-118500659D01*
X76840628Y-118500659D02*
X76769200Y-118357802D01*
X75840628Y-117643516D02*
X76840628Y-117643516D01*
X77340628Y-117643516D02*
X77269200Y-117714944D01*
X77269200Y-117714944D02*
X77197771Y-117643516D01*
X77197771Y-117643516D02*
X77269200Y-117572087D01*
X77269200Y-117572087D02*
X77340628Y-117643516D01*
X77340628Y-117643516D02*
X77197771Y-117643516D01*
X76840628Y-117143515D02*
X76840628Y-116572087D01*
X77340628Y-116929230D02*
X76054914Y-116929230D01*
X76054914Y-116929230D02*
X75912057Y-116857801D01*
X75912057Y-116857801D02*
X75840628Y-116714944D01*
X75840628Y-116714944D02*
X75840628Y-116572087D01*
X75840628Y-115429230D02*
X76626342Y-115429230D01*
X76626342Y-115429230D02*
X76769200Y-115500658D01*
X76769200Y-115500658D02*
X76840628Y-115643515D01*
X76840628Y-115643515D02*
X76840628Y-115929230D01*
X76840628Y-115929230D02*
X76769200Y-116072087D01*
X75912057Y-115429230D02*
X75840628Y-115572087D01*
X75840628Y-115572087D02*
X75840628Y-115929230D01*
X75840628Y-115929230D02*
X75912057Y-116072087D01*
X75912057Y-116072087D02*
X76054914Y-116143515D01*
X76054914Y-116143515D02*
X76197771Y-116143515D01*
X76197771Y-116143515D02*
X76340628Y-116072087D01*
X76340628Y-116072087D02*
X76412057Y-115929230D01*
X76412057Y-115929230D02*
X76412057Y-115572087D01*
X76412057Y-115572087D02*
X76483485Y-115429230D01*
X75840628Y-114500658D02*
X75912057Y-114643515D01*
X75912057Y-114643515D02*
X76054914Y-114714944D01*
X76054914Y-114714944D02*
X77340628Y-114714944D01*
D10*
X67413238Y-65717321D02*
X67884643Y-66188725D01*
X68120345Y-66424427D02*
X68053001Y-66424427D01*
X68053001Y-66424427D02*
X68053001Y-66357084D01*
X68053001Y-66357084D02*
X68120345Y-66357084D01*
X68120345Y-66357084D02*
X68120345Y-66424427D01*
X68120345Y-66424427D02*
X68053001Y-66357084D01*
X68356047Y-66054038D02*
X68423390Y-66054038D01*
X68423390Y-66054038D02*
X68524406Y-66020367D01*
X68524406Y-66020367D02*
X68692764Y-65852008D01*
X68692764Y-65852008D02*
X68726436Y-65750993D01*
X68726436Y-65750993D02*
X68726436Y-65683649D01*
X68726436Y-65683649D02*
X68692764Y-65582634D01*
X68692764Y-65582634D02*
X68625421Y-65515290D01*
X68625421Y-65515290D02*
X68490734Y-65447947D01*
X68490734Y-65447947D02*
X67682612Y-65447947D01*
X67682612Y-65447947D02*
X68120345Y-65010214D01*
X68760108Y-64437794D02*
X68659093Y-64471466D01*
X68659093Y-64471466D02*
X68524406Y-64606153D01*
X68524406Y-64606153D02*
X68490734Y-64707168D01*
X68490734Y-64707168D02*
X68490734Y-64774512D01*
X68490734Y-64774512D02*
X68524406Y-64875527D01*
X68524406Y-64875527D02*
X68726436Y-65077558D01*
X68726436Y-65077558D02*
X68827451Y-65111229D01*
X68827451Y-65111229D02*
X68894795Y-65111229D01*
X68894795Y-65111229D02*
X68995810Y-65077558D01*
X68995810Y-65077558D02*
X69130497Y-64942871D01*
X69130497Y-64942871D02*
X69164169Y-64841855D01*
X69453746Y-63744156D02*
X69521090Y-63609469D01*
X69521090Y-63609469D02*
X69689448Y-63441110D01*
X69689448Y-63441110D02*
X69790464Y-63407439D01*
X69790464Y-63407439D02*
X69857807Y-63407439D01*
X69857807Y-63407439D02*
X69958822Y-63441110D01*
X69958822Y-63441110D02*
X70026166Y-63508454D01*
X70026166Y-63508454D02*
X70059838Y-63609469D01*
X70059838Y-63609469D02*
X70059838Y-63676813D01*
X70059838Y-63676813D02*
X70026166Y-63777828D01*
X70026166Y-63777828D02*
X69925151Y-63946187D01*
X69925151Y-63946187D02*
X69891479Y-64047202D01*
X69891479Y-64047202D02*
X69891479Y-64114545D01*
X69891479Y-64114545D02*
X69925151Y-64215561D01*
X69925151Y-64215561D02*
X69992494Y-64282904D01*
X69992494Y-64282904D02*
X70093509Y-64316576D01*
X70093509Y-64316576D02*
X70160853Y-64316576D01*
X70160853Y-64316576D02*
X70261868Y-64282904D01*
X70261868Y-64282904D02*
X70430227Y-64114545D01*
X70430227Y-64114545D02*
X70497570Y-63979858D01*
X70598586Y-62666660D02*
X70531242Y-62666660D01*
X70531242Y-62666660D02*
X70396555Y-62734004D01*
X70396555Y-62734004D02*
X70329212Y-62801347D01*
X70329212Y-62801347D02*
X70261868Y-62936034D01*
X70261868Y-62936034D02*
X70261868Y-63070721D01*
X70261868Y-63070721D02*
X70295540Y-63171736D01*
X70295540Y-63171736D02*
X70396555Y-63340095D01*
X70396555Y-63340095D02*
X70497570Y-63441110D01*
X70497570Y-63441110D02*
X70665929Y-63542126D01*
X70665929Y-63542126D02*
X70766944Y-63575797D01*
X70766944Y-63575797D02*
X70901631Y-63575797D01*
X70901631Y-63575797D02*
X71036318Y-63508454D01*
X71036318Y-63508454D02*
X71103662Y-63441110D01*
X71103662Y-63441110D02*
X71171005Y-63306423D01*
X71171005Y-63306423D02*
X71171005Y-63239080D01*
X71171005Y-61959553D02*
X70834288Y-62296271D01*
X70834288Y-62296271D02*
X71541395Y-63003378D01*
X63933864Y-55989561D02*
X63799177Y-55922217D01*
X63799177Y-55922217D02*
X63630818Y-55753859D01*
X63630818Y-55753859D02*
X63597147Y-55652843D01*
X63597147Y-55652843D02*
X63597147Y-55585500D01*
X63597147Y-55585500D02*
X63630818Y-55484485D01*
X63630818Y-55484485D02*
X63698162Y-55417141D01*
X63698162Y-55417141D02*
X63799177Y-55383469D01*
X63799177Y-55383469D02*
X63866521Y-55383469D01*
X63866521Y-55383469D02*
X63967536Y-55417141D01*
X63967536Y-55417141D02*
X64135895Y-55518156D01*
X64135895Y-55518156D02*
X64236910Y-55551828D01*
X64236910Y-55551828D02*
X64304253Y-55551828D01*
X64304253Y-55551828D02*
X64405269Y-55518156D01*
X64405269Y-55518156D02*
X64472612Y-55450813D01*
X64472612Y-55450813D02*
X64506284Y-55349798D01*
X64506284Y-55349798D02*
X64506284Y-55282454D01*
X64506284Y-55282454D02*
X64472612Y-55181439D01*
X64472612Y-55181439D02*
X64304253Y-55013080D01*
X64304253Y-55013080D02*
X64169566Y-54945737D01*
X63193086Y-55316126D02*
X63900192Y-54609019D01*
X63900192Y-54609019D02*
X63630818Y-54339645D01*
X63630818Y-54339645D02*
X63529803Y-54305973D01*
X63529803Y-54305973D02*
X63462460Y-54305973D01*
X63462460Y-54305973D02*
X63361444Y-54339645D01*
X63361444Y-54339645D02*
X63260429Y-54440660D01*
X63260429Y-54440660D02*
X63226757Y-54541675D01*
X63226757Y-54541675D02*
X63226757Y-54609019D01*
X63226757Y-54609019D02*
X63260429Y-54710034D01*
X63260429Y-54710034D02*
X63529803Y-54979408D01*
X62485979Y-54609019D02*
X63193086Y-53901912D01*
X61724998Y-53848038D02*
X62432104Y-53140931D01*
X62432104Y-53140931D02*
X61691326Y-53410305D01*
X61691326Y-53410305D02*
X61960700Y-52669526D01*
X61960700Y-52669526D02*
X61253593Y-53376633D01*
X60916876Y-53039916D02*
X61623982Y-52332809D01*
X60647502Y-52703199D02*
X60512815Y-52635855D01*
X60512815Y-52635855D02*
X60344456Y-52467496D01*
X60344456Y-52467496D02*
X60310784Y-52366481D01*
X60310784Y-52366481D02*
X60310784Y-52299138D01*
X60310784Y-52299138D02*
X60344456Y-52198122D01*
X60344456Y-52198122D02*
X60411800Y-52130779D01*
X60411800Y-52130779D02*
X60512815Y-52097107D01*
X60512815Y-52097107D02*
X60580158Y-52097107D01*
X60580158Y-52097107D02*
X60681174Y-52130779D01*
X60681174Y-52130779D02*
X60849532Y-52231794D01*
X60849532Y-52231794D02*
X60950548Y-52265466D01*
X60950548Y-52265466D02*
X61017891Y-52265466D01*
X61017891Y-52265466D02*
X61118906Y-52231794D01*
X61118906Y-52231794D02*
X61186250Y-52164451D01*
X61186250Y-52164451D02*
X61219922Y-52063435D01*
X61219922Y-52063435D02*
X61219922Y-51996092D01*
X61219922Y-51996092D02*
X61186250Y-51895077D01*
X61186250Y-51895077D02*
X61017891Y-51726718D01*
X61017891Y-51726718D02*
X60883204Y-51659374D01*
X60479143Y-51187970D02*
X60344456Y-51053283D01*
X60344456Y-51053283D02*
X60243441Y-51019611D01*
X60243441Y-51019611D02*
X60108754Y-51019611D01*
X60108754Y-51019611D02*
X59940395Y-51120626D01*
X59940395Y-51120626D02*
X59704693Y-51356329D01*
X59704693Y-51356329D02*
X59603678Y-51524687D01*
X59603678Y-51524687D02*
X59603678Y-51659374D01*
X59603678Y-51659374D02*
X59637349Y-51760390D01*
X59637349Y-51760390D02*
X59772036Y-51895077D01*
X59772036Y-51895077D02*
X59873052Y-51928748D01*
X59873052Y-51928748D02*
X60007739Y-51928748D01*
X60007739Y-51928748D02*
X60176097Y-51827733D01*
X60176097Y-51827733D02*
X60411800Y-51592031D01*
X60411800Y-51592031D02*
X60512815Y-51423672D01*
X60512815Y-51423672D02*
X60512815Y-51288985D01*
X60512815Y-51288985D02*
X60479143Y-51187970D01*
X73637333Y-111227580D02*
X73637333Y-111941866D01*
X73637333Y-111941866D02*
X73684952Y-112084723D01*
X73684952Y-112084723D02*
X73780190Y-112179961D01*
X73780190Y-112179961D02*
X73923047Y-112227580D01*
X73923047Y-112227580D02*
X74018285Y-112227580D01*
X72732571Y-111560914D02*
X72732571Y-112227580D01*
X72970666Y-111179961D02*
X73208761Y-111894247D01*
X73208761Y-111894247D02*
X72589714Y-111894247D01*
X67921542Y-102799533D02*
X67969161Y-102751914D01*
X67969161Y-102751914D02*
X68016780Y-102609057D01*
X68016780Y-102609057D02*
X68016780Y-102513819D01*
X68016780Y-102513819D02*
X67969161Y-102370962D01*
X67969161Y-102370962D02*
X67873923Y-102275724D01*
X67873923Y-102275724D02*
X67778685Y-102228105D01*
X67778685Y-102228105D02*
X67588209Y-102180486D01*
X67588209Y-102180486D02*
X67445352Y-102180486D01*
X67445352Y-102180486D02*
X67254876Y-102228105D01*
X67254876Y-102228105D02*
X67159638Y-102275724D01*
X67159638Y-102275724D02*
X67064400Y-102370962D01*
X67064400Y-102370962D02*
X67016780Y-102513819D01*
X67016780Y-102513819D02*
X67016780Y-102609057D01*
X67016780Y-102609057D02*
X67064400Y-102751914D01*
X67064400Y-102751914D02*
X67112019Y-102799533D01*
X67350114Y-103656676D02*
X68016780Y-103656676D01*
X66969161Y-103418581D02*
X67683447Y-103180486D01*
X67683447Y-103180486D02*
X67683447Y-103799533D01*
X55857333Y-111227580D02*
X55857333Y-111941866D01*
X55857333Y-111941866D02*
X55904952Y-112084723D01*
X55904952Y-112084723D02*
X56000190Y-112179961D01*
X56000190Y-112179961D02*
X56143047Y-112227580D01*
X56143047Y-112227580D02*
X56238285Y-112227580D01*
X54904952Y-111227580D02*
X55381142Y-111227580D01*
X55381142Y-111227580D02*
X55428761Y-111703771D01*
X55428761Y-111703771D02*
X55381142Y-111656152D01*
X55381142Y-111656152D02*
X55285904Y-111608533D01*
X55285904Y-111608533D02*
X55047809Y-111608533D01*
X55047809Y-111608533D02*
X54952571Y-111656152D01*
X54952571Y-111656152D02*
X54904952Y-111703771D01*
X54904952Y-111703771D02*
X54857333Y-111799009D01*
X54857333Y-111799009D02*
X54857333Y-112037104D01*
X54857333Y-112037104D02*
X54904952Y-112132342D01*
X54904952Y-112132342D02*
X54952571Y-112179961D01*
X54952571Y-112179961D02*
X55047809Y-112227580D01*
X55047809Y-112227580D02*
X55285904Y-112227580D01*
X55285904Y-112227580D02*
X55381142Y-112179961D01*
X55381142Y-112179961D02*
X55428761Y-112132342D01*
X75519380Y-58743666D02*
X76233666Y-58743666D01*
X76233666Y-58743666D02*
X76376523Y-58696047D01*
X76376523Y-58696047D02*
X76471761Y-58600809D01*
X76471761Y-58600809D02*
X76519380Y-58457952D01*
X76519380Y-58457952D02*
X76519380Y-58362714D01*
X75519380Y-59124619D02*
X75519380Y-59743666D01*
X75519380Y-59743666D02*
X75900333Y-59410333D01*
X75900333Y-59410333D02*
X75900333Y-59553190D01*
X75900333Y-59553190D02*
X75947952Y-59648428D01*
X75947952Y-59648428D02*
X75995571Y-59696047D01*
X75995571Y-59696047D02*
X76090809Y-59743666D01*
X76090809Y-59743666D02*
X76328904Y-59743666D01*
X76328904Y-59743666D02*
X76424142Y-59696047D01*
X76424142Y-59696047D02*
X76471761Y-59648428D01*
X76471761Y-59648428D02*
X76519380Y-59553190D01*
X76519380Y-59553190D02*
X76519380Y-59267476D01*
X76519380Y-59267476D02*
X76471761Y-59172238D01*
X76471761Y-59172238D02*
X76424142Y-59124619D01*
X71986733Y-76909580D02*
X71986733Y-77623866D01*
X71986733Y-77623866D02*
X72034352Y-77766723D01*
X72034352Y-77766723D02*
X72129590Y-77861961D01*
X72129590Y-77861961D02*
X72272447Y-77909580D01*
X72272447Y-77909580D02*
X72367685Y-77909580D01*
X70986733Y-77909580D02*
X71558161Y-77909580D01*
X71272447Y-77909580D02*
X71272447Y-76909580D01*
X71272447Y-76909580D02*
X71367685Y-77052438D01*
X71367685Y-77052438D02*
X71462923Y-77147676D01*
X71462923Y-77147676D02*
X71558161Y-77195295D01*
X68048542Y-74630421D02*
X68096161Y-74582802D01*
X68096161Y-74582802D02*
X68143780Y-74439945D01*
X68143780Y-74439945D02*
X68143780Y-74344707D01*
X68143780Y-74344707D02*
X68096161Y-74201850D01*
X68096161Y-74201850D02*
X68000923Y-74106612D01*
X68000923Y-74106612D02*
X67905685Y-74058993D01*
X67905685Y-74058993D02*
X67715209Y-74011374D01*
X67715209Y-74011374D02*
X67572352Y-74011374D01*
X67572352Y-74011374D02*
X67381876Y-74058993D01*
X67381876Y-74058993D02*
X67286638Y-74106612D01*
X67286638Y-74106612D02*
X67191400Y-74201850D01*
X67191400Y-74201850D02*
X67143780Y-74344707D01*
X67143780Y-74344707D02*
X67143780Y-74439945D01*
X67143780Y-74439945D02*
X67191400Y-74582802D01*
X67191400Y-74582802D02*
X67239019Y-74630421D01*
X67143780Y-74963755D02*
X67143780Y-75582802D01*
X67143780Y-75582802D02*
X67524733Y-75249469D01*
X67524733Y-75249469D02*
X67524733Y-75392326D01*
X67524733Y-75392326D02*
X67572352Y-75487564D01*
X67572352Y-75487564D02*
X67619971Y-75535183D01*
X67619971Y-75535183D02*
X67715209Y-75582802D01*
X67715209Y-75582802D02*
X67953304Y-75582802D01*
X67953304Y-75582802D02*
X68048542Y-75535183D01*
X68048542Y-75535183D02*
X68096161Y-75487564D01*
X68096161Y-75487564D02*
X68143780Y-75392326D01*
X68143780Y-75392326D02*
X68143780Y-75106612D01*
X68143780Y-75106612D02*
X68096161Y-75011374D01*
X68096161Y-75011374D02*
X68048542Y-74963755D01*
D12*
X74634000Y-126120200D02*
X71974000Y-126120200D01*
X74634000Y-115900200D02*
X74634000Y-126120200D01*
X74634000Y-115900200D02*
X71974000Y-115900200D01*
X73304000Y-113300200D02*
X71974000Y-113300200D01*
X71974000Y-115900200D02*
X71974000Y-126120200D01*
X71974000Y-113300200D02*
X71974000Y-114630200D01*
X69924400Y-100054425D02*
X69924400Y-100554425D01*
X69674400Y-100304425D02*
X70174400Y-100304425D01*
X68819400Y-102859200D02*
X73979400Y-102859200D01*
X68819400Y-102899200D02*
X73979400Y-102899200D01*
X68820400Y-102939200D02*
X73978400Y-102939200D01*
X68821400Y-102979200D02*
X73977400Y-102979200D01*
X68823400Y-103019200D02*
X73975400Y-103019200D01*
X68826400Y-103059200D02*
X73972400Y-103059200D01*
X72439400Y-103099200D02*
X73968400Y-103099200D01*
X68830400Y-103099200D02*
X70359400Y-103099200D01*
X72439400Y-103139200D02*
X73964400Y-103139200D01*
X68834400Y-103139200D02*
X70359400Y-103139200D01*
X72439400Y-103179200D02*
X73960400Y-103179200D01*
X68838400Y-103179200D02*
X70359400Y-103179200D01*
X72439400Y-103219200D02*
X73955400Y-103219200D01*
X68843400Y-103219200D02*
X70359400Y-103219200D01*
X72439400Y-103259200D02*
X73949400Y-103259200D01*
X68849400Y-103259200D02*
X70359400Y-103259200D01*
X72439400Y-103299200D02*
X73942400Y-103299200D01*
X68856400Y-103299200D02*
X70359400Y-103299200D01*
X72439400Y-103339200D02*
X73935400Y-103339200D01*
X68863400Y-103339200D02*
X70359400Y-103339200D01*
X72439400Y-103379200D02*
X73927400Y-103379200D01*
X68871400Y-103379200D02*
X70359400Y-103379200D01*
X72439400Y-103419200D02*
X73919400Y-103419200D01*
X68879400Y-103419200D02*
X70359400Y-103419200D01*
X72439400Y-103459200D02*
X73910400Y-103459200D01*
X68888400Y-103459200D02*
X70359400Y-103459200D01*
X72439400Y-103499200D02*
X73900400Y-103499200D01*
X68898400Y-103499200D02*
X70359400Y-103499200D01*
X72439400Y-103539200D02*
X73890400Y-103539200D01*
X68908400Y-103539200D02*
X70359400Y-103539200D01*
X72439400Y-103580200D02*
X73879400Y-103580200D01*
X68919400Y-103580200D02*
X70359400Y-103580200D01*
X72439400Y-103620200D02*
X73867400Y-103620200D01*
X68931400Y-103620200D02*
X70359400Y-103620200D01*
X72439400Y-103660200D02*
X73854400Y-103660200D01*
X68944400Y-103660200D02*
X70359400Y-103660200D01*
X72439400Y-103700200D02*
X73841400Y-103700200D01*
X68957400Y-103700200D02*
X70359400Y-103700200D01*
X72439400Y-103740200D02*
X73827400Y-103740200D01*
X68971400Y-103740200D02*
X70359400Y-103740200D01*
X72439400Y-103780200D02*
X73813400Y-103780200D01*
X68985400Y-103780200D02*
X70359400Y-103780200D01*
X72439400Y-103820200D02*
X73797400Y-103820200D01*
X69001400Y-103820200D02*
X70359400Y-103820200D01*
X72439400Y-103860200D02*
X73781400Y-103860200D01*
X69017400Y-103860200D02*
X70359400Y-103860200D01*
X72439400Y-103900200D02*
X73764400Y-103900200D01*
X69034400Y-103900200D02*
X70359400Y-103900200D01*
X72439400Y-103940200D02*
X73747400Y-103940200D01*
X69051400Y-103940200D02*
X70359400Y-103940200D01*
X72439400Y-103980200D02*
X73728400Y-103980200D01*
X69070400Y-103980200D02*
X70359400Y-103980200D01*
X72439400Y-104020200D02*
X73709400Y-104020200D01*
X69089400Y-104020200D02*
X70359400Y-104020200D01*
X72439400Y-104060200D02*
X73689400Y-104060200D01*
X69109400Y-104060200D02*
X70359400Y-104060200D01*
X72439400Y-104100200D02*
X73667400Y-104100200D01*
X69131400Y-104100200D02*
X70359400Y-104100200D01*
X72439400Y-104140200D02*
X73646400Y-104140200D01*
X69152400Y-104140200D02*
X70359400Y-104140200D01*
X72439400Y-104180200D02*
X73623400Y-104180200D01*
X69175400Y-104180200D02*
X70359400Y-104180200D01*
X72439400Y-104220200D02*
X73599400Y-104220200D01*
X69199400Y-104220200D02*
X70359400Y-104220200D01*
X72439400Y-104260200D02*
X73574400Y-104260200D01*
X69224400Y-104260200D02*
X70359400Y-104260200D01*
X72439400Y-104300200D02*
X73548400Y-104300200D01*
X69250400Y-104300200D02*
X70359400Y-104300200D01*
X72439400Y-104340200D02*
X73521400Y-104340200D01*
X69277400Y-104340200D02*
X70359400Y-104340200D01*
X72439400Y-104380200D02*
X73494400Y-104380200D01*
X69304400Y-104380200D02*
X70359400Y-104380200D01*
X72439400Y-104420200D02*
X73464400Y-104420200D01*
X69334400Y-104420200D02*
X70359400Y-104420200D01*
X72439400Y-104460200D02*
X73434400Y-104460200D01*
X69364400Y-104460200D02*
X70359400Y-104460200D01*
X72439400Y-104500200D02*
X73403400Y-104500200D01*
X69395400Y-104500200D02*
X70359400Y-104500200D01*
X72439400Y-104540200D02*
X73370400Y-104540200D01*
X69428400Y-104540200D02*
X70359400Y-104540200D01*
X72439400Y-104580200D02*
X73336400Y-104580200D01*
X69462400Y-104580200D02*
X70359400Y-104580200D01*
X72439400Y-104620200D02*
X73300400Y-104620200D01*
X69498400Y-104620200D02*
X70359400Y-104620200D01*
X72439400Y-104660200D02*
X73263400Y-104660200D01*
X69535400Y-104660200D02*
X70359400Y-104660200D01*
X72439400Y-104700200D02*
X73225400Y-104700200D01*
X69573400Y-104700200D02*
X70359400Y-104700200D01*
X72439400Y-104740200D02*
X73184400Y-104740200D01*
X69614400Y-104740200D02*
X70359400Y-104740200D01*
X72439400Y-104780200D02*
X73142400Y-104780200D01*
X69656400Y-104780200D02*
X70359400Y-104780200D01*
X72439400Y-104820200D02*
X73098400Y-104820200D01*
X69700400Y-104820200D02*
X70359400Y-104820200D01*
X72439400Y-104860200D02*
X73052400Y-104860200D01*
X69746400Y-104860200D02*
X70359400Y-104860200D01*
X72439400Y-104900200D02*
X73004400Y-104900200D01*
X69794400Y-104900200D02*
X70359400Y-104900200D01*
X72439400Y-104940200D02*
X72953400Y-104940200D01*
X69845400Y-104940200D02*
X70359400Y-104940200D01*
X72439400Y-104980200D02*
X72899400Y-104980200D01*
X69899400Y-104980200D02*
X70359400Y-104980200D01*
X72439400Y-105020200D02*
X72842400Y-105020200D01*
X69956400Y-105020200D02*
X70359400Y-105020200D01*
X72439400Y-105060200D02*
X72782400Y-105060200D01*
X70016400Y-105060200D02*
X70359400Y-105060200D01*
X72439400Y-105100200D02*
X72718400Y-105100200D01*
X70080400Y-105100200D02*
X70359400Y-105100200D01*
X72439400Y-105140200D02*
X72650400Y-105140200D01*
X70148400Y-105140200D02*
X70359400Y-105140200D01*
X70221400Y-105180200D02*
X72577400Y-105180200D01*
X70301400Y-105220200D02*
X72497400Y-105220200D01*
X70388400Y-105260200D02*
X72410400Y-105260200D01*
X70484400Y-105300200D02*
X72314400Y-105300200D01*
X70594400Y-105340200D02*
X72204400Y-105340200D01*
X70722400Y-105380200D02*
X72076400Y-105380200D01*
X70881400Y-105420200D02*
X71917400Y-105420200D01*
X71115400Y-105460200D02*
X71683400Y-105460200D01*
X74019400Y-102859200D02*
G75*
G03*
X74019400Y-102859200I-2620000J0D01*
G01*
X56854000Y-126120200D02*
X54194000Y-126120200D01*
X56854000Y-115900200D02*
X56854000Y-126120200D01*
X56854000Y-115900200D02*
X54194000Y-115900200D01*
X55524000Y-113300200D02*
X54194000Y-113300200D01*
X54194000Y-115900200D02*
X54194000Y-126120200D01*
X54194000Y-113300200D02*
X54194000Y-114630200D01*
X54712000Y-61677000D02*
X54712000Y-56477000D01*
X72552000Y-61677000D02*
X54712000Y-61677000D01*
X72552000Y-61677000D02*
X72552000Y-59077000D01*
X73822000Y-61677000D02*
X75152000Y-61677000D01*
X75152000Y-61677000D02*
X75152000Y-60347000D01*
X72552000Y-59077000D02*
X75152000Y-59077000D01*
X75152000Y-59077000D02*
X75152000Y-56477000D01*
X75152000Y-56477000D02*
X54712000Y-56477000D01*
X77603400Y-84142200D02*
X76603400Y-83642200D01*
X77603400Y-83142200D02*
X77603400Y-84142200D01*
X76603400Y-83642200D02*
X77603400Y-83142200D01*
X76213400Y-99012200D02*
X76213400Y-78432200D01*
X76213400Y-86672200D02*
X74903400Y-86672200D01*
X76213400Y-78432200D02*
X67093400Y-78432200D01*
X74903400Y-97712200D02*
X74903400Y-90772200D01*
X74903400Y-90772200D02*
X76213400Y-90772200D01*
X74903400Y-90772200D02*
X74903400Y-90772200D01*
X74903400Y-86672200D02*
X74903400Y-79732200D01*
X74903400Y-79732200D02*
X68403400Y-79732200D01*
X68403400Y-97712200D02*
X74903400Y-97712200D01*
X68403400Y-79732200D02*
X68403400Y-97712200D01*
X67093400Y-99012200D02*
X76213400Y-99012200D01*
X67093400Y-78432200D02*
X67093400Y-99012200D01*
X70051400Y-71885313D02*
X70051400Y-72385313D01*
X69801400Y-72135313D02*
X70301400Y-72135313D01*
X68946400Y-74690088D02*
X74106400Y-74690088D01*
X68946400Y-74730088D02*
X74106400Y-74730088D01*
X68947400Y-74770088D02*
X74105400Y-74770088D01*
X68948400Y-74810088D02*
X74104400Y-74810088D01*
X68950400Y-74850088D02*
X74102400Y-74850088D01*
X68953400Y-74890088D02*
X74099400Y-74890088D01*
X72566400Y-74930088D02*
X74095400Y-74930088D01*
X68957400Y-74930088D02*
X70486400Y-74930088D01*
X72566400Y-74970088D02*
X74091400Y-74970088D01*
X68961400Y-74970088D02*
X70486400Y-74970088D01*
X72566400Y-75010088D02*
X74087400Y-75010088D01*
X68965400Y-75010088D02*
X70486400Y-75010088D01*
X72566400Y-75050088D02*
X74082400Y-75050088D01*
X68970400Y-75050088D02*
X70486400Y-75050088D01*
X72566400Y-75090088D02*
X74076400Y-75090088D01*
X68976400Y-75090088D02*
X70486400Y-75090088D01*
X72566400Y-75130088D02*
X74069400Y-75130088D01*
X68983400Y-75130088D02*
X70486400Y-75130088D01*
X72566400Y-75170088D02*
X74062400Y-75170088D01*
X68990400Y-75170088D02*
X70486400Y-75170088D01*
X72566400Y-75210088D02*
X74054400Y-75210088D01*
X68998400Y-75210088D02*
X70486400Y-75210088D01*
X72566400Y-75250088D02*
X74046400Y-75250088D01*
X69006400Y-75250088D02*
X70486400Y-75250088D01*
X72566400Y-75290088D02*
X74037400Y-75290088D01*
X69015400Y-75290088D02*
X70486400Y-75290088D01*
X72566400Y-75330088D02*
X74027400Y-75330088D01*
X69025400Y-75330088D02*
X70486400Y-75330088D01*
X72566400Y-75370088D02*
X74017400Y-75370088D01*
X69035400Y-75370088D02*
X70486400Y-75370088D01*
X72566400Y-75411088D02*
X74006400Y-75411088D01*
X69046400Y-75411088D02*
X70486400Y-75411088D01*
X72566400Y-75451088D02*
X73994400Y-75451088D01*
X69058400Y-75451088D02*
X70486400Y-75451088D01*
X72566400Y-75491088D02*
X73981400Y-75491088D01*
X69071400Y-75491088D02*
X70486400Y-75491088D01*
X72566400Y-75531088D02*
X73968400Y-75531088D01*
X69084400Y-75531088D02*
X70486400Y-75531088D01*
X72566400Y-75571088D02*
X73954400Y-75571088D01*
X69098400Y-75571088D02*
X70486400Y-75571088D01*
X72566400Y-75611088D02*
X73940400Y-75611088D01*
X69112400Y-75611088D02*
X70486400Y-75611088D01*
X72566400Y-75651088D02*
X73924400Y-75651088D01*
X69128400Y-75651088D02*
X70486400Y-75651088D01*
X72566400Y-75691088D02*
X73908400Y-75691088D01*
X69144400Y-75691088D02*
X70486400Y-75691088D01*
X72566400Y-75731088D02*
X73891400Y-75731088D01*
X69161400Y-75731088D02*
X70486400Y-75731088D01*
X72566400Y-75771088D02*
X73874400Y-75771088D01*
X69178400Y-75771088D02*
X70486400Y-75771088D01*
X72566400Y-75811088D02*
X73855400Y-75811088D01*
X69197400Y-75811088D02*
X70486400Y-75811088D01*
X72566400Y-75851088D02*
X73836400Y-75851088D01*
X69216400Y-75851088D02*
X70486400Y-75851088D01*
X72566400Y-75891088D02*
X73816400Y-75891088D01*
X69236400Y-75891088D02*
X70486400Y-75891088D01*
X72566400Y-75931088D02*
X73794400Y-75931088D01*
X69258400Y-75931088D02*
X70486400Y-75931088D01*
X72566400Y-75971088D02*
X73773400Y-75971088D01*
X69279400Y-75971088D02*
X70486400Y-75971088D01*
X72566400Y-76011088D02*
X73750400Y-76011088D01*
X69302400Y-76011088D02*
X70486400Y-76011088D01*
X72566400Y-76051088D02*
X73726400Y-76051088D01*
X69326400Y-76051088D02*
X70486400Y-76051088D01*
X72566400Y-76091088D02*
X73701400Y-76091088D01*
X69351400Y-76091088D02*
X70486400Y-76091088D01*
X72566400Y-76131088D02*
X73675400Y-76131088D01*
X69377400Y-76131088D02*
X70486400Y-76131088D01*
X72566400Y-76171088D02*
X73648400Y-76171088D01*
X69404400Y-76171088D02*
X70486400Y-76171088D01*
X72566400Y-76211088D02*
X73621400Y-76211088D01*
X69431400Y-76211088D02*
X70486400Y-76211088D01*
X72566400Y-76251088D02*
X73591400Y-76251088D01*
X69461400Y-76251088D02*
X70486400Y-76251088D01*
X72566400Y-76291088D02*
X73561400Y-76291088D01*
X69491400Y-76291088D02*
X70486400Y-76291088D01*
X72566400Y-76331088D02*
X73530400Y-76331088D01*
X69522400Y-76331088D02*
X70486400Y-76331088D01*
X72566400Y-76371088D02*
X73497400Y-76371088D01*
X69555400Y-76371088D02*
X70486400Y-76371088D01*
X72566400Y-76411088D02*
X73463400Y-76411088D01*
X69589400Y-76411088D02*
X70486400Y-76411088D01*
X72566400Y-76451088D02*
X73427400Y-76451088D01*
X69625400Y-76451088D02*
X70486400Y-76451088D01*
X72566400Y-76491088D02*
X73390400Y-76491088D01*
X69662400Y-76491088D02*
X70486400Y-76491088D01*
X72566400Y-76531088D02*
X73352400Y-76531088D01*
X69700400Y-76531088D02*
X70486400Y-76531088D01*
X72566400Y-76571088D02*
X73311400Y-76571088D01*
X69741400Y-76571088D02*
X70486400Y-76571088D01*
X72566400Y-76611088D02*
X73269400Y-76611088D01*
X69783400Y-76611088D02*
X70486400Y-76611088D01*
X72566400Y-76651088D02*
X73225400Y-76651088D01*
X69827400Y-76651088D02*
X70486400Y-76651088D01*
X72566400Y-76691088D02*
X73179400Y-76691088D01*
X69873400Y-76691088D02*
X70486400Y-76691088D01*
X72566400Y-76731088D02*
X73131400Y-76731088D01*
X69921400Y-76731088D02*
X70486400Y-76731088D01*
X72566400Y-76771088D02*
X73080400Y-76771088D01*
X69972400Y-76771088D02*
X70486400Y-76771088D01*
X72566400Y-76811088D02*
X73026400Y-76811088D01*
X70026400Y-76811088D02*
X70486400Y-76811088D01*
X72566400Y-76851088D02*
X72969400Y-76851088D01*
X70083400Y-76851088D02*
X70486400Y-76851088D01*
X72566400Y-76891088D02*
X72909400Y-76891088D01*
X70143400Y-76891088D02*
X70486400Y-76891088D01*
X72566400Y-76931088D02*
X72845400Y-76931088D01*
X70207400Y-76931088D02*
X70486400Y-76931088D01*
X72566400Y-76971088D02*
X72777400Y-76971088D01*
X70275400Y-76971088D02*
X70486400Y-76971088D01*
X70348400Y-77011088D02*
X72704400Y-77011088D01*
X70428400Y-77051088D02*
X72624400Y-77051088D01*
X70515400Y-77091088D02*
X72537400Y-77091088D01*
X70611400Y-77131088D02*
X72441400Y-77131088D01*
X70721400Y-77171088D02*
X72331400Y-77171088D01*
X70849400Y-77211088D02*
X72203400Y-77211088D01*
X71008400Y-77251088D02*
X72044400Y-77251088D01*
X71242400Y-77291088D02*
X71810400Y-77291088D01*
X74146400Y-74690088D02*
G75*
G03*
X74146400Y-74690088I-2620000J0D01*
G01*
%LPC*%
D13*
X58974399Y-93040199D03*
D14*
X58974399Y-94310199D03*
X58974399Y-95580199D03*
D15*
X66649799Y-141299599D03*
D16*
X64109799Y-141299599D03*
X61569799Y-141299599D03*
X59029799Y-141299599D03*
X56489799Y-141299599D03*
X53949799Y-141299599D03*
X51409799Y-141299599D03*
X48869799Y-141299599D03*
D17*
X55524399Y-101549199D03*
D18*
X65684399Y-101549199D03*
D19*
X64160400Y-86877200D03*
D20*
X64160399Y-94377199D03*
D19*
X62635126Y-109613800D03*
X62635126Y-114613800D03*
D15*
X72085199Y-49174399D03*
D16*
X69545199Y-49174399D03*
X67005199Y-49174399D03*
X64465199Y-49174399D03*
X61925199Y-49174399D03*
X59385199Y-49174399D03*
X56845199Y-49174399D03*
X54305199Y-49174399D03*
X51765199Y-49174399D03*
X49225199Y-49174399D03*
X46685199Y-49174399D03*
X44145199Y-49174399D03*
D19*
X55270400Y-97993200D03*
D20*
X55270399Y-90493199D03*
D17*
X64160399Y-84150199D03*
D18*
X64160399Y-73990199D03*
D15*
X73303999Y-114630199D03*
D16*
X73303999Y-117170199D03*
X73303999Y-119710199D03*
X73303999Y-122250199D03*
X73303999Y-124790199D03*
D21*
X71399399Y-101609199D03*
D19*
X71399400Y-104109200D03*
D15*
X55523999Y-114630199D03*
D16*
X55523999Y-117170199D03*
X55523999Y-119710199D03*
X55523999Y-122250199D03*
X55523999Y-124790199D03*
D22*
X41841399Y-85369399D03*
X41841399Y-82829399D03*
X41841399Y-80289399D03*
X41841399Y-77749399D03*
X41841399Y-75209399D03*
X41841399Y-72669399D03*
X41841399Y-70129399D03*
X58031399Y-70129399D03*
X58031399Y-72669399D03*
X58031399Y-75209399D03*
X58031399Y-77749399D03*
X58031399Y-80289399D03*
X58031399Y-82829399D03*
X58031399Y-85369399D03*
D23*
X48666400Y-86321400D03*
X51206400Y-86321400D03*
X48666400Y-83781400D03*
X51206400Y-83781400D03*
D15*
X73821999Y-60346999D03*
D16*
X73821999Y-57806999D03*
X71281999Y-60346999D03*
X71281999Y-57806999D03*
X68741999Y-60346999D03*
X68741999Y-57806999D03*
X66201999Y-60346999D03*
X66201999Y-57806999D03*
X63661999Y-60346999D03*
X63661999Y-57806999D03*
X61121999Y-60346999D03*
X61121999Y-57806999D03*
X58581999Y-60346999D03*
X58581999Y-57806999D03*
X56041999Y-60346999D03*
X56041999Y-57806999D03*
D24*
X72923400Y-83642200D03*
D25*
X70383400Y-83642200D03*
X72923400Y-86182200D03*
X70383400Y-86182200D03*
X72923400Y-88722200D03*
X70383400Y-88722200D03*
X72923400Y-91262200D03*
X70383400Y-91262200D03*
X72923400Y-93802200D03*
X70383400Y-93802200D03*
D21*
X71526399Y-73440087D03*
D19*
X71526400Y-75940088D03*
M02*
