G04 #@! TF.GenerationSoftware,KiCad,Pcbnew,(7.0.0)*
G04 #@! TF.CreationDate,2023-03-19T22:54:38+00:00*
G04 #@! TF.ProjectId,back_microlidian,6261636b-5f6d-4696-9372-6f6c69646961,rev?*
G04 #@! TF.SameCoordinates,Original*
G04 #@! TF.FileFunction,Soldermask,Top*
G04 #@! TF.FilePolarity,Negative*
%FSLAX46Y46*%
G04 Gerber Fmt 4.6, Leading zero omitted, Abs format (unit mm)*
G04 Created by KiCad (PCBNEW (7.0.0)) date 2023-03-19 22:54:38*
%MOMM*%
%LPD*%
G01*
G04 APERTURE LIST*
G04 Aperture macros list*
%AMRoundRect*
0 Rectangle with rounded corners*
0 $1 Rounding radius*
0 $2 $3 $4 $5 $6 $7 $8 $9 X,Y pos of 4 corners*
0 Add a 4 corners polygon primitive as box body*
4,1,4,$2,$3,$4,$5,$6,$7,$8,$9,$2,$3,0*
0 Add four circle primitives for the rounded corners*
1,1,$1+$1,$2,$3*
1,1,$1+$1,$4,$5*
1,1,$1+$1,$6,$7*
1,1,$1+$1,$8,$9*
0 Add four rect primitives between the rounded corners*
20,1,$1+$1,$2,$3,$4,$5,0*
20,1,$1+$1,$4,$5,$6,$7,0*
20,1,$1+$1,$6,$7,$8,$9,0*
20,1,$1+$1,$8,$9,$2,$3,0*%
G04 Aperture macros list end*
%ADD10R,1.500000X1.050000*%
%ADD11O,1.500000X1.050000*%
%ADD12R,1.700000X1.700000*%
%ADD13O,1.700000X1.700000*%
%ADD14R,2.200000X2.200000*%
%ADD15O,2.200000X2.200000*%
%ADD16C,1.600000*%
%ADD17O,1.600000X1.600000*%
%ADD18R,1.600000X1.600000*%
%ADD19O,2.750000X1.800000*%
%ADD20C,1.397000*%
%ADD21RoundRect,0.250000X0.600000X0.600000X-0.600000X0.600000X-0.600000X-0.600000X0.600000X-0.600000X0*%
%ADD22C,1.700000*%
G04 APERTURE END LIST*
D10*
X58974399Y-93040199D03*
D11*
X58974399Y-94310199D03*
X58974399Y-95580199D03*
D12*
X66649799Y-141299599D03*
D13*
X64109799Y-141299599D03*
X61569799Y-141299599D03*
X59029799Y-141299599D03*
X56489799Y-141299599D03*
X53949799Y-141299599D03*
X51409799Y-141299599D03*
X48869799Y-141299599D03*
D14*
X55524399Y-101549199D03*
D15*
X65684399Y-101549199D03*
D16*
X64160400Y-86877200D03*
D17*
X64160399Y-94377199D03*
D16*
X62635126Y-109613800D03*
X62635126Y-114613800D03*
D12*
X72085199Y-49174399D03*
D13*
X69545199Y-49174399D03*
X67005199Y-49174399D03*
X64465199Y-49174399D03*
X61925199Y-49174399D03*
X59385199Y-49174399D03*
X56845199Y-49174399D03*
X54305199Y-49174399D03*
X51765199Y-49174399D03*
X49225199Y-49174399D03*
X46685199Y-49174399D03*
X44145199Y-49174399D03*
D16*
X55270400Y-97993200D03*
D17*
X55270399Y-90493199D03*
D14*
X64160399Y-84150199D03*
D15*
X64160399Y-73990199D03*
D12*
X73303999Y-114630199D03*
D13*
X73303999Y-117170199D03*
X73303999Y-119710199D03*
X73303999Y-122250199D03*
X73303999Y-124790199D03*
D18*
X71399399Y-101609199D03*
D16*
X71399400Y-104109200D03*
D12*
X55523999Y-114630199D03*
D13*
X55523999Y-117170199D03*
X55523999Y-119710199D03*
X55523999Y-122250199D03*
X55523999Y-124790199D03*
D19*
X41841399Y-85369399D03*
X41841399Y-82829399D03*
X41841399Y-80289399D03*
X41841399Y-77749399D03*
X41841399Y-75209399D03*
X41841399Y-72669399D03*
X41841399Y-70129399D03*
X58031399Y-70129399D03*
X58031399Y-72669399D03*
X58031399Y-75209399D03*
X58031399Y-77749399D03*
X58031399Y-80289399D03*
X58031399Y-82829399D03*
X58031399Y-85369399D03*
D20*
X48666400Y-86321400D03*
X51206400Y-86321400D03*
X48666400Y-83781400D03*
X51206400Y-83781400D03*
D12*
X73821999Y-60346999D03*
D13*
X73821999Y-57806999D03*
X71281999Y-60346999D03*
X71281999Y-57806999D03*
X68741999Y-60346999D03*
X68741999Y-57806999D03*
X66201999Y-60346999D03*
X66201999Y-57806999D03*
X63661999Y-60346999D03*
X63661999Y-57806999D03*
X61121999Y-60346999D03*
X61121999Y-57806999D03*
X58581999Y-60346999D03*
X58581999Y-57806999D03*
X56041999Y-60346999D03*
X56041999Y-57806999D03*
D21*
X72923400Y-83642200D03*
D22*
X70383400Y-83642200D03*
X72923400Y-86182200D03*
X70383400Y-86182200D03*
X72923400Y-88722200D03*
X70383400Y-88722200D03*
X72923400Y-91262200D03*
X70383400Y-91262200D03*
X72923400Y-93802200D03*
X70383400Y-93802200D03*
D18*
X71526399Y-73440087D03*
D16*
X71526400Y-75940088D03*
M02*
