%TF.GenerationSoftware,KiCad,Pcbnew,(7.0.0)*%
%TF.CreationDate,2023-03-19T22:55:24+00:00*%
%TF.ProjectId,back_microlidian,6261636b-5f6d-4696-9372-6f6c69646961,rev?*%
%TF.SameCoordinates,Original*%
%TF.FileFunction,Drillmap*%
%TF.FilePolarity,Positive*%
%FSLAX45Y45*%
G04 Gerber Fmt 4.5, Leading zero omitted, Abs format (unit mm)*
G04 Created by KiCad (PCBNEW (7.0.0)) date 2023-03-19 22:55:24*
%MOMM*%
%LPD*%
G01*
G04 APERTURE LIST*
%ADD10C,0.100000*%
%ADD11C,0.200000*%
G04 APERTURE END LIST*
D10*
X3823097Y-4623089D02*
X7853097Y-4623089D01*
X7853097Y-4623089D02*
X7853097Y-14345189D01*
X7853097Y-14345189D02*
X3823097Y-14345189D01*
X3823097Y-14345189D02*
X3823097Y-4623089D01*
D11*
X4065716Y-14643665D02*
X4065716Y-14443665D01*
X4065716Y-14443665D02*
X4113335Y-14443665D01*
X4113335Y-14443665D02*
X4141906Y-14453189D01*
X4141906Y-14453189D02*
X4160954Y-14472237D01*
X4160954Y-14472237D02*
X4170478Y-14491284D01*
X4170478Y-14491284D02*
X4180001Y-14529379D01*
X4180001Y-14529379D02*
X4180001Y-14557951D01*
X4180001Y-14557951D02*
X4170478Y-14596046D01*
X4170478Y-14596046D02*
X4160954Y-14615094D01*
X4160954Y-14615094D02*
X4141906Y-14634141D01*
X4141906Y-14634141D02*
X4113335Y-14643665D01*
X4113335Y-14643665D02*
X4065716Y-14643665D01*
X4265716Y-14643665D02*
X4265716Y-14510332D01*
X4265716Y-14548427D02*
X4275240Y-14529379D01*
X4275240Y-14529379D02*
X4284763Y-14519856D01*
X4284763Y-14519856D02*
X4303811Y-14510332D01*
X4303811Y-14510332D02*
X4322859Y-14510332D01*
X4389525Y-14643665D02*
X4389525Y-14510332D01*
X4389525Y-14443665D02*
X4380002Y-14453189D01*
X4380002Y-14453189D02*
X4389525Y-14462713D01*
X4389525Y-14462713D02*
X4399049Y-14453189D01*
X4399049Y-14453189D02*
X4389525Y-14443665D01*
X4389525Y-14443665D02*
X4389525Y-14462713D01*
X4513335Y-14643665D02*
X4494287Y-14634141D01*
X4494287Y-14634141D02*
X4484763Y-14615094D01*
X4484763Y-14615094D02*
X4484763Y-14443665D01*
X4618097Y-14643665D02*
X4599049Y-14634141D01*
X4599049Y-14634141D02*
X4589525Y-14615094D01*
X4589525Y-14615094D02*
X4589525Y-14443665D01*
X4814287Y-14643665D02*
X4814287Y-14443665D01*
X4814287Y-14443665D02*
X4880954Y-14586522D01*
X4880954Y-14586522D02*
X4947621Y-14443665D01*
X4947621Y-14443665D02*
X4947621Y-14643665D01*
X5128573Y-14643665D02*
X5128573Y-14538903D01*
X5128573Y-14538903D02*
X5119049Y-14519856D01*
X5119049Y-14519856D02*
X5100002Y-14510332D01*
X5100002Y-14510332D02*
X5061906Y-14510332D01*
X5061906Y-14510332D02*
X5042859Y-14519856D01*
X5128573Y-14634141D02*
X5109525Y-14643665D01*
X5109525Y-14643665D02*
X5061906Y-14643665D01*
X5061906Y-14643665D02*
X5042859Y-14634141D01*
X5042859Y-14634141D02*
X5033335Y-14615094D01*
X5033335Y-14615094D02*
X5033335Y-14596046D01*
X5033335Y-14596046D02*
X5042859Y-14576998D01*
X5042859Y-14576998D02*
X5061906Y-14567475D01*
X5061906Y-14567475D02*
X5109525Y-14567475D01*
X5109525Y-14567475D02*
X5128573Y-14557951D01*
X5223811Y-14510332D02*
X5223811Y-14710332D01*
X5223811Y-14519856D02*
X5242859Y-14510332D01*
X5242859Y-14510332D02*
X5280954Y-14510332D01*
X5280954Y-14510332D02*
X5300002Y-14519856D01*
X5300002Y-14519856D02*
X5309525Y-14529379D01*
X5309525Y-14529379D02*
X5319049Y-14548427D01*
X5319049Y-14548427D02*
X5319049Y-14605570D01*
X5319049Y-14605570D02*
X5309525Y-14624617D01*
X5309525Y-14624617D02*
X5300002Y-14634141D01*
X5300002Y-14634141D02*
X5280954Y-14643665D01*
X5280954Y-14643665D02*
X5242859Y-14643665D01*
X5242859Y-14643665D02*
X5223811Y-14634141D01*
X5404763Y-14624617D02*
X5414287Y-14634141D01*
X5414287Y-14634141D02*
X5404763Y-14643665D01*
X5404763Y-14643665D02*
X5395240Y-14634141D01*
X5395240Y-14634141D02*
X5404763Y-14624617D01*
X5404763Y-14624617D02*
X5404763Y-14643665D01*
X5404763Y-14519856D02*
X5414287Y-14529379D01*
X5414287Y-14529379D02*
X5404763Y-14538903D01*
X5404763Y-14538903D02*
X5395240Y-14529379D01*
X5395240Y-14529379D02*
X5404763Y-14519856D01*
X5404763Y-14519856D02*
X5404763Y-14538903D01*
M02*
