M48
; DRILL file {KiCad (7.0.0)} date Sun Mar 19 22:56:32 2023
; FORMAT={-:-/ absolute / metric / decimal}
; #@! TF.CreationDate,2023-03-19T22:56:32+00:00
; #@! TF.GenerationSoftware,Kicad,Pcbnew,(7.0.0)
; #@! TF.FileFunction,Plated,1,2,PTH
FMAT,2
METRIC
; #@! TA.AperFunction,Plated,PTH,ComponentDrill
T1C0.762
; #@! TA.AperFunction,Plated,PTH,ComponentDrill
T2C0.800
; #@! TA.AperFunction,Plated,PTH,ComponentDrill
T3C1.000
; #@! TA.AperFunction,Plated,PTH,ComponentDrill
T4C1.100
; #@! TA.AperFunction,Plated,PTH,ComponentDrill
T5C1.220
; #@! TA.AperFunction,Plated,PTH,ComponentDrill
T6C1.420
; #@! TA.AperFunction,Plated,PTH,ComponentDrill
T7C1.430
; #@! TA.AperFunction,Plated,PTH,ComponentDrill
T8C2.000
%
G90
G05
T1
X94.195Y-53.32
X96.735Y-53.32
X99.275Y-53.32
X101.815Y-53.32
X104.355Y-53.32
X106.895Y-53.32
X109.435Y-53.32
X111.975Y-53.32
T2
X86.157Y-104.632
X86.157Y-112.132
X91.734Y-59.08
X96.342Y-83.16
X96.734Y-59.08
X101.956Y-104.683
X101.956Y-112.183
X103.962Y-83.16
X105.054Y-129.438
X105.054Y-137.058
X108.636Y-101.321
X116.256Y-101.321
X120.421Y-129.362
X120.421Y-136.982
T3
X88.799Y-49.125
X91.3Y-87.154
X91.3Y-101.654
X91.339Y-49.125
X93.574Y-141.3
X93.8Y-101.654
X93.879Y-49.125
X96.114Y-141.3
X96.3Y-87.154
X96.3Y-101.654
X96.419Y-49.125
X98.654Y-141.3
X98.959Y-49.125
X101.194Y-141.3
X101.499Y-49.125
X103.734Y-141.3
X104.039Y-49.125
X106.274Y-141.3
X106.579Y-49.125
X108.814Y-141.3
X109.119Y-49.125
X111.354Y-141.3
X111.659Y-49.125
X114.199Y-49.125
X116.739Y-49.125
T4
X109.306Y-91.762
X109.306Y-96.262
X115.806Y-91.762
X115.806Y-96.262
T5
X93.793Y-126.266
X93.793Y-107.479
X111.963Y-107.479
X111.963Y-126.266
T6
X93.793Y-129.366
X93.793Y-110.579
X111.963Y-110.579
X111.963Y-129.366
T7
X93.793Y-137.666
X93.793Y-118.879
X111.963Y-118.879
X111.963Y-137.666
T8
X88.2Y-94.404G85X88.2Y-93.904
G05
X99.4Y-94.404G85X99.4Y-93.904
G05
T0
M30
