G04 #@! TF.GenerationSoftware,KiCad,Pcbnew,(7.0.0)*
G04 #@! TF.CreationDate,2023-03-19T22:56:20+00:00*
G04 #@! TF.ProjectId,front_microlidian,66726f6e-745f-46d6-9963-726f6c696469,rev?*
G04 #@! TF.SameCoordinates,Original*
G04 #@! TF.FileFunction,Legend,Bot*
G04 #@! TF.FilePolarity,Positive*
%FSLAX46Y46*%
G04 Gerber Fmt 4.6, Leading zero omitted, Abs format (unit mm)*
G04 Created by KiCad (PCBNEW (7.0.0)) date 2023-03-19 22:56:20*
%MOMM*%
%LPD*%
G01*
G04 APERTURE LIST*
%ADD10C,0.150000*%
%ADD11C,0.120000*%
%ADD12C,1.600000*%
%ADD13O,1.600000X1.600000*%
%ADD14C,2.000000*%
%ADD15R,1.524000X1.524000*%
%ADD16C,1.524000*%
%ADD17R,2.000000X2.000000*%
%ADD18R,2.500000X3.000000*%
%ADD19R,1.930000X1.830000*%
%ADD20C,2.130000*%
%ADD21R,1.700000X1.700000*%
%ADD22O,1.700000X1.700000*%
G04 APERTURE END LIST*
D10*
X94400666Y-56852542D02*
X94448285Y-56900161D01*
X94448285Y-56900161D02*
X94591142Y-56947780D01*
X94591142Y-56947780D02*
X94686380Y-56947780D01*
X94686380Y-56947780D02*
X94829237Y-56900161D01*
X94829237Y-56900161D02*
X94924475Y-56804923D01*
X94924475Y-56804923D02*
X94972094Y-56709685D01*
X94972094Y-56709685D02*
X95019713Y-56519209D01*
X95019713Y-56519209D02*
X95019713Y-56376352D01*
X95019713Y-56376352D02*
X94972094Y-56185876D01*
X94972094Y-56185876D02*
X94924475Y-56090638D01*
X94924475Y-56090638D02*
X94829237Y-55995400D01*
X94829237Y-55995400D02*
X94686380Y-55947780D01*
X94686380Y-55947780D02*
X94591142Y-55947780D01*
X94591142Y-55947780D02*
X94448285Y-55995400D01*
X94448285Y-55995400D02*
X94400666Y-56043019D01*
X94067332Y-55947780D02*
X93400666Y-55947780D01*
X93400666Y-55947780D02*
X93829237Y-56947780D01*
X118876180Y-48315476D02*
X119590466Y-48315476D01*
X119590466Y-48315476D02*
X119733323Y-48267857D01*
X119733323Y-48267857D02*
X119828561Y-48172619D01*
X119828561Y-48172619D02*
X119876180Y-48029762D01*
X119876180Y-48029762D02*
X119876180Y-47934524D01*
X119876180Y-49315476D02*
X119876180Y-48744048D01*
X119876180Y-49029762D02*
X118876180Y-49029762D01*
X118876180Y-49029762D02*
X119019038Y-48934524D01*
X119019038Y-48934524D02*
X119114276Y-48839286D01*
X119114276Y-48839286D02*
X119161895Y-48744048D01*
X118971419Y-49696429D02*
X118923800Y-49744048D01*
X118923800Y-49744048D02*
X118876180Y-49839286D01*
X118876180Y-49839286D02*
X118876180Y-50077381D01*
X118876180Y-50077381D02*
X118923800Y-50172619D01*
X118923800Y-50172619D02*
X118971419Y-50220238D01*
X118971419Y-50220238D02*
X119066657Y-50267857D01*
X119066657Y-50267857D02*
X119161895Y-50267857D01*
X119161895Y-50267857D02*
X119304752Y-50220238D01*
X119304752Y-50220238D02*
X119876180Y-49648810D01*
X119876180Y-49648810D02*
X119876180Y-50267857D01*
X113490980Y-140490676D02*
X114205266Y-140490676D01*
X114205266Y-140490676D02*
X114348123Y-140443057D01*
X114348123Y-140443057D02*
X114443361Y-140347819D01*
X114443361Y-140347819D02*
X114490980Y-140204962D01*
X114490980Y-140204962D02*
X114490980Y-140109724D01*
X114490980Y-141490676D02*
X114490980Y-140919248D01*
X114490980Y-141204962D02*
X113490980Y-141204962D01*
X113490980Y-141204962D02*
X113633838Y-141109724D01*
X113633838Y-141109724D02*
X113729076Y-141014486D01*
X113729076Y-141014486D02*
X113776695Y-140919248D01*
X113824314Y-142347819D02*
X114490980Y-142347819D01*
X113443361Y-142109724D02*
X114157647Y-141871629D01*
X114157647Y-141871629D02*
X114157647Y-142490676D01*
D11*
X96854000Y-60450400D02*
X91614000Y-60450400D01*
X96854000Y-60135400D02*
X96854000Y-60450400D01*
X96854000Y-57710400D02*
X96854000Y-58025400D01*
X96854000Y-57710400D02*
X91614000Y-57710400D01*
X91614000Y-60135400D02*
X91614000Y-60450400D01*
X91614000Y-57710400D02*
X91614000Y-58025400D01*
X87468800Y-50455000D02*
X87468800Y-47795000D01*
X115468800Y-50455000D02*
X87468800Y-50455000D01*
X115468800Y-50455000D02*
X115468800Y-47795000D01*
X118068800Y-49125000D02*
X118068800Y-47795000D01*
X115468800Y-47795000D02*
X87468800Y-47795000D01*
X118068800Y-47795000D02*
X116738800Y-47795000D01*
X92243600Y-142630200D02*
X92243600Y-139970200D01*
X110083600Y-142630200D02*
X92243600Y-142630200D01*
X110083600Y-142630200D02*
X110083600Y-139970200D01*
X112683600Y-141300200D02*
X112683600Y-139970200D01*
X110083600Y-139970200D02*
X92243600Y-139970200D01*
X112683600Y-139970200D02*
X111353600Y-139970200D01*
%LPC*%
D12*
X101955600Y-104682600D03*
D13*
X101955599Y-112182599D03*
D12*
X116255800Y-101320600D03*
D13*
X108635799Y-101320599D03*
D12*
X120421400Y-136982200D03*
D13*
X120421399Y-129362199D03*
D12*
X105054400Y-129438400D03*
D13*
X105054399Y-137058399D03*
D14*
X109305590Y-91761880D03*
X115805590Y-91761880D03*
X109305590Y-96261880D03*
X115805590Y-96261880D03*
D15*
X94195389Y-53319879D03*
D16*
X96735390Y-53319880D03*
X99275390Y-53319880D03*
X101815390Y-53319880D03*
X104355390Y-53319880D03*
X106895390Y-53319880D03*
X109435390Y-53319880D03*
X111975390Y-53319880D03*
D17*
X91299589Y-101653879D03*
D14*
X96299590Y-101653880D03*
X93799590Y-101653880D03*
D18*
X88199589Y-94153879D03*
X99399589Y-94153879D03*
D14*
X91299590Y-87153880D03*
X96299590Y-87153880D03*
D19*
X93793389Y-107479279D03*
D20*
X93793390Y-118879280D03*
X93793390Y-110579280D03*
D19*
X93792989Y-126265879D03*
D20*
X93792990Y-137665880D03*
X93792990Y-129365880D03*
D12*
X86156800Y-112131800D03*
D13*
X86156799Y-104631799D03*
D20*
X111963390Y-129365880D03*
D19*
X111963389Y-126265879D03*
D20*
X111963390Y-137665880D03*
D12*
X96342200Y-83159600D03*
D13*
X103962199Y-83159599D03*
D19*
X111963389Y-107479279D03*
D20*
X111963390Y-118879280D03*
X111963390Y-110579280D03*
D12*
X96734000Y-59080400D03*
X91734000Y-59080400D03*
D21*
X116738799Y-49124999D03*
D22*
X114198799Y-49124999D03*
X111658799Y-49124999D03*
X109118799Y-49124999D03*
X106578799Y-49124999D03*
X104038799Y-49124999D03*
X101498799Y-49124999D03*
X98958799Y-49124999D03*
X96418799Y-49124999D03*
X93878799Y-49124999D03*
X91338799Y-49124999D03*
X88798799Y-49124999D03*
D21*
X111353599Y-141300199D03*
D22*
X108813599Y-141300199D03*
X106273599Y-141300199D03*
X103733599Y-141300199D03*
X101193599Y-141300199D03*
X98653599Y-141300199D03*
X96113599Y-141300199D03*
X93573599Y-141300199D03*
M02*
