%TF.GenerationSoftware,KiCad,Pcbnew,(7.0.0)*%
%TF.CreationDate,2023-03-19T22:56:33+00:00*%
%TF.ProjectId,front_microlidian,66726f6e-745f-46d6-9963-726f6c696469,rev?*%
%TF.SameCoordinates,Original*%
%TF.FileFunction,Drillmap*%
%TF.FilePolarity,Positive*%
%FSLAX45Y45*%
G04 Gerber Fmt 4.5, Leading zero omitted, Abs format (unit mm)*
G04 Created by KiCad (PCBNEW (7.0.0)) date 2023-03-19 22:56:33*
%MOMM*%
%LPD*%
G01*
G04 APERTURE LIST*
%ADD10C,0.100000*%
%ADD11C,0.200000*%
%ADD12C,0.076200*%
%ADD13C,0.080000*%
%ADD14C,0.110000*%
%ADD15C,0.122000*%
%ADD16C,0.142000*%
%ADD17C,0.143000*%
G04 APERTURE END LIST*
D10*
X8293497Y-4623089D02*
X12323497Y-4623089D01*
X12323497Y-4623089D02*
X12323497Y-14345189D01*
X12323497Y-14345189D02*
X8293497Y-14345189D01*
X8293497Y-14345189D02*
X8293497Y-4623089D01*
D11*
D12*
X9381439Y-5293888D02*
X9457639Y-5370088D01*
X9457639Y-5293888D02*
X9381439Y-5370088D01*
X9635439Y-5293888D02*
X9711639Y-5370088D01*
X9711639Y-5293888D02*
X9635439Y-5370088D01*
X9889439Y-5293888D02*
X9965639Y-5370088D01*
X9965639Y-5293888D02*
X9889439Y-5370088D01*
X10143439Y-5293888D02*
X10219639Y-5370088D01*
X10219639Y-5293888D02*
X10143439Y-5370088D01*
X10397439Y-5293888D02*
X10473639Y-5370088D01*
X10473639Y-5293888D02*
X10397439Y-5370088D01*
X10651439Y-5293888D02*
X10727639Y-5370088D01*
X10727639Y-5293888D02*
X10651439Y-5370088D01*
X10905439Y-5293888D02*
X10981639Y-5370088D01*
X10981639Y-5293888D02*
X10905439Y-5370088D01*
X11159439Y-5293888D02*
X11235639Y-5370088D01*
X11235639Y-5293888D02*
X11159439Y-5370088D01*
D13*
X8655680Y-10463180D02*
G75*
G03*
X8655680Y-10463180I-40000J0D01*
G01*
X8655680Y-11213180D02*
G75*
G03*
X8655680Y-11213180I-40000J0D01*
G01*
X9213400Y-5908040D02*
G75*
G03*
X9213400Y-5908040I-40000J0D01*
G01*
X9674220Y-8315960D02*
G75*
G03*
X9674220Y-8315960I-40000J0D01*
G01*
X9713400Y-5908040D02*
G75*
G03*
X9713400Y-5908040I-40000J0D01*
G01*
X10235560Y-10468260D02*
G75*
G03*
X10235560Y-10468260I-40000J0D01*
G01*
X10235560Y-11218260D02*
G75*
G03*
X10235560Y-11218260I-40000J0D01*
G01*
X10436220Y-8315960D02*
G75*
G03*
X10436220Y-8315960I-40000J0D01*
G01*
X10545440Y-12943840D02*
G75*
G03*
X10545440Y-12943840I-40000J0D01*
G01*
X10545440Y-13705840D02*
G75*
G03*
X10545440Y-13705840I-40000J0D01*
G01*
X10903580Y-10132060D02*
G75*
G03*
X10903580Y-10132060I-40000J0D01*
G01*
X11665580Y-10132060D02*
G75*
G03*
X11665580Y-10132060I-40000J0D01*
G01*
X12082140Y-12936220D02*
G75*
G03*
X12082140Y-12936220I-40000J0D01*
G01*
X12082140Y-13698220D02*
G75*
G03*
X12082140Y-13698220I-40000J0D01*
G01*
D10*
X8879880Y-4862500D02*
X8879880Y-4962500D01*
X8829880Y-4912500D02*
X8929880Y-4912500D01*
X9129959Y-8665388D02*
X9129959Y-8765388D01*
X9079959Y-8715388D02*
X9179959Y-8715388D01*
X9129959Y-10115388D02*
X9129959Y-10215388D01*
X9079959Y-10165388D02*
X9179959Y-10165388D01*
X9133880Y-4862500D02*
X9133880Y-4962500D01*
X9083880Y-4912500D02*
X9183880Y-4912500D01*
X9357360Y-14080020D02*
X9357360Y-14180020D01*
X9307360Y-14130020D02*
X9407360Y-14130020D01*
X9379959Y-10115388D02*
X9379959Y-10215388D01*
X9329959Y-10165388D02*
X9429959Y-10165388D01*
X9387880Y-4862500D02*
X9387880Y-4962500D01*
X9337880Y-4912500D02*
X9437880Y-4912500D01*
X9611360Y-14080020D02*
X9611360Y-14180020D01*
X9561360Y-14130020D02*
X9661360Y-14130020D01*
X9629959Y-8665388D02*
X9629959Y-8765388D01*
X9579959Y-8715388D02*
X9679959Y-8715388D01*
X9629959Y-10115388D02*
X9629959Y-10215388D01*
X9579959Y-10165388D02*
X9679959Y-10165388D01*
X9641880Y-4862500D02*
X9641880Y-4962500D01*
X9591880Y-4912500D02*
X9691880Y-4912500D01*
X9865360Y-14080020D02*
X9865360Y-14180020D01*
X9815360Y-14130020D02*
X9915360Y-14130020D01*
X9895880Y-4862500D02*
X9895880Y-4962500D01*
X9845880Y-4912500D02*
X9945880Y-4912500D01*
X10119360Y-14080020D02*
X10119360Y-14180020D01*
X10069360Y-14130020D02*
X10169360Y-14130020D01*
X10149880Y-4862500D02*
X10149880Y-4962500D01*
X10099880Y-4912500D02*
X10199880Y-4912500D01*
X10373360Y-14080020D02*
X10373360Y-14180020D01*
X10323360Y-14130020D02*
X10423360Y-14130020D01*
X10403880Y-4862500D02*
X10403880Y-4962500D01*
X10353880Y-4912500D02*
X10453880Y-4912500D01*
X10627360Y-14080020D02*
X10627360Y-14180020D01*
X10577360Y-14130020D02*
X10677360Y-14130020D01*
X10657880Y-4862500D02*
X10657880Y-4962500D01*
X10607880Y-4912500D02*
X10707880Y-4912500D01*
X10881360Y-14080020D02*
X10881360Y-14180020D01*
X10831360Y-14130020D02*
X10931360Y-14130020D01*
X10911880Y-4862500D02*
X10911880Y-4962500D01*
X10861880Y-4912500D02*
X10961880Y-4912500D01*
X11135360Y-14080020D02*
X11135360Y-14180020D01*
X11085360Y-14130020D02*
X11185360Y-14130020D01*
X11165880Y-4862500D02*
X11165880Y-4962500D01*
X11115880Y-4912500D02*
X11215880Y-4912500D01*
X11419880Y-4862500D02*
X11419880Y-4962500D01*
X11369880Y-4912500D02*
X11469880Y-4912500D01*
X11673880Y-4862500D02*
X11673880Y-4962500D01*
X11623880Y-4912500D02*
X11723880Y-4912500D01*
D14*
X10969450Y-9215079D02*
X10969450Y-9137297D01*
X10891668Y-9137297D01*
X10891668Y-9215079D01*
X10969450Y-9215079D01*
X10969450Y-9665079D02*
X10969450Y-9587297D01*
X10891668Y-9587297D01*
X10891668Y-9665079D01*
X10969450Y-9665079D01*
X11619450Y-9215079D02*
X11619450Y-9137297D01*
X11541668Y-9137297D01*
X11541668Y-9215079D01*
X11619450Y-9215079D01*
X11619450Y-9665079D02*
X11619450Y-9587297D01*
X11541668Y-9587297D01*
X11541668Y-9665079D01*
X11619450Y-9665079D01*
D15*
X9379299Y-12687588D02*
X9440299Y-12626588D01*
X9379299Y-12565588D01*
X9318299Y-12626588D01*
X9379299Y-12687588D01*
X9379339Y-10808928D02*
X9440339Y-10747928D01*
X9379339Y-10686928D01*
X9318339Y-10747928D01*
X9379339Y-10808928D01*
X11196339Y-10808928D02*
X11257339Y-10747928D01*
X11196339Y-10686928D01*
X11135339Y-10747928D01*
X11196339Y-10808928D01*
X11196339Y-12687588D02*
X11257339Y-12626588D01*
X11196339Y-12565588D01*
X11135339Y-12626588D01*
X11196339Y-12687588D01*
D16*
X9308299Y-12865588D02*
X9450299Y-13007588D01*
X9450299Y-12865588D02*
X9308299Y-13007588D01*
X9450299Y-12936588D02*
G75*
G03*
X9450299Y-12936588I-71000J0D01*
G01*
X9308339Y-10986928D02*
X9450339Y-11128928D01*
X9450339Y-10986928D02*
X9308339Y-11128928D01*
X9450339Y-11057928D02*
G75*
G03*
X9450339Y-11057928I-71000J0D01*
G01*
X11125339Y-10986928D02*
X11267339Y-11128928D01*
X11267339Y-10986928D02*
X11125339Y-11128928D01*
X11267339Y-11057928D02*
G75*
G03*
X11267339Y-11057928I-71000J0D01*
G01*
X11125339Y-12865588D02*
X11267339Y-13007588D01*
X11267339Y-12865588D02*
X11125339Y-13007588D01*
X11267339Y-12936588D02*
G75*
G03*
X11267339Y-12936588I-71000J0D01*
G01*
D17*
X9307799Y-13695088D02*
X9450799Y-13838088D01*
X9450799Y-13695088D02*
X9307799Y-13838088D01*
X9379299Y-13695088D02*
X9379299Y-13838088D01*
X9307799Y-13766588D02*
X9450799Y-13766588D01*
X9307839Y-11816428D02*
X9450839Y-11959428D01*
X9450839Y-11816428D02*
X9307839Y-11959428D01*
X9379339Y-11816428D02*
X9379339Y-11959428D01*
X9307839Y-11887928D02*
X9450839Y-11887928D01*
X11124839Y-11816428D02*
X11267839Y-11959428D01*
X11267839Y-11816428D02*
X11124839Y-11959428D01*
X11196339Y-11816428D02*
X11196339Y-11959428D01*
X11124839Y-11887928D02*
X11267839Y-11887928D01*
X11124839Y-13695088D02*
X11267839Y-13838088D01*
X11267839Y-13695088D02*
X11124839Y-13838088D01*
X11196339Y-13695088D02*
X11196339Y-13838088D01*
X11124839Y-13766588D02*
X11267839Y-13766588D01*
D11*
X8719959Y-9315388D02*
X8919959Y-9515388D01*
X8919959Y-9315388D02*
X8719959Y-9515388D01*
X8890670Y-9486099D02*
X8890670Y-9344677D01*
X8749248Y-9344677D01*
X8749248Y-9486099D01*
X8890670Y-9486099D01*
X8919959Y-9440388D02*
X8919959Y-9390388D01*
X8919959Y-9390388D02*
G75*
G03*
X8719959Y-9390388I-100000J0D01*
G01*
X8719959Y-9390388D02*
X8719959Y-9440388D01*
X8719959Y-9440388D02*
G75*
G03*
X8919959Y-9440388I100000J0D01*
G01*
X9839959Y-9315388D02*
X10039959Y-9515388D01*
X10039959Y-9315388D02*
X9839959Y-9515388D01*
X10010670Y-9486099D02*
X10010670Y-9344677D01*
X9869248Y-9344677D01*
X9869248Y-9486099D01*
X10010670Y-9486099D01*
X10039959Y-9440388D02*
X10039959Y-9390388D01*
X10039959Y-9390388D02*
G75*
G03*
X9839959Y-9390388I-100000J0D01*
G01*
X9839959Y-9390388D02*
X9839959Y-9440388D01*
X9839959Y-9440388D02*
G75*
G03*
X10039959Y-9440388I100000J0D01*
G01*
X8536116Y-14643665D02*
X8536116Y-14443665D01*
X8536116Y-14443665D02*
X8583735Y-14443665D01*
X8583735Y-14443665D02*
X8612306Y-14453189D01*
X8612306Y-14453189D02*
X8631354Y-14472237D01*
X8631354Y-14472237D02*
X8640878Y-14491284D01*
X8640878Y-14491284D02*
X8650402Y-14529379D01*
X8650402Y-14529379D02*
X8650402Y-14557951D01*
X8650402Y-14557951D02*
X8640878Y-14596046D01*
X8640878Y-14596046D02*
X8631354Y-14615094D01*
X8631354Y-14615094D02*
X8612306Y-14634141D01*
X8612306Y-14634141D02*
X8583735Y-14643665D01*
X8583735Y-14643665D02*
X8536116Y-14643665D01*
X8736116Y-14643665D02*
X8736116Y-14510332D01*
X8736116Y-14548427D02*
X8745640Y-14529379D01*
X8745640Y-14529379D02*
X8755163Y-14519856D01*
X8755163Y-14519856D02*
X8774211Y-14510332D01*
X8774211Y-14510332D02*
X8793259Y-14510332D01*
X8859925Y-14643665D02*
X8859925Y-14510332D01*
X8859925Y-14443665D02*
X8850402Y-14453189D01*
X8850402Y-14453189D02*
X8859925Y-14462713D01*
X8859925Y-14462713D02*
X8869449Y-14453189D01*
X8869449Y-14453189D02*
X8859925Y-14443665D01*
X8859925Y-14443665D02*
X8859925Y-14462713D01*
X8983735Y-14643665D02*
X8964687Y-14634141D01*
X8964687Y-14634141D02*
X8955163Y-14615094D01*
X8955163Y-14615094D02*
X8955163Y-14443665D01*
X9088497Y-14643665D02*
X9069449Y-14634141D01*
X9069449Y-14634141D02*
X9059925Y-14615094D01*
X9059925Y-14615094D02*
X9059925Y-14443665D01*
X9284687Y-14643665D02*
X9284687Y-14443665D01*
X9284687Y-14443665D02*
X9351354Y-14586522D01*
X9351354Y-14586522D02*
X9418021Y-14443665D01*
X9418021Y-14443665D02*
X9418021Y-14643665D01*
X9598973Y-14643665D02*
X9598973Y-14538903D01*
X9598973Y-14538903D02*
X9589449Y-14519856D01*
X9589449Y-14519856D02*
X9570402Y-14510332D01*
X9570402Y-14510332D02*
X9532306Y-14510332D01*
X9532306Y-14510332D02*
X9513259Y-14519856D01*
X9598973Y-14634141D02*
X9579925Y-14643665D01*
X9579925Y-14643665D02*
X9532306Y-14643665D01*
X9532306Y-14643665D02*
X9513259Y-14634141D01*
X9513259Y-14634141D02*
X9503735Y-14615094D01*
X9503735Y-14615094D02*
X9503735Y-14596046D01*
X9503735Y-14596046D02*
X9513259Y-14576998D01*
X9513259Y-14576998D02*
X9532306Y-14567475D01*
X9532306Y-14567475D02*
X9579925Y-14567475D01*
X9579925Y-14567475D02*
X9598973Y-14557951D01*
X9694211Y-14510332D02*
X9694211Y-14710332D01*
X9694211Y-14519856D02*
X9713259Y-14510332D01*
X9713259Y-14510332D02*
X9751354Y-14510332D01*
X9751354Y-14510332D02*
X9770402Y-14519856D01*
X9770402Y-14519856D02*
X9779925Y-14529379D01*
X9779925Y-14529379D02*
X9789449Y-14548427D01*
X9789449Y-14548427D02*
X9789449Y-14605570D01*
X9789449Y-14605570D02*
X9779925Y-14624617D01*
X9779925Y-14624617D02*
X9770402Y-14634141D01*
X9770402Y-14634141D02*
X9751354Y-14643665D01*
X9751354Y-14643665D02*
X9713259Y-14643665D01*
X9713259Y-14643665D02*
X9694211Y-14634141D01*
X9875163Y-14624617D02*
X9884687Y-14634141D01*
X9884687Y-14634141D02*
X9875163Y-14643665D01*
X9875163Y-14643665D02*
X9865640Y-14634141D01*
X9865640Y-14634141D02*
X9875163Y-14624617D01*
X9875163Y-14624617D02*
X9875163Y-14643665D01*
X9875163Y-14519856D02*
X9884687Y-14529379D01*
X9884687Y-14529379D02*
X9875163Y-14538903D01*
X9875163Y-14538903D02*
X9865640Y-14529379D01*
X9865640Y-14529379D02*
X9875163Y-14519856D01*
X9875163Y-14519856D02*
X9875163Y-14538903D01*
D12*
X8212297Y-14952089D02*
X8288497Y-15028289D01*
X8288497Y-14952089D02*
X8212297Y-15028289D01*
D11*
X8574211Y-14863665D02*
X8593259Y-14863665D01*
X8593259Y-14863665D02*
X8612306Y-14873189D01*
X8612306Y-14873189D02*
X8621830Y-14882713D01*
X8621830Y-14882713D02*
X8631354Y-14901760D01*
X8631354Y-14901760D02*
X8640878Y-14939856D01*
X8640878Y-14939856D02*
X8640878Y-14987475D01*
X8640878Y-14987475D02*
X8631354Y-15025570D01*
X8631354Y-15025570D02*
X8621830Y-15044617D01*
X8621830Y-15044617D02*
X8612306Y-15054141D01*
X8612306Y-15054141D02*
X8593259Y-15063665D01*
X8593259Y-15063665D02*
X8574211Y-15063665D01*
X8574211Y-15063665D02*
X8555163Y-15054141D01*
X8555163Y-15054141D02*
X8545640Y-15044617D01*
X8545640Y-15044617D02*
X8536116Y-15025570D01*
X8536116Y-15025570D02*
X8526592Y-14987475D01*
X8526592Y-14987475D02*
X8526592Y-14939856D01*
X8526592Y-14939856D02*
X8536116Y-14901760D01*
X8536116Y-14901760D02*
X8545640Y-14882713D01*
X8545640Y-14882713D02*
X8555163Y-14873189D01*
X8555163Y-14873189D02*
X8574211Y-14863665D01*
X8726592Y-15044617D02*
X8736116Y-15054141D01*
X8736116Y-15054141D02*
X8726592Y-15063665D01*
X8726592Y-15063665D02*
X8717068Y-15054141D01*
X8717068Y-15054141D02*
X8726592Y-15044617D01*
X8726592Y-15044617D02*
X8726592Y-15063665D01*
X8802783Y-14863665D02*
X8936116Y-14863665D01*
X8936116Y-14863665D02*
X8850402Y-15063665D01*
X9098021Y-14863665D02*
X9059925Y-14863665D01*
X9059925Y-14863665D02*
X9040878Y-14873189D01*
X9040878Y-14873189D02*
X9031354Y-14882713D01*
X9031354Y-14882713D02*
X9012306Y-14911284D01*
X9012306Y-14911284D02*
X9002783Y-14949379D01*
X9002783Y-14949379D02*
X9002783Y-15025570D01*
X9002783Y-15025570D02*
X9012306Y-15044617D01*
X9012306Y-15044617D02*
X9021830Y-15054141D01*
X9021830Y-15054141D02*
X9040878Y-15063665D01*
X9040878Y-15063665D02*
X9078973Y-15063665D01*
X9078973Y-15063665D02*
X9098021Y-15054141D01*
X9098021Y-15054141D02*
X9107544Y-15044617D01*
X9107544Y-15044617D02*
X9117068Y-15025570D01*
X9117068Y-15025570D02*
X9117068Y-14977951D01*
X9117068Y-14977951D02*
X9107544Y-14958903D01*
X9107544Y-14958903D02*
X9098021Y-14949379D01*
X9098021Y-14949379D02*
X9078973Y-14939856D01*
X9078973Y-14939856D02*
X9040878Y-14939856D01*
X9040878Y-14939856D02*
X9021830Y-14949379D01*
X9021830Y-14949379D02*
X9012306Y-14958903D01*
X9012306Y-14958903D02*
X9002783Y-14977951D01*
X9193259Y-14882713D02*
X9202783Y-14873189D01*
X9202783Y-14873189D02*
X9221830Y-14863665D01*
X9221830Y-14863665D02*
X9269449Y-14863665D01*
X9269449Y-14863665D02*
X9288497Y-14873189D01*
X9288497Y-14873189D02*
X9298021Y-14882713D01*
X9298021Y-14882713D02*
X9307544Y-14901760D01*
X9307544Y-14901760D02*
X9307544Y-14920808D01*
X9307544Y-14920808D02*
X9298021Y-14949379D01*
X9298021Y-14949379D02*
X9183735Y-15063665D01*
X9183735Y-15063665D02*
X9307544Y-15063665D01*
X9393259Y-15063665D02*
X9393259Y-14930332D01*
X9393259Y-14949379D02*
X9402783Y-14939856D01*
X9402783Y-14939856D02*
X9421830Y-14930332D01*
X9421830Y-14930332D02*
X9450402Y-14930332D01*
X9450402Y-14930332D02*
X9469449Y-14939856D01*
X9469449Y-14939856D02*
X9478973Y-14958903D01*
X9478973Y-14958903D02*
X9478973Y-15063665D01*
X9478973Y-14958903D02*
X9488497Y-14939856D01*
X9488497Y-14939856D02*
X9507544Y-14930332D01*
X9507544Y-14930332D02*
X9536116Y-14930332D01*
X9536116Y-14930332D02*
X9555164Y-14939856D01*
X9555164Y-14939856D02*
X9564687Y-14958903D01*
X9564687Y-14958903D02*
X9564687Y-15063665D01*
X9659925Y-15063665D02*
X9659925Y-14930332D01*
X9659925Y-14949379D02*
X9669449Y-14939856D01*
X9669449Y-14939856D02*
X9688497Y-14930332D01*
X9688497Y-14930332D02*
X9717068Y-14930332D01*
X9717068Y-14930332D02*
X9736116Y-14939856D01*
X9736116Y-14939856D02*
X9745640Y-14958903D01*
X9745640Y-14958903D02*
X9745640Y-15063665D01*
X9745640Y-14958903D02*
X9755164Y-14939856D01*
X9755164Y-14939856D02*
X9774211Y-14930332D01*
X9774211Y-14930332D02*
X9802783Y-14930332D01*
X9802783Y-14930332D02*
X9821830Y-14939856D01*
X9821830Y-14939856D02*
X9831354Y-14958903D01*
X9831354Y-14958903D02*
X9831354Y-15063665D01*
X10189449Y-14854141D02*
X10018021Y-15111284D01*
X10414211Y-14863665D02*
X10433259Y-14863665D01*
X10433259Y-14863665D02*
X10452306Y-14873189D01*
X10452306Y-14873189D02*
X10461830Y-14882713D01*
X10461830Y-14882713D02*
X10471354Y-14901760D01*
X10471354Y-14901760D02*
X10480878Y-14939856D01*
X10480878Y-14939856D02*
X10480878Y-14987475D01*
X10480878Y-14987475D02*
X10471354Y-15025570D01*
X10471354Y-15025570D02*
X10461830Y-15044617D01*
X10461830Y-15044617D02*
X10452306Y-15054141D01*
X10452306Y-15054141D02*
X10433259Y-15063665D01*
X10433259Y-15063665D02*
X10414211Y-15063665D01*
X10414211Y-15063665D02*
X10395164Y-15054141D01*
X10395164Y-15054141D02*
X10385640Y-15044617D01*
X10385640Y-15044617D02*
X10376116Y-15025570D01*
X10376116Y-15025570D02*
X10366592Y-14987475D01*
X10366592Y-14987475D02*
X10366592Y-14939856D01*
X10366592Y-14939856D02*
X10376116Y-14901760D01*
X10376116Y-14901760D02*
X10385640Y-14882713D01*
X10385640Y-14882713D02*
X10395164Y-14873189D01*
X10395164Y-14873189D02*
X10414211Y-14863665D01*
X10566592Y-15044617D02*
X10576116Y-15054141D01*
X10576116Y-15054141D02*
X10566592Y-15063665D01*
X10566592Y-15063665D02*
X10557068Y-15054141D01*
X10557068Y-15054141D02*
X10566592Y-15044617D01*
X10566592Y-15044617D02*
X10566592Y-15063665D01*
X10699925Y-14863665D02*
X10718973Y-14863665D01*
X10718973Y-14863665D02*
X10738021Y-14873189D01*
X10738021Y-14873189D02*
X10747545Y-14882713D01*
X10747545Y-14882713D02*
X10757068Y-14901760D01*
X10757068Y-14901760D02*
X10766592Y-14939856D01*
X10766592Y-14939856D02*
X10766592Y-14987475D01*
X10766592Y-14987475D02*
X10757068Y-15025570D01*
X10757068Y-15025570D02*
X10747545Y-15044617D01*
X10747545Y-15044617D02*
X10738021Y-15054141D01*
X10738021Y-15054141D02*
X10718973Y-15063665D01*
X10718973Y-15063665D02*
X10699925Y-15063665D01*
X10699925Y-15063665D02*
X10680878Y-15054141D01*
X10680878Y-15054141D02*
X10671354Y-15044617D01*
X10671354Y-15044617D02*
X10661830Y-15025570D01*
X10661830Y-15025570D02*
X10652306Y-14987475D01*
X10652306Y-14987475D02*
X10652306Y-14939856D01*
X10652306Y-14939856D02*
X10661830Y-14901760D01*
X10661830Y-14901760D02*
X10671354Y-14882713D01*
X10671354Y-14882713D02*
X10680878Y-14873189D01*
X10680878Y-14873189D02*
X10699925Y-14863665D01*
X10833259Y-14863665D02*
X10957068Y-14863665D01*
X10957068Y-14863665D02*
X10890402Y-14939856D01*
X10890402Y-14939856D02*
X10918973Y-14939856D01*
X10918973Y-14939856D02*
X10938021Y-14949379D01*
X10938021Y-14949379D02*
X10947545Y-14958903D01*
X10947545Y-14958903D02*
X10957068Y-14977951D01*
X10957068Y-14977951D02*
X10957068Y-15025570D01*
X10957068Y-15025570D02*
X10947545Y-15044617D01*
X10947545Y-15044617D02*
X10938021Y-15054141D01*
X10938021Y-15054141D02*
X10918973Y-15063665D01*
X10918973Y-15063665D02*
X10861830Y-15063665D01*
X10861830Y-15063665D02*
X10842783Y-15054141D01*
X10842783Y-15054141D02*
X10833259Y-15044617D01*
X11080878Y-14863665D02*
X11099926Y-14863665D01*
X11099926Y-14863665D02*
X11118973Y-14873189D01*
X11118973Y-14873189D02*
X11128497Y-14882713D01*
X11128497Y-14882713D02*
X11138021Y-14901760D01*
X11138021Y-14901760D02*
X11147545Y-14939856D01*
X11147545Y-14939856D02*
X11147545Y-14987475D01*
X11147545Y-14987475D02*
X11138021Y-15025570D01*
X11138021Y-15025570D02*
X11128497Y-15044617D01*
X11128497Y-15044617D02*
X11118973Y-15054141D01*
X11118973Y-15054141D02*
X11099926Y-15063665D01*
X11099926Y-15063665D02*
X11080878Y-15063665D01*
X11080878Y-15063665D02*
X11061830Y-15054141D01*
X11061830Y-15054141D02*
X11052306Y-15044617D01*
X11052306Y-15044617D02*
X11042783Y-15025570D01*
X11042783Y-15025570D02*
X11033259Y-14987475D01*
X11033259Y-14987475D02*
X11033259Y-14939856D01*
X11033259Y-14939856D02*
X11042783Y-14901760D01*
X11042783Y-14901760D02*
X11052306Y-14882713D01*
X11052306Y-14882713D02*
X11061830Y-14873189D01*
X11061830Y-14873189D02*
X11080878Y-14863665D01*
X11271354Y-14863665D02*
X11290402Y-14863665D01*
X11290402Y-14863665D02*
X11309449Y-14873189D01*
X11309449Y-14873189D02*
X11318973Y-14882713D01*
X11318973Y-14882713D02*
X11328497Y-14901760D01*
X11328497Y-14901760D02*
X11338021Y-14939856D01*
X11338021Y-14939856D02*
X11338021Y-14987475D01*
X11338021Y-14987475D02*
X11328497Y-15025570D01*
X11328497Y-15025570D02*
X11318973Y-15044617D01*
X11318973Y-15044617D02*
X11309449Y-15054141D01*
X11309449Y-15054141D02*
X11290402Y-15063665D01*
X11290402Y-15063665D02*
X11271354Y-15063665D01*
X11271354Y-15063665D02*
X11252306Y-15054141D01*
X11252306Y-15054141D02*
X11242783Y-15044617D01*
X11242783Y-15044617D02*
X11233259Y-15025570D01*
X11233259Y-15025570D02*
X11223735Y-14987475D01*
X11223735Y-14987475D02*
X11223735Y-14939856D01*
X11223735Y-14939856D02*
X11233259Y-14901760D01*
X11233259Y-14901760D02*
X11242783Y-14882713D01*
X11242783Y-14882713D02*
X11252306Y-14873189D01*
X11252306Y-14873189D02*
X11271354Y-14863665D01*
X11414211Y-14863665D02*
X11414211Y-14901760D01*
X11490402Y-14863665D02*
X11490402Y-14901760D01*
X11753259Y-15139856D02*
X11743735Y-15130332D01*
X11743735Y-15130332D02*
X11724687Y-15101760D01*
X11724687Y-15101760D02*
X11715164Y-15082713D01*
X11715164Y-15082713D02*
X11705640Y-15054141D01*
X11705640Y-15054141D02*
X11696116Y-15006522D01*
X11696116Y-15006522D02*
X11696116Y-14968427D01*
X11696116Y-14968427D02*
X11705640Y-14920808D01*
X11705640Y-14920808D02*
X11715164Y-14892237D01*
X11715164Y-14892237D02*
X11724687Y-14873189D01*
X11724687Y-14873189D02*
X11743735Y-14844617D01*
X11743735Y-14844617D02*
X11753259Y-14835094D01*
X11858021Y-14949379D02*
X11838973Y-14939856D01*
X11838973Y-14939856D02*
X11829449Y-14930332D01*
X11829449Y-14930332D02*
X11819925Y-14911284D01*
X11819925Y-14911284D02*
X11819925Y-14901760D01*
X11819925Y-14901760D02*
X11829449Y-14882713D01*
X11829449Y-14882713D02*
X11838973Y-14873189D01*
X11838973Y-14873189D02*
X11858021Y-14863665D01*
X11858021Y-14863665D02*
X11896116Y-14863665D01*
X11896116Y-14863665D02*
X11915164Y-14873189D01*
X11915164Y-14873189D02*
X11924687Y-14882713D01*
X11924687Y-14882713D02*
X11934211Y-14901760D01*
X11934211Y-14901760D02*
X11934211Y-14911284D01*
X11934211Y-14911284D02*
X11924687Y-14930332D01*
X11924687Y-14930332D02*
X11915164Y-14939856D01*
X11915164Y-14939856D02*
X11896116Y-14949379D01*
X11896116Y-14949379D02*
X11858021Y-14949379D01*
X11858021Y-14949379D02*
X11838973Y-14958903D01*
X11838973Y-14958903D02*
X11829449Y-14968427D01*
X11829449Y-14968427D02*
X11819925Y-14987475D01*
X11819925Y-14987475D02*
X11819925Y-15025570D01*
X11819925Y-15025570D02*
X11829449Y-15044617D01*
X11829449Y-15044617D02*
X11838973Y-15054141D01*
X11838973Y-15054141D02*
X11858021Y-15063665D01*
X11858021Y-15063665D02*
X11896116Y-15063665D01*
X11896116Y-15063665D02*
X11915164Y-15054141D01*
X11915164Y-15054141D02*
X11924687Y-15044617D01*
X11924687Y-15044617D02*
X11934211Y-15025570D01*
X11934211Y-15025570D02*
X11934211Y-14987475D01*
X11934211Y-14987475D02*
X11924687Y-14968427D01*
X11924687Y-14968427D02*
X11915164Y-14958903D01*
X11915164Y-14958903D02*
X11896116Y-14949379D01*
X12139925Y-15063665D02*
X12139925Y-14863665D01*
X12225640Y-15063665D02*
X12225640Y-14958903D01*
X12225640Y-14958903D02*
X12216116Y-14939856D01*
X12216116Y-14939856D02*
X12197068Y-14930332D01*
X12197068Y-14930332D02*
X12168497Y-14930332D01*
X12168497Y-14930332D02*
X12149449Y-14939856D01*
X12149449Y-14939856D02*
X12139925Y-14949379D01*
X12349449Y-15063665D02*
X12330402Y-15054141D01*
X12330402Y-15054141D02*
X12320878Y-15044617D01*
X12320878Y-15044617D02*
X12311354Y-15025570D01*
X12311354Y-15025570D02*
X12311354Y-14968427D01*
X12311354Y-14968427D02*
X12320878Y-14949379D01*
X12320878Y-14949379D02*
X12330402Y-14939856D01*
X12330402Y-14939856D02*
X12349449Y-14930332D01*
X12349449Y-14930332D02*
X12378021Y-14930332D01*
X12378021Y-14930332D02*
X12397068Y-14939856D01*
X12397068Y-14939856D02*
X12406592Y-14949379D01*
X12406592Y-14949379D02*
X12416116Y-14968427D01*
X12416116Y-14968427D02*
X12416116Y-15025570D01*
X12416116Y-15025570D02*
X12406592Y-15044617D01*
X12406592Y-15044617D02*
X12397068Y-15054141D01*
X12397068Y-15054141D02*
X12378021Y-15063665D01*
X12378021Y-15063665D02*
X12349449Y-15063665D01*
X12530402Y-15063665D02*
X12511354Y-15054141D01*
X12511354Y-15054141D02*
X12501830Y-15035094D01*
X12501830Y-15035094D02*
X12501830Y-14863665D01*
X12682783Y-15054141D02*
X12663735Y-15063665D01*
X12663735Y-15063665D02*
X12625640Y-15063665D01*
X12625640Y-15063665D02*
X12606592Y-15054141D01*
X12606592Y-15054141D02*
X12597068Y-15035094D01*
X12597068Y-15035094D02*
X12597068Y-14958903D01*
X12597068Y-14958903D02*
X12606592Y-14939856D01*
X12606592Y-14939856D02*
X12625640Y-14930332D01*
X12625640Y-14930332D02*
X12663735Y-14930332D01*
X12663735Y-14930332D02*
X12682783Y-14939856D01*
X12682783Y-14939856D02*
X12692306Y-14958903D01*
X12692306Y-14958903D02*
X12692306Y-14977951D01*
X12692306Y-14977951D02*
X12597068Y-14996998D01*
X12768497Y-15054141D02*
X12787545Y-15063665D01*
X12787545Y-15063665D02*
X12825640Y-15063665D01*
X12825640Y-15063665D02*
X12844687Y-15054141D01*
X12844687Y-15054141D02*
X12854211Y-15035094D01*
X12854211Y-15035094D02*
X12854211Y-15025570D01*
X12854211Y-15025570D02*
X12844687Y-15006522D01*
X12844687Y-15006522D02*
X12825640Y-14996998D01*
X12825640Y-14996998D02*
X12797068Y-14996998D01*
X12797068Y-14996998D02*
X12778021Y-14987475D01*
X12778021Y-14987475D02*
X12768497Y-14968427D01*
X12768497Y-14968427D02*
X12768497Y-14958903D01*
X12768497Y-14958903D02*
X12778021Y-14939856D01*
X12778021Y-14939856D02*
X12797068Y-14930332D01*
X12797068Y-14930332D02*
X12825640Y-14930332D01*
X12825640Y-14930332D02*
X12844687Y-14939856D01*
X12920878Y-15139856D02*
X12930402Y-15130332D01*
X12930402Y-15130332D02*
X12949449Y-15101760D01*
X12949449Y-15101760D02*
X12958973Y-15082713D01*
X12958973Y-15082713D02*
X12968497Y-15054141D01*
X12968497Y-15054141D02*
X12978021Y-15006522D01*
X12978021Y-15006522D02*
X12978021Y-14968427D01*
X12978021Y-14968427D02*
X12968497Y-14920808D01*
X12968497Y-14920808D02*
X12958973Y-14892237D01*
X12958973Y-14892237D02*
X12949449Y-14873189D01*
X12949449Y-14873189D02*
X12930402Y-14844617D01*
X12930402Y-14844617D02*
X12920878Y-14835094D01*
D13*
X8288497Y-15254189D02*
G75*
G03*
X8288497Y-15254189I-40000J0D01*
G01*
D11*
X8574211Y-15127665D02*
X8593259Y-15127665D01*
X8593259Y-15127665D02*
X8612306Y-15137189D01*
X8612306Y-15137189D02*
X8621830Y-15146713D01*
X8621830Y-15146713D02*
X8631354Y-15165760D01*
X8631354Y-15165760D02*
X8640878Y-15203856D01*
X8640878Y-15203856D02*
X8640878Y-15251475D01*
X8640878Y-15251475D02*
X8631354Y-15289570D01*
X8631354Y-15289570D02*
X8621830Y-15308617D01*
X8621830Y-15308617D02*
X8612306Y-15318141D01*
X8612306Y-15318141D02*
X8593259Y-15327665D01*
X8593259Y-15327665D02*
X8574211Y-15327665D01*
X8574211Y-15327665D02*
X8555163Y-15318141D01*
X8555163Y-15318141D02*
X8545640Y-15308617D01*
X8545640Y-15308617D02*
X8536116Y-15289570D01*
X8536116Y-15289570D02*
X8526592Y-15251475D01*
X8526592Y-15251475D02*
X8526592Y-15203856D01*
X8526592Y-15203856D02*
X8536116Y-15165760D01*
X8536116Y-15165760D02*
X8545640Y-15146713D01*
X8545640Y-15146713D02*
X8555163Y-15137189D01*
X8555163Y-15137189D02*
X8574211Y-15127665D01*
X8726592Y-15308617D02*
X8736116Y-15318141D01*
X8736116Y-15318141D02*
X8726592Y-15327665D01*
X8726592Y-15327665D02*
X8717068Y-15318141D01*
X8717068Y-15318141D02*
X8726592Y-15308617D01*
X8726592Y-15308617D02*
X8726592Y-15327665D01*
X8850402Y-15213379D02*
X8831354Y-15203856D01*
X8831354Y-15203856D02*
X8821830Y-15194332D01*
X8821830Y-15194332D02*
X8812306Y-15175284D01*
X8812306Y-15175284D02*
X8812306Y-15165760D01*
X8812306Y-15165760D02*
X8821830Y-15146713D01*
X8821830Y-15146713D02*
X8831354Y-15137189D01*
X8831354Y-15137189D02*
X8850402Y-15127665D01*
X8850402Y-15127665D02*
X8888497Y-15127665D01*
X8888497Y-15127665D02*
X8907544Y-15137189D01*
X8907544Y-15137189D02*
X8917068Y-15146713D01*
X8917068Y-15146713D02*
X8926592Y-15165760D01*
X8926592Y-15165760D02*
X8926592Y-15175284D01*
X8926592Y-15175284D02*
X8917068Y-15194332D01*
X8917068Y-15194332D02*
X8907544Y-15203856D01*
X8907544Y-15203856D02*
X8888497Y-15213379D01*
X8888497Y-15213379D02*
X8850402Y-15213379D01*
X8850402Y-15213379D02*
X8831354Y-15222903D01*
X8831354Y-15222903D02*
X8821830Y-15232427D01*
X8821830Y-15232427D02*
X8812306Y-15251475D01*
X8812306Y-15251475D02*
X8812306Y-15289570D01*
X8812306Y-15289570D02*
X8821830Y-15308617D01*
X8821830Y-15308617D02*
X8831354Y-15318141D01*
X8831354Y-15318141D02*
X8850402Y-15327665D01*
X8850402Y-15327665D02*
X8888497Y-15327665D01*
X8888497Y-15327665D02*
X8907544Y-15318141D01*
X8907544Y-15318141D02*
X8917068Y-15308617D01*
X8917068Y-15308617D02*
X8926592Y-15289570D01*
X8926592Y-15289570D02*
X8926592Y-15251475D01*
X8926592Y-15251475D02*
X8917068Y-15232427D01*
X8917068Y-15232427D02*
X8907544Y-15222903D01*
X8907544Y-15222903D02*
X8888497Y-15213379D01*
X9050402Y-15127665D02*
X9069449Y-15127665D01*
X9069449Y-15127665D02*
X9088497Y-15137189D01*
X9088497Y-15137189D02*
X9098021Y-15146713D01*
X9098021Y-15146713D02*
X9107544Y-15165760D01*
X9107544Y-15165760D02*
X9117068Y-15203856D01*
X9117068Y-15203856D02*
X9117068Y-15251475D01*
X9117068Y-15251475D02*
X9107544Y-15289570D01*
X9107544Y-15289570D02*
X9098021Y-15308617D01*
X9098021Y-15308617D02*
X9088497Y-15318141D01*
X9088497Y-15318141D02*
X9069449Y-15327665D01*
X9069449Y-15327665D02*
X9050402Y-15327665D01*
X9050402Y-15327665D02*
X9031354Y-15318141D01*
X9031354Y-15318141D02*
X9021830Y-15308617D01*
X9021830Y-15308617D02*
X9012306Y-15289570D01*
X9012306Y-15289570D02*
X9002783Y-15251475D01*
X9002783Y-15251475D02*
X9002783Y-15203856D01*
X9002783Y-15203856D02*
X9012306Y-15165760D01*
X9012306Y-15165760D02*
X9021830Y-15146713D01*
X9021830Y-15146713D02*
X9031354Y-15137189D01*
X9031354Y-15137189D02*
X9050402Y-15127665D01*
X9240878Y-15127665D02*
X9259925Y-15127665D01*
X9259925Y-15127665D02*
X9278973Y-15137189D01*
X9278973Y-15137189D02*
X9288497Y-15146713D01*
X9288497Y-15146713D02*
X9298021Y-15165760D01*
X9298021Y-15165760D02*
X9307544Y-15203856D01*
X9307544Y-15203856D02*
X9307544Y-15251475D01*
X9307544Y-15251475D02*
X9298021Y-15289570D01*
X9298021Y-15289570D02*
X9288497Y-15308617D01*
X9288497Y-15308617D02*
X9278973Y-15318141D01*
X9278973Y-15318141D02*
X9259925Y-15327665D01*
X9259925Y-15327665D02*
X9240878Y-15327665D01*
X9240878Y-15327665D02*
X9221830Y-15318141D01*
X9221830Y-15318141D02*
X9212306Y-15308617D01*
X9212306Y-15308617D02*
X9202783Y-15289570D01*
X9202783Y-15289570D02*
X9193259Y-15251475D01*
X9193259Y-15251475D02*
X9193259Y-15203856D01*
X9193259Y-15203856D02*
X9202783Y-15165760D01*
X9202783Y-15165760D02*
X9212306Y-15146713D01*
X9212306Y-15146713D02*
X9221830Y-15137189D01*
X9221830Y-15137189D02*
X9240878Y-15127665D01*
X9393259Y-15327665D02*
X9393259Y-15194332D01*
X9393259Y-15213379D02*
X9402783Y-15203856D01*
X9402783Y-15203856D02*
X9421830Y-15194332D01*
X9421830Y-15194332D02*
X9450402Y-15194332D01*
X9450402Y-15194332D02*
X9469449Y-15203856D01*
X9469449Y-15203856D02*
X9478973Y-15222903D01*
X9478973Y-15222903D02*
X9478973Y-15327665D01*
X9478973Y-15222903D02*
X9488497Y-15203856D01*
X9488497Y-15203856D02*
X9507544Y-15194332D01*
X9507544Y-15194332D02*
X9536116Y-15194332D01*
X9536116Y-15194332D02*
X9555164Y-15203856D01*
X9555164Y-15203856D02*
X9564687Y-15222903D01*
X9564687Y-15222903D02*
X9564687Y-15327665D01*
X9659925Y-15327665D02*
X9659925Y-15194332D01*
X9659925Y-15213379D02*
X9669449Y-15203856D01*
X9669449Y-15203856D02*
X9688497Y-15194332D01*
X9688497Y-15194332D02*
X9717068Y-15194332D01*
X9717068Y-15194332D02*
X9736116Y-15203856D01*
X9736116Y-15203856D02*
X9745640Y-15222903D01*
X9745640Y-15222903D02*
X9745640Y-15327665D01*
X9745640Y-15222903D02*
X9755164Y-15203856D01*
X9755164Y-15203856D02*
X9774211Y-15194332D01*
X9774211Y-15194332D02*
X9802783Y-15194332D01*
X9802783Y-15194332D02*
X9821830Y-15203856D01*
X9821830Y-15203856D02*
X9831354Y-15222903D01*
X9831354Y-15222903D02*
X9831354Y-15327665D01*
X10189449Y-15118141D02*
X10018021Y-15375284D01*
X10414211Y-15127665D02*
X10433259Y-15127665D01*
X10433259Y-15127665D02*
X10452306Y-15137189D01*
X10452306Y-15137189D02*
X10461830Y-15146713D01*
X10461830Y-15146713D02*
X10471354Y-15165760D01*
X10471354Y-15165760D02*
X10480878Y-15203856D01*
X10480878Y-15203856D02*
X10480878Y-15251475D01*
X10480878Y-15251475D02*
X10471354Y-15289570D01*
X10471354Y-15289570D02*
X10461830Y-15308617D01*
X10461830Y-15308617D02*
X10452306Y-15318141D01*
X10452306Y-15318141D02*
X10433259Y-15327665D01*
X10433259Y-15327665D02*
X10414211Y-15327665D01*
X10414211Y-15327665D02*
X10395164Y-15318141D01*
X10395164Y-15318141D02*
X10385640Y-15308617D01*
X10385640Y-15308617D02*
X10376116Y-15289570D01*
X10376116Y-15289570D02*
X10366592Y-15251475D01*
X10366592Y-15251475D02*
X10366592Y-15203856D01*
X10366592Y-15203856D02*
X10376116Y-15165760D01*
X10376116Y-15165760D02*
X10385640Y-15146713D01*
X10385640Y-15146713D02*
X10395164Y-15137189D01*
X10395164Y-15137189D02*
X10414211Y-15127665D01*
X10566592Y-15308617D02*
X10576116Y-15318141D01*
X10576116Y-15318141D02*
X10566592Y-15327665D01*
X10566592Y-15327665D02*
X10557068Y-15318141D01*
X10557068Y-15318141D02*
X10566592Y-15308617D01*
X10566592Y-15308617D02*
X10566592Y-15327665D01*
X10699925Y-15127665D02*
X10718973Y-15127665D01*
X10718973Y-15127665D02*
X10738021Y-15137189D01*
X10738021Y-15137189D02*
X10747545Y-15146713D01*
X10747545Y-15146713D02*
X10757068Y-15165760D01*
X10757068Y-15165760D02*
X10766592Y-15203856D01*
X10766592Y-15203856D02*
X10766592Y-15251475D01*
X10766592Y-15251475D02*
X10757068Y-15289570D01*
X10757068Y-15289570D02*
X10747545Y-15308617D01*
X10747545Y-15308617D02*
X10738021Y-15318141D01*
X10738021Y-15318141D02*
X10718973Y-15327665D01*
X10718973Y-15327665D02*
X10699925Y-15327665D01*
X10699925Y-15327665D02*
X10680878Y-15318141D01*
X10680878Y-15318141D02*
X10671354Y-15308617D01*
X10671354Y-15308617D02*
X10661830Y-15289570D01*
X10661830Y-15289570D02*
X10652306Y-15251475D01*
X10652306Y-15251475D02*
X10652306Y-15203856D01*
X10652306Y-15203856D02*
X10661830Y-15165760D01*
X10661830Y-15165760D02*
X10671354Y-15146713D01*
X10671354Y-15146713D02*
X10680878Y-15137189D01*
X10680878Y-15137189D02*
X10699925Y-15127665D01*
X10833259Y-15127665D02*
X10957068Y-15127665D01*
X10957068Y-15127665D02*
X10890402Y-15203856D01*
X10890402Y-15203856D02*
X10918973Y-15203856D01*
X10918973Y-15203856D02*
X10938021Y-15213379D01*
X10938021Y-15213379D02*
X10947545Y-15222903D01*
X10947545Y-15222903D02*
X10957068Y-15241951D01*
X10957068Y-15241951D02*
X10957068Y-15289570D01*
X10957068Y-15289570D02*
X10947545Y-15308617D01*
X10947545Y-15308617D02*
X10938021Y-15318141D01*
X10938021Y-15318141D02*
X10918973Y-15327665D01*
X10918973Y-15327665D02*
X10861830Y-15327665D01*
X10861830Y-15327665D02*
X10842783Y-15318141D01*
X10842783Y-15318141D02*
X10833259Y-15308617D01*
X11147545Y-15327665D02*
X11033259Y-15327665D01*
X11090402Y-15327665D02*
X11090402Y-15127665D01*
X11090402Y-15127665D02*
X11071354Y-15156237D01*
X11071354Y-15156237D02*
X11052306Y-15175284D01*
X11052306Y-15175284D02*
X11033259Y-15184808D01*
X11328497Y-15127665D02*
X11233259Y-15127665D01*
X11233259Y-15127665D02*
X11223735Y-15222903D01*
X11223735Y-15222903D02*
X11233259Y-15213379D01*
X11233259Y-15213379D02*
X11252306Y-15203856D01*
X11252306Y-15203856D02*
X11299925Y-15203856D01*
X11299925Y-15203856D02*
X11318973Y-15213379D01*
X11318973Y-15213379D02*
X11328497Y-15222903D01*
X11328497Y-15222903D02*
X11338021Y-15241951D01*
X11338021Y-15241951D02*
X11338021Y-15289570D01*
X11338021Y-15289570D02*
X11328497Y-15308617D01*
X11328497Y-15308617D02*
X11318973Y-15318141D01*
X11318973Y-15318141D02*
X11299925Y-15327665D01*
X11299925Y-15327665D02*
X11252306Y-15327665D01*
X11252306Y-15327665D02*
X11233259Y-15318141D01*
X11233259Y-15318141D02*
X11223735Y-15308617D01*
X11414211Y-15127665D02*
X11414211Y-15165760D01*
X11490402Y-15127665D02*
X11490402Y-15165760D01*
X11753259Y-15403856D02*
X11743735Y-15394332D01*
X11743735Y-15394332D02*
X11724687Y-15365760D01*
X11724687Y-15365760D02*
X11715164Y-15346713D01*
X11715164Y-15346713D02*
X11705640Y-15318141D01*
X11705640Y-15318141D02*
X11696116Y-15270522D01*
X11696116Y-15270522D02*
X11696116Y-15232427D01*
X11696116Y-15232427D02*
X11705640Y-15184808D01*
X11705640Y-15184808D02*
X11715164Y-15156237D01*
X11715164Y-15156237D02*
X11724687Y-15137189D01*
X11724687Y-15137189D02*
X11743735Y-15108617D01*
X11743735Y-15108617D02*
X11753259Y-15099094D01*
X11934211Y-15327665D02*
X11819925Y-15327665D01*
X11877068Y-15327665D02*
X11877068Y-15127665D01*
X11877068Y-15127665D02*
X11858021Y-15156237D01*
X11858021Y-15156237D02*
X11838973Y-15175284D01*
X11838973Y-15175284D02*
X11819925Y-15184808D01*
X12105640Y-15194332D02*
X12105640Y-15327665D01*
X12058021Y-15118141D02*
X12010402Y-15260998D01*
X12010402Y-15260998D02*
X12134211Y-15260998D01*
X12330402Y-15327665D02*
X12330402Y-15127665D01*
X12416116Y-15327665D02*
X12416116Y-15222903D01*
X12416116Y-15222903D02*
X12406592Y-15203856D01*
X12406592Y-15203856D02*
X12387545Y-15194332D01*
X12387545Y-15194332D02*
X12358973Y-15194332D01*
X12358973Y-15194332D02*
X12339925Y-15203856D01*
X12339925Y-15203856D02*
X12330402Y-15213379D01*
X12539925Y-15327665D02*
X12520878Y-15318141D01*
X12520878Y-15318141D02*
X12511354Y-15308617D01*
X12511354Y-15308617D02*
X12501830Y-15289570D01*
X12501830Y-15289570D02*
X12501830Y-15232427D01*
X12501830Y-15232427D02*
X12511354Y-15213379D01*
X12511354Y-15213379D02*
X12520878Y-15203856D01*
X12520878Y-15203856D02*
X12539925Y-15194332D01*
X12539925Y-15194332D02*
X12568497Y-15194332D01*
X12568497Y-15194332D02*
X12587545Y-15203856D01*
X12587545Y-15203856D02*
X12597068Y-15213379D01*
X12597068Y-15213379D02*
X12606592Y-15232427D01*
X12606592Y-15232427D02*
X12606592Y-15289570D01*
X12606592Y-15289570D02*
X12597068Y-15308617D01*
X12597068Y-15308617D02*
X12587545Y-15318141D01*
X12587545Y-15318141D02*
X12568497Y-15327665D01*
X12568497Y-15327665D02*
X12539925Y-15327665D01*
X12720878Y-15327665D02*
X12701830Y-15318141D01*
X12701830Y-15318141D02*
X12692306Y-15299094D01*
X12692306Y-15299094D02*
X12692306Y-15127665D01*
X12873259Y-15318141D02*
X12854211Y-15327665D01*
X12854211Y-15327665D02*
X12816116Y-15327665D01*
X12816116Y-15327665D02*
X12797068Y-15318141D01*
X12797068Y-15318141D02*
X12787545Y-15299094D01*
X12787545Y-15299094D02*
X12787545Y-15222903D01*
X12787545Y-15222903D02*
X12797068Y-15203856D01*
X12797068Y-15203856D02*
X12816116Y-15194332D01*
X12816116Y-15194332D02*
X12854211Y-15194332D01*
X12854211Y-15194332D02*
X12873259Y-15203856D01*
X12873259Y-15203856D02*
X12882783Y-15222903D01*
X12882783Y-15222903D02*
X12882783Y-15241951D01*
X12882783Y-15241951D02*
X12787545Y-15260998D01*
X12958973Y-15318141D02*
X12978021Y-15327665D01*
X12978021Y-15327665D02*
X13016116Y-15327665D01*
X13016116Y-15327665D02*
X13035164Y-15318141D01*
X13035164Y-15318141D02*
X13044687Y-15299094D01*
X13044687Y-15299094D02*
X13044687Y-15289570D01*
X13044687Y-15289570D02*
X13035164Y-15270522D01*
X13035164Y-15270522D02*
X13016116Y-15260998D01*
X13016116Y-15260998D02*
X12987545Y-15260998D01*
X12987545Y-15260998D02*
X12968497Y-15251475D01*
X12968497Y-15251475D02*
X12958973Y-15232427D01*
X12958973Y-15232427D02*
X12958973Y-15222903D01*
X12958973Y-15222903D02*
X12968497Y-15203856D01*
X12968497Y-15203856D02*
X12987545Y-15194332D01*
X12987545Y-15194332D02*
X13016116Y-15194332D01*
X13016116Y-15194332D02*
X13035164Y-15203856D01*
X13111354Y-15403856D02*
X13120878Y-15394332D01*
X13120878Y-15394332D02*
X13139926Y-15365760D01*
X13139926Y-15365760D02*
X13149449Y-15346713D01*
X13149449Y-15346713D02*
X13158973Y-15318141D01*
X13158973Y-15318141D02*
X13168497Y-15270522D01*
X13168497Y-15270522D02*
X13168497Y-15232427D01*
X13168497Y-15232427D02*
X13158973Y-15184808D01*
X13158973Y-15184808D02*
X13149449Y-15156237D01*
X13149449Y-15156237D02*
X13139926Y-15137189D01*
X13139926Y-15137189D02*
X13120878Y-15108617D01*
X13120878Y-15108617D02*
X13111354Y-15099094D01*
D10*
X8238497Y-15468189D02*
X8238497Y-15568189D01*
X8188497Y-15518189D02*
X8288497Y-15518189D01*
D11*
X8640878Y-15591665D02*
X8526592Y-15591665D01*
X8583735Y-15591665D02*
X8583735Y-15391665D01*
X8583735Y-15391665D02*
X8564687Y-15420237D01*
X8564687Y-15420237D02*
X8545640Y-15439284D01*
X8545640Y-15439284D02*
X8526592Y-15448808D01*
X8726592Y-15572617D02*
X8736116Y-15582141D01*
X8736116Y-15582141D02*
X8726592Y-15591665D01*
X8726592Y-15591665D02*
X8717068Y-15582141D01*
X8717068Y-15582141D02*
X8726592Y-15572617D01*
X8726592Y-15572617D02*
X8726592Y-15591665D01*
X8859925Y-15391665D02*
X8878973Y-15391665D01*
X8878973Y-15391665D02*
X8898021Y-15401189D01*
X8898021Y-15401189D02*
X8907544Y-15410713D01*
X8907544Y-15410713D02*
X8917068Y-15429760D01*
X8917068Y-15429760D02*
X8926592Y-15467856D01*
X8926592Y-15467856D02*
X8926592Y-15515475D01*
X8926592Y-15515475D02*
X8917068Y-15553570D01*
X8917068Y-15553570D02*
X8907544Y-15572617D01*
X8907544Y-15572617D02*
X8898021Y-15582141D01*
X8898021Y-15582141D02*
X8878973Y-15591665D01*
X8878973Y-15591665D02*
X8859925Y-15591665D01*
X8859925Y-15591665D02*
X8840878Y-15582141D01*
X8840878Y-15582141D02*
X8831354Y-15572617D01*
X8831354Y-15572617D02*
X8821830Y-15553570D01*
X8821830Y-15553570D02*
X8812306Y-15515475D01*
X8812306Y-15515475D02*
X8812306Y-15467856D01*
X8812306Y-15467856D02*
X8821830Y-15429760D01*
X8821830Y-15429760D02*
X8831354Y-15410713D01*
X8831354Y-15410713D02*
X8840878Y-15401189D01*
X8840878Y-15401189D02*
X8859925Y-15391665D01*
X9050402Y-15391665D02*
X9069449Y-15391665D01*
X9069449Y-15391665D02*
X9088497Y-15401189D01*
X9088497Y-15401189D02*
X9098021Y-15410713D01*
X9098021Y-15410713D02*
X9107544Y-15429760D01*
X9107544Y-15429760D02*
X9117068Y-15467856D01*
X9117068Y-15467856D02*
X9117068Y-15515475D01*
X9117068Y-15515475D02*
X9107544Y-15553570D01*
X9107544Y-15553570D02*
X9098021Y-15572617D01*
X9098021Y-15572617D02*
X9088497Y-15582141D01*
X9088497Y-15582141D02*
X9069449Y-15591665D01*
X9069449Y-15591665D02*
X9050402Y-15591665D01*
X9050402Y-15591665D02*
X9031354Y-15582141D01*
X9031354Y-15582141D02*
X9021830Y-15572617D01*
X9021830Y-15572617D02*
X9012306Y-15553570D01*
X9012306Y-15553570D02*
X9002783Y-15515475D01*
X9002783Y-15515475D02*
X9002783Y-15467856D01*
X9002783Y-15467856D02*
X9012306Y-15429760D01*
X9012306Y-15429760D02*
X9021830Y-15410713D01*
X9021830Y-15410713D02*
X9031354Y-15401189D01*
X9031354Y-15401189D02*
X9050402Y-15391665D01*
X9240878Y-15391665D02*
X9259925Y-15391665D01*
X9259925Y-15391665D02*
X9278973Y-15401189D01*
X9278973Y-15401189D02*
X9288497Y-15410713D01*
X9288497Y-15410713D02*
X9298021Y-15429760D01*
X9298021Y-15429760D02*
X9307544Y-15467856D01*
X9307544Y-15467856D02*
X9307544Y-15515475D01*
X9307544Y-15515475D02*
X9298021Y-15553570D01*
X9298021Y-15553570D02*
X9288497Y-15572617D01*
X9288497Y-15572617D02*
X9278973Y-15582141D01*
X9278973Y-15582141D02*
X9259925Y-15591665D01*
X9259925Y-15591665D02*
X9240878Y-15591665D01*
X9240878Y-15591665D02*
X9221830Y-15582141D01*
X9221830Y-15582141D02*
X9212306Y-15572617D01*
X9212306Y-15572617D02*
X9202783Y-15553570D01*
X9202783Y-15553570D02*
X9193259Y-15515475D01*
X9193259Y-15515475D02*
X9193259Y-15467856D01*
X9193259Y-15467856D02*
X9202783Y-15429760D01*
X9202783Y-15429760D02*
X9212306Y-15410713D01*
X9212306Y-15410713D02*
X9221830Y-15401189D01*
X9221830Y-15401189D02*
X9240878Y-15391665D01*
X9393259Y-15591665D02*
X9393259Y-15458332D01*
X9393259Y-15477379D02*
X9402783Y-15467856D01*
X9402783Y-15467856D02*
X9421830Y-15458332D01*
X9421830Y-15458332D02*
X9450402Y-15458332D01*
X9450402Y-15458332D02*
X9469449Y-15467856D01*
X9469449Y-15467856D02*
X9478973Y-15486903D01*
X9478973Y-15486903D02*
X9478973Y-15591665D01*
X9478973Y-15486903D02*
X9488497Y-15467856D01*
X9488497Y-15467856D02*
X9507544Y-15458332D01*
X9507544Y-15458332D02*
X9536116Y-15458332D01*
X9536116Y-15458332D02*
X9555164Y-15467856D01*
X9555164Y-15467856D02*
X9564687Y-15486903D01*
X9564687Y-15486903D02*
X9564687Y-15591665D01*
X9659925Y-15591665D02*
X9659925Y-15458332D01*
X9659925Y-15477379D02*
X9669449Y-15467856D01*
X9669449Y-15467856D02*
X9688497Y-15458332D01*
X9688497Y-15458332D02*
X9717068Y-15458332D01*
X9717068Y-15458332D02*
X9736116Y-15467856D01*
X9736116Y-15467856D02*
X9745640Y-15486903D01*
X9745640Y-15486903D02*
X9745640Y-15591665D01*
X9745640Y-15486903D02*
X9755164Y-15467856D01*
X9755164Y-15467856D02*
X9774211Y-15458332D01*
X9774211Y-15458332D02*
X9802783Y-15458332D01*
X9802783Y-15458332D02*
X9821830Y-15467856D01*
X9821830Y-15467856D02*
X9831354Y-15486903D01*
X9831354Y-15486903D02*
X9831354Y-15591665D01*
X10189449Y-15382141D02*
X10018021Y-15639284D01*
X10414211Y-15391665D02*
X10433259Y-15391665D01*
X10433259Y-15391665D02*
X10452306Y-15401189D01*
X10452306Y-15401189D02*
X10461830Y-15410713D01*
X10461830Y-15410713D02*
X10471354Y-15429760D01*
X10471354Y-15429760D02*
X10480878Y-15467856D01*
X10480878Y-15467856D02*
X10480878Y-15515475D01*
X10480878Y-15515475D02*
X10471354Y-15553570D01*
X10471354Y-15553570D02*
X10461830Y-15572617D01*
X10461830Y-15572617D02*
X10452306Y-15582141D01*
X10452306Y-15582141D02*
X10433259Y-15591665D01*
X10433259Y-15591665D02*
X10414211Y-15591665D01*
X10414211Y-15591665D02*
X10395164Y-15582141D01*
X10395164Y-15582141D02*
X10385640Y-15572617D01*
X10385640Y-15572617D02*
X10376116Y-15553570D01*
X10376116Y-15553570D02*
X10366592Y-15515475D01*
X10366592Y-15515475D02*
X10366592Y-15467856D01*
X10366592Y-15467856D02*
X10376116Y-15429760D01*
X10376116Y-15429760D02*
X10385640Y-15410713D01*
X10385640Y-15410713D02*
X10395164Y-15401189D01*
X10395164Y-15401189D02*
X10414211Y-15391665D01*
X10566592Y-15572617D02*
X10576116Y-15582141D01*
X10576116Y-15582141D02*
X10566592Y-15591665D01*
X10566592Y-15591665D02*
X10557068Y-15582141D01*
X10557068Y-15582141D02*
X10566592Y-15572617D01*
X10566592Y-15572617D02*
X10566592Y-15591665D01*
X10699925Y-15391665D02*
X10718973Y-15391665D01*
X10718973Y-15391665D02*
X10738021Y-15401189D01*
X10738021Y-15401189D02*
X10747545Y-15410713D01*
X10747545Y-15410713D02*
X10757068Y-15429760D01*
X10757068Y-15429760D02*
X10766592Y-15467856D01*
X10766592Y-15467856D02*
X10766592Y-15515475D01*
X10766592Y-15515475D02*
X10757068Y-15553570D01*
X10757068Y-15553570D02*
X10747545Y-15572617D01*
X10747545Y-15572617D02*
X10738021Y-15582141D01*
X10738021Y-15582141D02*
X10718973Y-15591665D01*
X10718973Y-15591665D02*
X10699925Y-15591665D01*
X10699925Y-15591665D02*
X10680878Y-15582141D01*
X10680878Y-15582141D02*
X10671354Y-15572617D01*
X10671354Y-15572617D02*
X10661830Y-15553570D01*
X10661830Y-15553570D02*
X10652306Y-15515475D01*
X10652306Y-15515475D02*
X10652306Y-15467856D01*
X10652306Y-15467856D02*
X10661830Y-15429760D01*
X10661830Y-15429760D02*
X10671354Y-15410713D01*
X10671354Y-15410713D02*
X10680878Y-15401189D01*
X10680878Y-15401189D02*
X10699925Y-15391665D01*
X10833259Y-15391665D02*
X10957068Y-15391665D01*
X10957068Y-15391665D02*
X10890402Y-15467856D01*
X10890402Y-15467856D02*
X10918973Y-15467856D01*
X10918973Y-15467856D02*
X10938021Y-15477379D01*
X10938021Y-15477379D02*
X10947545Y-15486903D01*
X10947545Y-15486903D02*
X10957068Y-15505951D01*
X10957068Y-15505951D02*
X10957068Y-15553570D01*
X10957068Y-15553570D02*
X10947545Y-15572617D01*
X10947545Y-15572617D02*
X10938021Y-15582141D01*
X10938021Y-15582141D02*
X10918973Y-15591665D01*
X10918973Y-15591665D02*
X10861830Y-15591665D01*
X10861830Y-15591665D02*
X10842783Y-15582141D01*
X10842783Y-15582141D02*
X10833259Y-15572617D01*
X11052306Y-15591665D02*
X11090402Y-15591665D01*
X11090402Y-15591665D02*
X11109449Y-15582141D01*
X11109449Y-15582141D02*
X11118973Y-15572617D01*
X11118973Y-15572617D02*
X11138021Y-15544046D01*
X11138021Y-15544046D02*
X11147545Y-15505951D01*
X11147545Y-15505951D02*
X11147545Y-15429760D01*
X11147545Y-15429760D02*
X11138021Y-15410713D01*
X11138021Y-15410713D02*
X11128497Y-15401189D01*
X11128497Y-15401189D02*
X11109449Y-15391665D01*
X11109449Y-15391665D02*
X11071354Y-15391665D01*
X11071354Y-15391665D02*
X11052306Y-15401189D01*
X11052306Y-15401189D02*
X11042783Y-15410713D01*
X11042783Y-15410713D02*
X11033259Y-15429760D01*
X11033259Y-15429760D02*
X11033259Y-15477379D01*
X11033259Y-15477379D02*
X11042783Y-15496427D01*
X11042783Y-15496427D02*
X11052306Y-15505951D01*
X11052306Y-15505951D02*
X11071354Y-15515475D01*
X11071354Y-15515475D02*
X11109449Y-15515475D01*
X11109449Y-15515475D02*
X11128497Y-15505951D01*
X11128497Y-15505951D02*
X11138021Y-15496427D01*
X11138021Y-15496427D02*
X11147545Y-15477379D01*
X11318973Y-15458332D02*
X11318973Y-15591665D01*
X11271354Y-15382141D02*
X11223735Y-15524998D01*
X11223735Y-15524998D02*
X11347544Y-15524998D01*
X11414211Y-15391665D02*
X11414211Y-15429760D01*
X11490402Y-15391665D02*
X11490402Y-15429760D01*
X11753259Y-15667856D02*
X11743735Y-15658332D01*
X11743735Y-15658332D02*
X11724687Y-15629760D01*
X11724687Y-15629760D02*
X11715164Y-15610713D01*
X11715164Y-15610713D02*
X11705640Y-15582141D01*
X11705640Y-15582141D02*
X11696116Y-15534522D01*
X11696116Y-15534522D02*
X11696116Y-15496427D01*
X11696116Y-15496427D02*
X11705640Y-15448808D01*
X11705640Y-15448808D02*
X11715164Y-15420237D01*
X11715164Y-15420237D02*
X11724687Y-15401189D01*
X11724687Y-15401189D02*
X11743735Y-15372617D01*
X11743735Y-15372617D02*
X11753259Y-15363094D01*
X11819925Y-15410713D02*
X11829449Y-15401189D01*
X11829449Y-15401189D02*
X11848497Y-15391665D01*
X11848497Y-15391665D02*
X11896116Y-15391665D01*
X11896116Y-15391665D02*
X11915164Y-15401189D01*
X11915164Y-15401189D02*
X11924687Y-15410713D01*
X11924687Y-15410713D02*
X11934211Y-15429760D01*
X11934211Y-15429760D02*
X11934211Y-15448808D01*
X11934211Y-15448808D02*
X11924687Y-15477379D01*
X11924687Y-15477379D02*
X11810402Y-15591665D01*
X11810402Y-15591665D02*
X11934211Y-15591665D01*
X12115164Y-15391665D02*
X12019925Y-15391665D01*
X12019925Y-15391665D02*
X12010402Y-15486903D01*
X12010402Y-15486903D02*
X12019925Y-15477379D01*
X12019925Y-15477379D02*
X12038973Y-15467856D01*
X12038973Y-15467856D02*
X12086592Y-15467856D01*
X12086592Y-15467856D02*
X12105640Y-15477379D01*
X12105640Y-15477379D02*
X12115164Y-15486903D01*
X12115164Y-15486903D02*
X12124687Y-15505951D01*
X12124687Y-15505951D02*
X12124687Y-15553570D01*
X12124687Y-15553570D02*
X12115164Y-15572617D01*
X12115164Y-15572617D02*
X12105640Y-15582141D01*
X12105640Y-15582141D02*
X12086592Y-15591665D01*
X12086592Y-15591665D02*
X12038973Y-15591665D01*
X12038973Y-15591665D02*
X12019925Y-15582141D01*
X12019925Y-15582141D02*
X12010402Y-15572617D01*
X12330402Y-15591665D02*
X12330402Y-15391665D01*
X12416116Y-15591665D02*
X12416116Y-15486903D01*
X12416116Y-15486903D02*
X12406592Y-15467856D01*
X12406592Y-15467856D02*
X12387545Y-15458332D01*
X12387545Y-15458332D02*
X12358973Y-15458332D01*
X12358973Y-15458332D02*
X12339925Y-15467856D01*
X12339925Y-15467856D02*
X12330402Y-15477379D01*
X12539925Y-15591665D02*
X12520878Y-15582141D01*
X12520878Y-15582141D02*
X12511354Y-15572617D01*
X12511354Y-15572617D02*
X12501830Y-15553570D01*
X12501830Y-15553570D02*
X12501830Y-15496427D01*
X12501830Y-15496427D02*
X12511354Y-15477379D01*
X12511354Y-15477379D02*
X12520878Y-15467856D01*
X12520878Y-15467856D02*
X12539925Y-15458332D01*
X12539925Y-15458332D02*
X12568497Y-15458332D01*
X12568497Y-15458332D02*
X12587545Y-15467856D01*
X12587545Y-15467856D02*
X12597068Y-15477379D01*
X12597068Y-15477379D02*
X12606592Y-15496427D01*
X12606592Y-15496427D02*
X12606592Y-15553570D01*
X12606592Y-15553570D02*
X12597068Y-15572617D01*
X12597068Y-15572617D02*
X12587545Y-15582141D01*
X12587545Y-15582141D02*
X12568497Y-15591665D01*
X12568497Y-15591665D02*
X12539925Y-15591665D01*
X12720878Y-15591665D02*
X12701830Y-15582141D01*
X12701830Y-15582141D02*
X12692306Y-15563094D01*
X12692306Y-15563094D02*
X12692306Y-15391665D01*
X12873259Y-15582141D02*
X12854211Y-15591665D01*
X12854211Y-15591665D02*
X12816116Y-15591665D01*
X12816116Y-15591665D02*
X12797068Y-15582141D01*
X12797068Y-15582141D02*
X12787545Y-15563094D01*
X12787545Y-15563094D02*
X12787545Y-15486903D01*
X12787545Y-15486903D02*
X12797068Y-15467856D01*
X12797068Y-15467856D02*
X12816116Y-15458332D01*
X12816116Y-15458332D02*
X12854211Y-15458332D01*
X12854211Y-15458332D02*
X12873259Y-15467856D01*
X12873259Y-15467856D02*
X12882783Y-15486903D01*
X12882783Y-15486903D02*
X12882783Y-15505951D01*
X12882783Y-15505951D02*
X12787545Y-15524998D01*
X12958973Y-15582141D02*
X12978021Y-15591665D01*
X12978021Y-15591665D02*
X13016116Y-15591665D01*
X13016116Y-15591665D02*
X13035164Y-15582141D01*
X13035164Y-15582141D02*
X13044687Y-15563094D01*
X13044687Y-15563094D02*
X13044687Y-15553570D01*
X13044687Y-15553570D02*
X13035164Y-15534522D01*
X13035164Y-15534522D02*
X13016116Y-15524998D01*
X13016116Y-15524998D02*
X12987545Y-15524998D01*
X12987545Y-15524998D02*
X12968497Y-15515475D01*
X12968497Y-15515475D02*
X12958973Y-15496427D01*
X12958973Y-15496427D02*
X12958973Y-15486903D01*
X12958973Y-15486903D02*
X12968497Y-15467856D01*
X12968497Y-15467856D02*
X12987545Y-15458332D01*
X12987545Y-15458332D02*
X13016116Y-15458332D01*
X13016116Y-15458332D02*
X13035164Y-15467856D01*
X13111354Y-15667856D02*
X13120878Y-15658332D01*
X13120878Y-15658332D02*
X13139926Y-15629760D01*
X13139926Y-15629760D02*
X13149449Y-15610713D01*
X13149449Y-15610713D02*
X13158973Y-15582141D01*
X13158973Y-15582141D02*
X13168497Y-15534522D01*
X13168497Y-15534522D02*
X13168497Y-15496427D01*
X13168497Y-15496427D02*
X13158973Y-15448808D01*
X13158973Y-15448808D02*
X13149449Y-15420237D01*
X13149449Y-15420237D02*
X13139926Y-15401189D01*
X13139926Y-15401189D02*
X13120878Y-15372617D01*
X13120878Y-15372617D02*
X13111354Y-15363094D01*
D14*
X8272388Y-15821080D02*
X8272388Y-15743298D01*
X8194606Y-15743298D01*
X8194606Y-15821080D01*
X8272388Y-15821080D01*
D11*
X8640878Y-15855665D02*
X8526592Y-15855665D01*
X8583735Y-15855665D02*
X8583735Y-15655665D01*
X8583735Y-15655665D02*
X8564687Y-15684237D01*
X8564687Y-15684237D02*
X8545640Y-15703284D01*
X8545640Y-15703284D02*
X8526592Y-15712808D01*
X8726592Y-15836617D02*
X8736116Y-15846141D01*
X8736116Y-15846141D02*
X8726592Y-15855665D01*
X8726592Y-15855665D02*
X8717068Y-15846141D01*
X8717068Y-15846141D02*
X8726592Y-15836617D01*
X8726592Y-15836617D02*
X8726592Y-15855665D01*
X8926592Y-15855665D02*
X8812306Y-15855665D01*
X8869449Y-15855665D02*
X8869449Y-15655665D01*
X8869449Y-15655665D02*
X8850402Y-15684237D01*
X8850402Y-15684237D02*
X8831354Y-15703284D01*
X8831354Y-15703284D02*
X8812306Y-15712808D01*
X9050402Y-15655665D02*
X9069449Y-15655665D01*
X9069449Y-15655665D02*
X9088497Y-15665189D01*
X9088497Y-15665189D02*
X9098021Y-15674713D01*
X9098021Y-15674713D02*
X9107544Y-15693760D01*
X9107544Y-15693760D02*
X9117068Y-15731856D01*
X9117068Y-15731856D02*
X9117068Y-15779475D01*
X9117068Y-15779475D02*
X9107544Y-15817570D01*
X9107544Y-15817570D02*
X9098021Y-15836617D01*
X9098021Y-15836617D02*
X9088497Y-15846141D01*
X9088497Y-15846141D02*
X9069449Y-15855665D01*
X9069449Y-15855665D02*
X9050402Y-15855665D01*
X9050402Y-15855665D02*
X9031354Y-15846141D01*
X9031354Y-15846141D02*
X9021830Y-15836617D01*
X9021830Y-15836617D02*
X9012306Y-15817570D01*
X9012306Y-15817570D02*
X9002783Y-15779475D01*
X9002783Y-15779475D02*
X9002783Y-15731856D01*
X9002783Y-15731856D02*
X9012306Y-15693760D01*
X9012306Y-15693760D02*
X9021830Y-15674713D01*
X9021830Y-15674713D02*
X9031354Y-15665189D01*
X9031354Y-15665189D02*
X9050402Y-15655665D01*
X9240878Y-15655665D02*
X9259925Y-15655665D01*
X9259925Y-15655665D02*
X9278973Y-15665189D01*
X9278973Y-15665189D02*
X9288497Y-15674713D01*
X9288497Y-15674713D02*
X9298021Y-15693760D01*
X9298021Y-15693760D02*
X9307544Y-15731856D01*
X9307544Y-15731856D02*
X9307544Y-15779475D01*
X9307544Y-15779475D02*
X9298021Y-15817570D01*
X9298021Y-15817570D02*
X9288497Y-15836617D01*
X9288497Y-15836617D02*
X9278973Y-15846141D01*
X9278973Y-15846141D02*
X9259925Y-15855665D01*
X9259925Y-15855665D02*
X9240878Y-15855665D01*
X9240878Y-15855665D02*
X9221830Y-15846141D01*
X9221830Y-15846141D02*
X9212306Y-15836617D01*
X9212306Y-15836617D02*
X9202783Y-15817570D01*
X9202783Y-15817570D02*
X9193259Y-15779475D01*
X9193259Y-15779475D02*
X9193259Y-15731856D01*
X9193259Y-15731856D02*
X9202783Y-15693760D01*
X9202783Y-15693760D02*
X9212306Y-15674713D01*
X9212306Y-15674713D02*
X9221830Y-15665189D01*
X9221830Y-15665189D02*
X9240878Y-15655665D01*
X9393259Y-15855665D02*
X9393259Y-15722332D01*
X9393259Y-15741379D02*
X9402783Y-15731856D01*
X9402783Y-15731856D02*
X9421830Y-15722332D01*
X9421830Y-15722332D02*
X9450402Y-15722332D01*
X9450402Y-15722332D02*
X9469449Y-15731856D01*
X9469449Y-15731856D02*
X9478973Y-15750903D01*
X9478973Y-15750903D02*
X9478973Y-15855665D01*
X9478973Y-15750903D02*
X9488497Y-15731856D01*
X9488497Y-15731856D02*
X9507544Y-15722332D01*
X9507544Y-15722332D02*
X9536116Y-15722332D01*
X9536116Y-15722332D02*
X9555164Y-15731856D01*
X9555164Y-15731856D02*
X9564687Y-15750903D01*
X9564687Y-15750903D02*
X9564687Y-15855665D01*
X9659925Y-15855665D02*
X9659925Y-15722332D01*
X9659925Y-15741379D02*
X9669449Y-15731856D01*
X9669449Y-15731856D02*
X9688497Y-15722332D01*
X9688497Y-15722332D02*
X9717068Y-15722332D01*
X9717068Y-15722332D02*
X9736116Y-15731856D01*
X9736116Y-15731856D02*
X9745640Y-15750903D01*
X9745640Y-15750903D02*
X9745640Y-15855665D01*
X9745640Y-15750903D02*
X9755164Y-15731856D01*
X9755164Y-15731856D02*
X9774211Y-15722332D01*
X9774211Y-15722332D02*
X9802783Y-15722332D01*
X9802783Y-15722332D02*
X9821830Y-15731856D01*
X9821830Y-15731856D02*
X9831354Y-15750903D01*
X9831354Y-15750903D02*
X9831354Y-15855665D01*
X10189449Y-15646141D02*
X10018021Y-15903284D01*
X10414211Y-15655665D02*
X10433259Y-15655665D01*
X10433259Y-15655665D02*
X10452306Y-15665189D01*
X10452306Y-15665189D02*
X10461830Y-15674713D01*
X10461830Y-15674713D02*
X10471354Y-15693760D01*
X10471354Y-15693760D02*
X10480878Y-15731856D01*
X10480878Y-15731856D02*
X10480878Y-15779475D01*
X10480878Y-15779475D02*
X10471354Y-15817570D01*
X10471354Y-15817570D02*
X10461830Y-15836617D01*
X10461830Y-15836617D02*
X10452306Y-15846141D01*
X10452306Y-15846141D02*
X10433259Y-15855665D01*
X10433259Y-15855665D02*
X10414211Y-15855665D01*
X10414211Y-15855665D02*
X10395164Y-15846141D01*
X10395164Y-15846141D02*
X10385640Y-15836617D01*
X10385640Y-15836617D02*
X10376116Y-15817570D01*
X10376116Y-15817570D02*
X10366592Y-15779475D01*
X10366592Y-15779475D02*
X10366592Y-15731856D01*
X10366592Y-15731856D02*
X10376116Y-15693760D01*
X10376116Y-15693760D02*
X10385640Y-15674713D01*
X10385640Y-15674713D02*
X10395164Y-15665189D01*
X10395164Y-15665189D02*
X10414211Y-15655665D01*
X10566592Y-15836617D02*
X10576116Y-15846141D01*
X10576116Y-15846141D02*
X10566592Y-15855665D01*
X10566592Y-15855665D02*
X10557068Y-15846141D01*
X10557068Y-15846141D02*
X10566592Y-15836617D01*
X10566592Y-15836617D02*
X10566592Y-15855665D01*
X10699925Y-15655665D02*
X10718973Y-15655665D01*
X10718973Y-15655665D02*
X10738021Y-15665189D01*
X10738021Y-15665189D02*
X10747545Y-15674713D01*
X10747545Y-15674713D02*
X10757068Y-15693760D01*
X10757068Y-15693760D02*
X10766592Y-15731856D01*
X10766592Y-15731856D02*
X10766592Y-15779475D01*
X10766592Y-15779475D02*
X10757068Y-15817570D01*
X10757068Y-15817570D02*
X10747545Y-15836617D01*
X10747545Y-15836617D02*
X10738021Y-15846141D01*
X10738021Y-15846141D02*
X10718973Y-15855665D01*
X10718973Y-15855665D02*
X10699925Y-15855665D01*
X10699925Y-15855665D02*
X10680878Y-15846141D01*
X10680878Y-15846141D02*
X10671354Y-15836617D01*
X10671354Y-15836617D02*
X10661830Y-15817570D01*
X10661830Y-15817570D02*
X10652306Y-15779475D01*
X10652306Y-15779475D02*
X10652306Y-15731856D01*
X10652306Y-15731856D02*
X10661830Y-15693760D01*
X10661830Y-15693760D02*
X10671354Y-15674713D01*
X10671354Y-15674713D02*
X10680878Y-15665189D01*
X10680878Y-15665189D02*
X10699925Y-15655665D01*
X10938021Y-15722332D02*
X10938021Y-15855665D01*
X10890402Y-15646141D02*
X10842783Y-15788998D01*
X10842783Y-15788998D02*
X10966592Y-15788998D01*
X11023735Y-15655665D02*
X11147545Y-15655665D01*
X11147545Y-15655665D02*
X11080878Y-15731856D01*
X11080878Y-15731856D02*
X11109449Y-15731856D01*
X11109449Y-15731856D02*
X11128497Y-15741379D01*
X11128497Y-15741379D02*
X11138021Y-15750903D01*
X11138021Y-15750903D02*
X11147545Y-15769951D01*
X11147545Y-15769951D02*
X11147545Y-15817570D01*
X11147545Y-15817570D02*
X11138021Y-15836617D01*
X11138021Y-15836617D02*
X11128497Y-15846141D01*
X11128497Y-15846141D02*
X11109449Y-15855665D01*
X11109449Y-15855665D02*
X11052306Y-15855665D01*
X11052306Y-15855665D02*
X11033259Y-15846141D01*
X11033259Y-15846141D02*
X11023735Y-15836617D01*
X11214211Y-15655665D02*
X11338021Y-15655665D01*
X11338021Y-15655665D02*
X11271354Y-15731856D01*
X11271354Y-15731856D02*
X11299925Y-15731856D01*
X11299925Y-15731856D02*
X11318973Y-15741379D01*
X11318973Y-15741379D02*
X11328497Y-15750903D01*
X11328497Y-15750903D02*
X11338021Y-15769951D01*
X11338021Y-15769951D02*
X11338021Y-15817570D01*
X11338021Y-15817570D02*
X11328497Y-15836617D01*
X11328497Y-15836617D02*
X11318973Y-15846141D01*
X11318973Y-15846141D02*
X11299925Y-15855665D01*
X11299925Y-15855665D02*
X11242783Y-15855665D01*
X11242783Y-15855665D02*
X11223735Y-15846141D01*
X11223735Y-15846141D02*
X11214211Y-15836617D01*
X11414211Y-15655665D02*
X11414211Y-15693760D01*
X11490402Y-15655665D02*
X11490402Y-15693760D01*
X11753259Y-15931856D02*
X11743735Y-15922332D01*
X11743735Y-15922332D02*
X11724687Y-15893760D01*
X11724687Y-15893760D02*
X11715164Y-15874713D01*
X11715164Y-15874713D02*
X11705640Y-15846141D01*
X11705640Y-15846141D02*
X11696116Y-15798522D01*
X11696116Y-15798522D02*
X11696116Y-15760427D01*
X11696116Y-15760427D02*
X11705640Y-15712808D01*
X11705640Y-15712808D02*
X11715164Y-15684237D01*
X11715164Y-15684237D02*
X11724687Y-15665189D01*
X11724687Y-15665189D02*
X11743735Y-15636617D01*
X11743735Y-15636617D02*
X11753259Y-15627094D01*
X11915164Y-15722332D02*
X11915164Y-15855665D01*
X11867544Y-15646141D02*
X11819925Y-15788998D01*
X11819925Y-15788998D02*
X11943735Y-15788998D01*
X12139925Y-15855665D02*
X12139925Y-15655665D01*
X12225640Y-15855665D02*
X12225640Y-15750903D01*
X12225640Y-15750903D02*
X12216116Y-15731856D01*
X12216116Y-15731856D02*
X12197068Y-15722332D01*
X12197068Y-15722332D02*
X12168497Y-15722332D01*
X12168497Y-15722332D02*
X12149449Y-15731856D01*
X12149449Y-15731856D02*
X12139925Y-15741379D01*
X12349449Y-15855665D02*
X12330402Y-15846141D01*
X12330402Y-15846141D02*
X12320878Y-15836617D01*
X12320878Y-15836617D02*
X12311354Y-15817570D01*
X12311354Y-15817570D02*
X12311354Y-15760427D01*
X12311354Y-15760427D02*
X12320878Y-15741379D01*
X12320878Y-15741379D02*
X12330402Y-15731856D01*
X12330402Y-15731856D02*
X12349449Y-15722332D01*
X12349449Y-15722332D02*
X12378021Y-15722332D01*
X12378021Y-15722332D02*
X12397068Y-15731856D01*
X12397068Y-15731856D02*
X12406592Y-15741379D01*
X12406592Y-15741379D02*
X12416116Y-15760427D01*
X12416116Y-15760427D02*
X12416116Y-15817570D01*
X12416116Y-15817570D02*
X12406592Y-15836617D01*
X12406592Y-15836617D02*
X12397068Y-15846141D01*
X12397068Y-15846141D02*
X12378021Y-15855665D01*
X12378021Y-15855665D02*
X12349449Y-15855665D01*
X12530402Y-15855665D02*
X12511354Y-15846141D01*
X12511354Y-15846141D02*
X12501830Y-15827094D01*
X12501830Y-15827094D02*
X12501830Y-15655665D01*
X12682783Y-15846141D02*
X12663735Y-15855665D01*
X12663735Y-15855665D02*
X12625640Y-15855665D01*
X12625640Y-15855665D02*
X12606592Y-15846141D01*
X12606592Y-15846141D02*
X12597068Y-15827094D01*
X12597068Y-15827094D02*
X12597068Y-15750903D01*
X12597068Y-15750903D02*
X12606592Y-15731856D01*
X12606592Y-15731856D02*
X12625640Y-15722332D01*
X12625640Y-15722332D02*
X12663735Y-15722332D01*
X12663735Y-15722332D02*
X12682783Y-15731856D01*
X12682783Y-15731856D02*
X12692306Y-15750903D01*
X12692306Y-15750903D02*
X12692306Y-15769951D01*
X12692306Y-15769951D02*
X12597068Y-15788998D01*
X12768497Y-15846141D02*
X12787545Y-15855665D01*
X12787545Y-15855665D02*
X12825640Y-15855665D01*
X12825640Y-15855665D02*
X12844687Y-15846141D01*
X12844687Y-15846141D02*
X12854211Y-15827094D01*
X12854211Y-15827094D02*
X12854211Y-15817570D01*
X12854211Y-15817570D02*
X12844687Y-15798522D01*
X12844687Y-15798522D02*
X12825640Y-15788998D01*
X12825640Y-15788998D02*
X12797068Y-15788998D01*
X12797068Y-15788998D02*
X12778021Y-15779475D01*
X12778021Y-15779475D02*
X12768497Y-15760427D01*
X12768497Y-15760427D02*
X12768497Y-15750903D01*
X12768497Y-15750903D02*
X12778021Y-15731856D01*
X12778021Y-15731856D02*
X12797068Y-15722332D01*
X12797068Y-15722332D02*
X12825640Y-15722332D01*
X12825640Y-15722332D02*
X12844687Y-15731856D01*
X12920878Y-15931856D02*
X12930402Y-15922332D01*
X12930402Y-15922332D02*
X12949449Y-15893760D01*
X12949449Y-15893760D02*
X12958973Y-15874713D01*
X12958973Y-15874713D02*
X12968497Y-15846141D01*
X12968497Y-15846141D02*
X12978021Y-15798522D01*
X12978021Y-15798522D02*
X12978021Y-15760427D01*
X12978021Y-15760427D02*
X12968497Y-15712808D01*
X12968497Y-15712808D02*
X12958973Y-15684237D01*
X12958973Y-15684237D02*
X12949449Y-15665189D01*
X12949449Y-15665189D02*
X12930402Y-15636617D01*
X12930402Y-15636617D02*
X12920878Y-15627094D01*
D15*
X8227497Y-16107189D02*
X8288497Y-16046189D01*
X8227497Y-15985189D01*
X8166497Y-16046189D01*
X8227497Y-16107189D01*
D11*
X8640878Y-16119665D02*
X8526592Y-16119665D01*
X8583735Y-16119665D02*
X8583735Y-15919665D01*
X8583735Y-15919665D02*
X8564687Y-15948237D01*
X8564687Y-15948237D02*
X8545640Y-15967284D01*
X8545640Y-15967284D02*
X8526592Y-15976808D01*
X8726592Y-16100617D02*
X8736116Y-16110141D01*
X8736116Y-16110141D02*
X8726592Y-16119665D01*
X8726592Y-16119665D02*
X8717068Y-16110141D01*
X8717068Y-16110141D02*
X8726592Y-16100617D01*
X8726592Y-16100617D02*
X8726592Y-16119665D01*
X8812306Y-15938713D02*
X8821830Y-15929189D01*
X8821830Y-15929189D02*
X8840878Y-15919665D01*
X8840878Y-15919665D02*
X8888497Y-15919665D01*
X8888497Y-15919665D02*
X8907544Y-15929189D01*
X8907544Y-15929189D02*
X8917068Y-15938713D01*
X8917068Y-15938713D02*
X8926592Y-15957760D01*
X8926592Y-15957760D02*
X8926592Y-15976808D01*
X8926592Y-15976808D02*
X8917068Y-16005379D01*
X8917068Y-16005379D02*
X8802783Y-16119665D01*
X8802783Y-16119665D02*
X8926592Y-16119665D01*
X9002783Y-15938713D02*
X9012306Y-15929189D01*
X9012306Y-15929189D02*
X9031354Y-15919665D01*
X9031354Y-15919665D02*
X9078973Y-15919665D01*
X9078973Y-15919665D02*
X9098021Y-15929189D01*
X9098021Y-15929189D02*
X9107544Y-15938713D01*
X9107544Y-15938713D02*
X9117068Y-15957760D01*
X9117068Y-15957760D02*
X9117068Y-15976808D01*
X9117068Y-15976808D02*
X9107544Y-16005379D01*
X9107544Y-16005379D02*
X8993259Y-16119665D01*
X8993259Y-16119665D02*
X9117068Y-16119665D01*
X9240878Y-15919665D02*
X9259925Y-15919665D01*
X9259925Y-15919665D02*
X9278973Y-15929189D01*
X9278973Y-15929189D02*
X9288497Y-15938713D01*
X9288497Y-15938713D02*
X9298021Y-15957760D01*
X9298021Y-15957760D02*
X9307544Y-15995856D01*
X9307544Y-15995856D02*
X9307544Y-16043475D01*
X9307544Y-16043475D02*
X9298021Y-16081570D01*
X9298021Y-16081570D02*
X9288497Y-16100617D01*
X9288497Y-16100617D02*
X9278973Y-16110141D01*
X9278973Y-16110141D02*
X9259925Y-16119665D01*
X9259925Y-16119665D02*
X9240878Y-16119665D01*
X9240878Y-16119665D02*
X9221830Y-16110141D01*
X9221830Y-16110141D02*
X9212306Y-16100617D01*
X9212306Y-16100617D02*
X9202783Y-16081570D01*
X9202783Y-16081570D02*
X9193259Y-16043475D01*
X9193259Y-16043475D02*
X9193259Y-15995856D01*
X9193259Y-15995856D02*
X9202783Y-15957760D01*
X9202783Y-15957760D02*
X9212306Y-15938713D01*
X9212306Y-15938713D02*
X9221830Y-15929189D01*
X9221830Y-15929189D02*
X9240878Y-15919665D01*
X9393259Y-16119665D02*
X9393259Y-15986332D01*
X9393259Y-16005379D02*
X9402783Y-15995856D01*
X9402783Y-15995856D02*
X9421830Y-15986332D01*
X9421830Y-15986332D02*
X9450402Y-15986332D01*
X9450402Y-15986332D02*
X9469449Y-15995856D01*
X9469449Y-15995856D02*
X9478973Y-16014903D01*
X9478973Y-16014903D02*
X9478973Y-16119665D01*
X9478973Y-16014903D02*
X9488497Y-15995856D01*
X9488497Y-15995856D02*
X9507544Y-15986332D01*
X9507544Y-15986332D02*
X9536116Y-15986332D01*
X9536116Y-15986332D02*
X9555164Y-15995856D01*
X9555164Y-15995856D02*
X9564687Y-16014903D01*
X9564687Y-16014903D02*
X9564687Y-16119665D01*
X9659925Y-16119665D02*
X9659925Y-15986332D01*
X9659925Y-16005379D02*
X9669449Y-15995856D01*
X9669449Y-15995856D02*
X9688497Y-15986332D01*
X9688497Y-15986332D02*
X9717068Y-15986332D01*
X9717068Y-15986332D02*
X9736116Y-15995856D01*
X9736116Y-15995856D02*
X9745640Y-16014903D01*
X9745640Y-16014903D02*
X9745640Y-16119665D01*
X9745640Y-16014903D02*
X9755164Y-15995856D01*
X9755164Y-15995856D02*
X9774211Y-15986332D01*
X9774211Y-15986332D02*
X9802783Y-15986332D01*
X9802783Y-15986332D02*
X9821830Y-15995856D01*
X9821830Y-15995856D02*
X9831354Y-16014903D01*
X9831354Y-16014903D02*
X9831354Y-16119665D01*
X10189449Y-15910141D02*
X10018021Y-16167284D01*
X10414211Y-15919665D02*
X10433259Y-15919665D01*
X10433259Y-15919665D02*
X10452306Y-15929189D01*
X10452306Y-15929189D02*
X10461830Y-15938713D01*
X10461830Y-15938713D02*
X10471354Y-15957760D01*
X10471354Y-15957760D02*
X10480878Y-15995856D01*
X10480878Y-15995856D02*
X10480878Y-16043475D01*
X10480878Y-16043475D02*
X10471354Y-16081570D01*
X10471354Y-16081570D02*
X10461830Y-16100617D01*
X10461830Y-16100617D02*
X10452306Y-16110141D01*
X10452306Y-16110141D02*
X10433259Y-16119665D01*
X10433259Y-16119665D02*
X10414211Y-16119665D01*
X10414211Y-16119665D02*
X10395164Y-16110141D01*
X10395164Y-16110141D02*
X10385640Y-16100617D01*
X10385640Y-16100617D02*
X10376116Y-16081570D01*
X10376116Y-16081570D02*
X10366592Y-16043475D01*
X10366592Y-16043475D02*
X10366592Y-15995856D01*
X10366592Y-15995856D02*
X10376116Y-15957760D01*
X10376116Y-15957760D02*
X10385640Y-15938713D01*
X10385640Y-15938713D02*
X10395164Y-15929189D01*
X10395164Y-15929189D02*
X10414211Y-15919665D01*
X10566592Y-16100617D02*
X10576116Y-16110141D01*
X10576116Y-16110141D02*
X10566592Y-16119665D01*
X10566592Y-16119665D02*
X10557068Y-16110141D01*
X10557068Y-16110141D02*
X10566592Y-16100617D01*
X10566592Y-16100617D02*
X10566592Y-16119665D01*
X10699925Y-15919665D02*
X10718973Y-15919665D01*
X10718973Y-15919665D02*
X10738021Y-15929189D01*
X10738021Y-15929189D02*
X10747545Y-15938713D01*
X10747545Y-15938713D02*
X10757068Y-15957760D01*
X10757068Y-15957760D02*
X10766592Y-15995856D01*
X10766592Y-15995856D02*
X10766592Y-16043475D01*
X10766592Y-16043475D02*
X10757068Y-16081570D01*
X10757068Y-16081570D02*
X10747545Y-16100617D01*
X10747545Y-16100617D02*
X10738021Y-16110141D01*
X10738021Y-16110141D02*
X10718973Y-16119665D01*
X10718973Y-16119665D02*
X10699925Y-16119665D01*
X10699925Y-16119665D02*
X10680878Y-16110141D01*
X10680878Y-16110141D02*
X10671354Y-16100617D01*
X10671354Y-16100617D02*
X10661830Y-16081570D01*
X10661830Y-16081570D02*
X10652306Y-16043475D01*
X10652306Y-16043475D02*
X10652306Y-15995856D01*
X10652306Y-15995856D02*
X10661830Y-15957760D01*
X10661830Y-15957760D02*
X10671354Y-15938713D01*
X10671354Y-15938713D02*
X10680878Y-15929189D01*
X10680878Y-15929189D02*
X10699925Y-15919665D01*
X10938021Y-15986332D02*
X10938021Y-16119665D01*
X10890402Y-15910141D02*
X10842783Y-16052998D01*
X10842783Y-16052998D02*
X10966592Y-16052998D01*
X11071354Y-16005379D02*
X11052306Y-15995856D01*
X11052306Y-15995856D02*
X11042783Y-15986332D01*
X11042783Y-15986332D02*
X11033259Y-15967284D01*
X11033259Y-15967284D02*
X11033259Y-15957760D01*
X11033259Y-15957760D02*
X11042783Y-15938713D01*
X11042783Y-15938713D02*
X11052306Y-15929189D01*
X11052306Y-15929189D02*
X11071354Y-15919665D01*
X11071354Y-15919665D02*
X11109449Y-15919665D01*
X11109449Y-15919665D02*
X11128497Y-15929189D01*
X11128497Y-15929189D02*
X11138021Y-15938713D01*
X11138021Y-15938713D02*
X11147545Y-15957760D01*
X11147545Y-15957760D02*
X11147545Y-15967284D01*
X11147545Y-15967284D02*
X11138021Y-15986332D01*
X11138021Y-15986332D02*
X11128497Y-15995856D01*
X11128497Y-15995856D02*
X11109449Y-16005379D01*
X11109449Y-16005379D02*
X11071354Y-16005379D01*
X11071354Y-16005379D02*
X11052306Y-16014903D01*
X11052306Y-16014903D02*
X11042783Y-16024427D01*
X11042783Y-16024427D02*
X11033259Y-16043475D01*
X11033259Y-16043475D02*
X11033259Y-16081570D01*
X11033259Y-16081570D02*
X11042783Y-16100617D01*
X11042783Y-16100617D02*
X11052306Y-16110141D01*
X11052306Y-16110141D02*
X11071354Y-16119665D01*
X11071354Y-16119665D02*
X11109449Y-16119665D01*
X11109449Y-16119665D02*
X11128497Y-16110141D01*
X11128497Y-16110141D02*
X11138021Y-16100617D01*
X11138021Y-16100617D02*
X11147545Y-16081570D01*
X11147545Y-16081570D02*
X11147545Y-16043475D01*
X11147545Y-16043475D02*
X11138021Y-16024427D01*
X11138021Y-16024427D02*
X11128497Y-16014903D01*
X11128497Y-16014903D02*
X11109449Y-16005379D01*
X11271354Y-15919665D02*
X11290402Y-15919665D01*
X11290402Y-15919665D02*
X11309449Y-15929189D01*
X11309449Y-15929189D02*
X11318973Y-15938713D01*
X11318973Y-15938713D02*
X11328497Y-15957760D01*
X11328497Y-15957760D02*
X11338021Y-15995856D01*
X11338021Y-15995856D02*
X11338021Y-16043475D01*
X11338021Y-16043475D02*
X11328497Y-16081570D01*
X11328497Y-16081570D02*
X11318973Y-16100617D01*
X11318973Y-16100617D02*
X11309449Y-16110141D01*
X11309449Y-16110141D02*
X11290402Y-16119665D01*
X11290402Y-16119665D02*
X11271354Y-16119665D01*
X11271354Y-16119665D02*
X11252306Y-16110141D01*
X11252306Y-16110141D02*
X11242783Y-16100617D01*
X11242783Y-16100617D02*
X11233259Y-16081570D01*
X11233259Y-16081570D02*
X11223735Y-16043475D01*
X11223735Y-16043475D02*
X11223735Y-15995856D01*
X11223735Y-15995856D02*
X11233259Y-15957760D01*
X11233259Y-15957760D02*
X11242783Y-15938713D01*
X11242783Y-15938713D02*
X11252306Y-15929189D01*
X11252306Y-15929189D02*
X11271354Y-15919665D01*
X11414211Y-15919665D02*
X11414211Y-15957760D01*
X11490402Y-15919665D02*
X11490402Y-15957760D01*
X11753259Y-16195856D02*
X11743735Y-16186332D01*
X11743735Y-16186332D02*
X11724687Y-16157760D01*
X11724687Y-16157760D02*
X11715164Y-16138713D01*
X11715164Y-16138713D02*
X11705640Y-16110141D01*
X11705640Y-16110141D02*
X11696116Y-16062522D01*
X11696116Y-16062522D02*
X11696116Y-16024427D01*
X11696116Y-16024427D02*
X11705640Y-15976808D01*
X11705640Y-15976808D02*
X11715164Y-15948237D01*
X11715164Y-15948237D02*
X11724687Y-15929189D01*
X11724687Y-15929189D02*
X11743735Y-15900617D01*
X11743735Y-15900617D02*
X11753259Y-15891094D01*
X11915164Y-15986332D02*
X11915164Y-16119665D01*
X11867544Y-15910141D02*
X11819925Y-16052998D01*
X11819925Y-16052998D02*
X11943735Y-16052998D01*
X12139925Y-16119665D02*
X12139925Y-15919665D01*
X12225640Y-16119665D02*
X12225640Y-16014903D01*
X12225640Y-16014903D02*
X12216116Y-15995856D01*
X12216116Y-15995856D02*
X12197068Y-15986332D01*
X12197068Y-15986332D02*
X12168497Y-15986332D01*
X12168497Y-15986332D02*
X12149449Y-15995856D01*
X12149449Y-15995856D02*
X12139925Y-16005379D01*
X12349449Y-16119665D02*
X12330402Y-16110141D01*
X12330402Y-16110141D02*
X12320878Y-16100617D01*
X12320878Y-16100617D02*
X12311354Y-16081570D01*
X12311354Y-16081570D02*
X12311354Y-16024427D01*
X12311354Y-16024427D02*
X12320878Y-16005379D01*
X12320878Y-16005379D02*
X12330402Y-15995856D01*
X12330402Y-15995856D02*
X12349449Y-15986332D01*
X12349449Y-15986332D02*
X12378021Y-15986332D01*
X12378021Y-15986332D02*
X12397068Y-15995856D01*
X12397068Y-15995856D02*
X12406592Y-16005379D01*
X12406592Y-16005379D02*
X12416116Y-16024427D01*
X12416116Y-16024427D02*
X12416116Y-16081570D01*
X12416116Y-16081570D02*
X12406592Y-16100617D01*
X12406592Y-16100617D02*
X12397068Y-16110141D01*
X12397068Y-16110141D02*
X12378021Y-16119665D01*
X12378021Y-16119665D02*
X12349449Y-16119665D01*
X12530402Y-16119665D02*
X12511354Y-16110141D01*
X12511354Y-16110141D02*
X12501830Y-16091094D01*
X12501830Y-16091094D02*
X12501830Y-15919665D01*
X12682783Y-16110141D02*
X12663735Y-16119665D01*
X12663735Y-16119665D02*
X12625640Y-16119665D01*
X12625640Y-16119665D02*
X12606592Y-16110141D01*
X12606592Y-16110141D02*
X12597068Y-16091094D01*
X12597068Y-16091094D02*
X12597068Y-16014903D01*
X12597068Y-16014903D02*
X12606592Y-15995856D01*
X12606592Y-15995856D02*
X12625640Y-15986332D01*
X12625640Y-15986332D02*
X12663735Y-15986332D01*
X12663735Y-15986332D02*
X12682783Y-15995856D01*
X12682783Y-15995856D02*
X12692306Y-16014903D01*
X12692306Y-16014903D02*
X12692306Y-16033951D01*
X12692306Y-16033951D02*
X12597068Y-16052998D01*
X12768497Y-16110141D02*
X12787545Y-16119665D01*
X12787545Y-16119665D02*
X12825640Y-16119665D01*
X12825640Y-16119665D02*
X12844687Y-16110141D01*
X12844687Y-16110141D02*
X12854211Y-16091094D01*
X12854211Y-16091094D02*
X12854211Y-16081570D01*
X12854211Y-16081570D02*
X12844687Y-16062522D01*
X12844687Y-16062522D02*
X12825640Y-16052998D01*
X12825640Y-16052998D02*
X12797068Y-16052998D01*
X12797068Y-16052998D02*
X12778021Y-16043475D01*
X12778021Y-16043475D02*
X12768497Y-16024427D01*
X12768497Y-16024427D02*
X12768497Y-16014903D01*
X12768497Y-16014903D02*
X12778021Y-15995856D01*
X12778021Y-15995856D02*
X12797068Y-15986332D01*
X12797068Y-15986332D02*
X12825640Y-15986332D01*
X12825640Y-15986332D02*
X12844687Y-15995856D01*
X12920878Y-16195856D02*
X12930402Y-16186332D01*
X12930402Y-16186332D02*
X12949449Y-16157760D01*
X12949449Y-16157760D02*
X12958973Y-16138713D01*
X12958973Y-16138713D02*
X12968497Y-16110141D01*
X12968497Y-16110141D02*
X12978021Y-16062522D01*
X12978021Y-16062522D02*
X12978021Y-16024427D01*
X12978021Y-16024427D02*
X12968497Y-15976808D01*
X12968497Y-15976808D02*
X12958973Y-15948237D01*
X12958973Y-15948237D02*
X12949449Y-15929189D01*
X12949449Y-15929189D02*
X12930402Y-15900617D01*
X12930402Y-15900617D02*
X12920878Y-15891094D01*
D16*
X8146497Y-16239189D02*
X8288497Y-16381189D01*
X8288497Y-16239189D02*
X8146497Y-16381189D01*
X8288497Y-16310189D02*
G75*
G03*
X8288497Y-16310189I-71000J0D01*
G01*
D11*
X8640878Y-16383665D02*
X8526592Y-16383665D01*
X8583735Y-16383665D02*
X8583735Y-16183665D01*
X8583735Y-16183665D02*
X8564687Y-16212237D01*
X8564687Y-16212237D02*
X8545640Y-16231284D01*
X8545640Y-16231284D02*
X8526592Y-16240808D01*
X8726592Y-16364617D02*
X8736116Y-16374141D01*
X8736116Y-16374141D02*
X8726592Y-16383665D01*
X8726592Y-16383665D02*
X8717068Y-16374141D01*
X8717068Y-16374141D02*
X8726592Y-16364617D01*
X8726592Y-16364617D02*
X8726592Y-16383665D01*
X8907544Y-16250332D02*
X8907544Y-16383665D01*
X8859925Y-16174141D02*
X8812306Y-16316998D01*
X8812306Y-16316998D02*
X8936116Y-16316998D01*
X9002783Y-16202713D02*
X9012306Y-16193189D01*
X9012306Y-16193189D02*
X9031354Y-16183665D01*
X9031354Y-16183665D02*
X9078973Y-16183665D01*
X9078973Y-16183665D02*
X9098021Y-16193189D01*
X9098021Y-16193189D02*
X9107544Y-16202713D01*
X9107544Y-16202713D02*
X9117068Y-16221760D01*
X9117068Y-16221760D02*
X9117068Y-16240808D01*
X9117068Y-16240808D02*
X9107544Y-16269379D01*
X9107544Y-16269379D02*
X8993259Y-16383665D01*
X8993259Y-16383665D02*
X9117068Y-16383665D01*
X9240878Y-16183665D02*
X9259925Y-16183665D01*
X9259925Y-16183665D02*
X9278973Y-16193189D01*
X9278973Y-16193189D02*
X9288497Y-16202713D01*
X9288497Y-16202713D02*
X9298021Y-16221760D01*
X9298021Y-16221760D02*
X9307544Y-16259856D01*
X9307544Y-16259856D02*
X9307544Y-16307475D01*
X9307544Y-16307475D02*
X9298021Y-16345570D01*
X9298021Y-16345570D02*
X9288497Y-16364617D01*
X9288497Y-16364617D02*
X9278973Y-16374141D01*
X9278973Y-16374141D02*
X9259925Y-16383665D01*
X9259925Y-16383665D02*
X9240878Y-16383665D01*
X9240878Y-16383665D02*
X9221830Y-16374141D01*
X9221830Y-16374141D02*
X9212306Y-16364617D01*
X9212306Y-16364617D02*
X9202783Y-16345570D01*
X9202783Y-16345570D02*
X9193259Y-16307475D01*
X9193259Y-16307475D02*
X9193259Y-16259856D01*
X9193259Y-16259856D02*
X9202783Y-16221760D01*
X9202783Y-16221760D02*
X9212306Y-16202713D01*
X9212306Y-16202713D02*
X9221830Y-16193189D01*
X9221830Y-16193189D02*
X9240878Y-16183665D01*
X9393259Y-16383665D02*
X9393259Y-16250332D01*
X9393259Y-16269379D02*
X9402783Y-16259856D01*
X9402783Y-16259856D02*
X9421830Y-16250332D01*
X9421830Y-16250332D02*
X9450402Y-16250332D01*
X9450402Y-16250332D02*
X9469449Y-16259856D01*
X9469449Y-16259856D02*
X9478973Y-16278903D01*
X9478973Y-16278903D02*
X9478973Y-16383665D01*
X9478973Y-16278903D02*
X9488497Y-16259856D01*
X9488497Y-16259856D02*
X9507544Y-16250332D01*
X9507544Y-16250332D02*
X9536116Y-16250332D01*
X9536116Y-16250332D02*
X9555164Y-16259856D01*
X9555164Y-16259856D02*
X9564687Y-16278903D01*
X9564687Y-16278903D02*
X9564687Y-16383665D01*
X9659925Y-16383665D02*
X9659925Y-16250332D01*
X9659925Y-16269379D02*
X9669449Y-16259856D01*
X9669449Y-16259856D02*
X9688497Y-16250332D01*
X9688497Y-16250332D02*
X9717068Y-16250332D01*
X9717068Y-16250332D02*
X9736116Y-16259856D01*
X9736116Y-16259856D02*
X9745640Y-16278903D01*
X9745640Y-16278903D02*
X9745640Y-16383665D01*
X9745640Y-16278903D02*
X9755164Y-16259856D01*
X9755164Y-16259856D02*
X9774211Y-16250332D01*
X9774211Y-16250332D02*
X9802783Y-16250332D01*
X9802783Y-16250332D02*
X9821830Y-16259856D01*
X9821830Y-16259856D02*
X9831354Y-16278903D01*
X9831354Y-16278903D02*
X9831354Y-16383665D01*
X10189449Y-16174141D02*
X10018021Y-16431284D01*
X10414211Y-16183665D02*
X10433259Y-16183665D01*
X10433259Y-16183665D02*
X10452306Y-16193189D01*
X10452306Y-16193189D02*
X10461830Y-16202713D01*
X10461830Y-16202713D02*
X10471354Y-16221760D01*
X10471354Y-16221760D02*
X10480878Y-16259856D01*
X10480878Y-16259856D02*
X10480878Y-16307475D01*
X10480878Y-16307475D02*
X10471354Y-16345570D01*
X10471354Y-16345570D02*
X10461830Y-16364617D01*
X10461830Y-16364617D02*
X10452306Y-16374141D01*
X10452306Y-16374141D02*
X10433259Y-16383665D01*
X10433259Y-16383665D02*
X10414211Y-16383665D01*
X10414211Y-16383665D02*
X10395164Y-16374141D01*
X10395164Y-16374141D02*
X10385640Y-16364617D01*
X10385640Y-16364617D02*
X10376116Y-16345570D01*
X10376116Y-16345570D02*
X10366592Y-16307475D01*
X10366592Y-16307475D02*
X10366592Y-16259856D01*
X10366592Y-16259856D02*
X10376116Y-16221760D01*
X10376116Y-16221760D02*
X10385640Y-16202713D01*
X10385640Y-16202713D02*
X10395164Y-16193189D01*
X10395164Y-16193189D02*
X10414211Y-16183665D01*
X10566592Y-16364617D02*
X10576116Y-16374141D01*
X10576116Y-16374141D02*
X10566592Y-16383665D01*
X10566592Y-16383665D02*
X10557068Y-16374141D01*
X10557068Y-16374141D02*
X10566592Y-16364617D01*
X10566592Y-16364617D02*
X10566592Y-16383665D01*
X10699925Y-16183665D02*
X10718973Y-16183665D01*
X10718973Y-16183665D02*
X10738021Y-16193189D01*
X10738021Y-16193189D02*
X10747545Y-16202713D01*
X10747545Y-16202713D02*
X10757068Y-16221760D01*
X10757068Y-16221760D02*
X10766592Y-16259856D01*
X10766592Y-16259856D02*
X10766592Y-16307475D01*
X10766592Y-16307475D02*
X10757068Y-16345570D01*
X10757068Y-16345570D02*
X10747545Y-16364617D01*
X10747545Y-16364617D02*
X10738021Y-16374141D01*
X10738021Y-16374141D02*
X10718973Y-16383665D01*
X10718973Y-16383665D02*
X10699925Y-16383665D01*
X10699925Y-16383665D02*
X10680878Y-16374141D01*
X10680878Y-16374141D02*
X10671354Y-16364617D01*
X10671354Y-16364617D02*
X10661830Y-16345570D01*
X10661830Y-16345570D02*
X10652306Y-16307475D01*
X10652306Y-16307475D02*
X10652306Y-16259856D01*
X10652306Y-16259856D02*
X10661830Y-16221760D01*
X10661830Y-16221760D02*
X10671354Y-16202713D01*
X10671354Y-16202713D02*
X10680878Y-16193189D01*
X10680878Y-16193189D02*
X10699925Y-16183665D01*
X10947545Y-16183665D02*
X10852306Y-16183665D01*
X10852306Y-16183665D02*
X10842783Y-16278903D01*
X10842783Y-16278903D02*
X10852306Y-16269379D01*
X10852306Y-16269379D02*
X10871354Y-16259856D01*
X10871354Y-16259856D02*
X10918973Y-16259856D01*
X10918973Y-16259856D02*
X10938021Y-16269379D01*
X10938021Y-16269379D02*
X10947545Y-16278903D01*
X10947545Y-16278903D02*
X10957068Y-16297951D01*
X10957068Y-16297951D02*
X10957068Y-16345570D01*
X10957068Y-16345570D02*
X10947545Y-16364617D01*
X10947545Y-16364617D02*
X10938021Y-16374141D01*
X10938021Y-16374141D02*
X10918973Y-16383665D01*
X10918973Y-16383665D02*
X10871354Y-16383665D01*
X10871354Y-16383665D02*
X10852306Y-16374141D01*
X10852306Y-16374141D02*
X10842783Y-16364617D01*
X11138021Y-16183665D02*
X11042783Y-16183665D01*
X11042783Y-16183665D02*
X11033259Y-16278903D01*
X11033259Y-16278903D02*
X11042783Y-16269379D01*
X11042783Y-16269379D02*
X11061830Y-16259856D01*
X11061830Y-16259856D02*
X11109449Y-16259856D01*
X11109449Y-16259856D02*
X11128497Y-16269379D01*
X11128497Y-16269379D02*
X11138021Y-16278903D01*
X11138021Y-16278903D02*
X11147545Y-16297951D01*
X11147545Y-16297951D02*
X11147545Y-16345570D01*
X11147545Y-16345570D02*
X11138021Y-16364617D01*
X11138021Y-16364617D02*
X11128497Y-16374141D01*
X11128497Y-16374141D02*
X11109449Y-16383665D01*
X11109449Y-16383665D02*
X11061830Y-16383665D01*
X11061830Y-16383665D02*
X11042783Y-16374141D01*
X11042783Y-16374141D02*
X11033259Y-16364617D01*
X11242783Y-16383665D02*
X11280878Y-16383665D01*
X11280878Y-16383665D02*
X11299925Y-16374141D01*
X11299925Y-16374141D02*
X11309449Y-16364617D01*
X11309449Y-16364617D02*
X11328497Y-16336046D01*
X11328497Y-16336046D02*
X11338021Y-16297951D01*
X11338021Y-16297951D02*
X11338021Y-16221760D01*
X11338021Y-16221760D02*
X11328497Y-16202713D01*
X11328497Y-16202713D02*
X11318973Y-16193189D01*
X11318973Y-16193189D02*
X11299925Y-16183665D01*
X11299925Y-16183665D02*
X11261830Y-16183665D01*
X11261830Y-16183665D02*
X11242783Y-16193189D01*
X11242783Y-16193189D02*
X11233259Y-16202713D01*
X11233259Y-16202713D02*
X11223735Y-16221760D01*
X11223735Y-16221760D02*
X11223735Y-16269379D01*
X11223735Y-16269379D02*
X11233259Y-16288427D01*
X11233259Y-16288427D02*
X11242783Y-16297951D01*
X11242783Y-16297951D02*
X11261830Y-16307475D01*
X11261830Y-16307475D02*
X11299925Y-16307475D01*
X11299925Y-16307475D02*
X11318973Y-16297951D01*
X11318973Y-16297951D02*
X11328497Y-16288427D01*
X11328497Y-16288427D02*
X11338021Y-16269379D01*
X11414211Y-16183665D02*
X11414211Y-16221760D01*
X11490402Y-16183665D02*
X11490402Y-16221760D01*
X11753259Y-16459856D02*
X11743735Y-16450332D01*
X11743735Y-16450332D02*
X11724687Y-16421760D01*
X11724687Y-16421760D02*
X11715164Y-16402713D01*
X11715164Y-16402713D02*
X11705640Y-16374141D01*
X11705640Y-16374141D02*
X11696116Y-16326522D01*
X11696116Y-16326522D02*
X11696116Y-16288427D01*
X11696116Y-16288427D02*
X11705640Y-16240808D01*
X11705640Y-16240808D02*
X11715164Y-16212237D01*
X11715164Y-16212237D02*
X11724687Y-16193189D01*
X11724687Y-16193189D02*
X11743735Y-16164617D01*
X11743735Y-16164617D02*
X11753259Y-16155094D01*
X11915164Y-16250332D02*
X11915164Y-16383665D01*
X11867544Y-16174141D02*
X11819925Y-16316998D01*
X11819925Y-16316998D02*
X11943735Y-16316998D01*
X12139925Y-16383665D02*
X12139925Y-16183665D01*
X12225640Y-16383665D02*
X12225640Y-16278903D01*
X12225640Y-16278903D02*
X12216116Y-16259856D01*
X12216116Y-16259856D02*
X12197068Y-16250332D01*
X12197068Y-16250332D02*
X12168497Y-16250332D01*
X12168497Y-16250332D02*
X12149449Y-16259856D01*
X12149449Y-16259856D02*
X12139925Y-16269379D01*
X12349449Y-16383665D02*
X12330402Y-16374141D01*
X12330402Y-16374141D02*
X12320878Y-16364617D01*
X12320878Y-16364617D02*
X12311354Y-16345570D01*
X12311354Y-16345570D02*
X12311354Y-16288427D01*
X12311354Y-16288427D02*
X12320878Y-16269379D01*
X12320878Y-16269379D02*
X12330402Y-16259856D01*
X12330402Y-16259856D02*
X12349449Y-16250332D01*
X12349449Y-16250332D02*
X12378021Y-16250332D01*
X12378021Y-16250332D02*
X12397068Y-16259856D01*
X12397068Y-16259856D02*
X12406592Y-16269379D01*
X12406592Y-16269379D02*
X12416116Y-16288427D01*
X12416116Y-16288427D02*
X12416116Y-16345570D01*
X12416116Y-16345570D02*
X12406592Y-16364617D01*
X12406592Y-16364617D02*
X12397068Y-16374141D01*
X12397068Y-16374141D02*
X12378021Y-16383665D01*
X12378021Y-16383665D02*
X12349449Y-16383665D01*
X12530402Y-16383665D02*
X12511354Y-16374141D01*
X12511354Y-16374141D02*
X12501830Y-16355094D01*
X12501830Y-16355094D02*
X12501830Y-16183665D01*
X12682783Y-16374141D02*
X12663735Y-16383665D01*
X12663735Y-16383665D02*
X12625640Y-16383665D01*
X12625640Y-16383665D02*
X12606592Y-16374141D01*
X12606592Y-16374141D02*
X12597068Y-16355094D01*
X12597068Y-16355094D02*
X12597068Y-16278903D01*
X12597068Y-16278903D02*
X12606592Y-16259856D01*
X12606592Y-16259856D02*
X12625640Y-16250332D01*
X12625640Y-16250332D02*
X12663735Y-16250332D01*
X12663735Y-16250332D02*
X12682783Y-16259856D01*
X12682783Y-16259856D02*
X12692306Y-16278903D01*
X12692306Y-16278903D02*
X12692306Y-16297951D01*
X12692306Y-16297951D02*
X12597068Y-16316998D01*
X12768497Y-16374141D02*
X12787545Y-16383665D01*
X12787545Y-16383665D02*
X12825640Y-16383665D01*
X12825640Y-16383665D02*
X12844687Y-16374141D01*
X12844687Y-16374141D02*
X12854211Y-16355094D01*
X12854211Y-16355094D02*
X12854211Y-16345570D01*
X12854211Y-16345570D02*
X12844687Y-16326522D01*
X12844687Y-16326522D02*
X12825640Y-16316998D01*
X12825640Y-16316998D02*
X12797068Y-16316998D01*
X12797068Y-16316998D02*
X12778021Y-16307475D01*
X12778021Y-16307475D02*
X12768497Y-16288427D01*
X12768497Y-16288427D02*
X12768497Y-16278903D01*
X12768497Y-16278903D02*
X12778021Y-16259856D01*
X12778021Y-16259856D02*
X12797068Y-16250332D01*
X12797068Y-16250332D02*
X12825640Y-16250332D01*
X12825640Y-16250332D02*
X12844687Y-16259856D01*
X12920878Y-16459856D02*
X12930402Y-16450332D01*
X12930402Y-16450332D02*
X12949449Y-16421760D01*
X12949449Y-16421760D02*
X12958973Y-16402713D01*
X12958973Y-16402713D02*
X12968497Y-16374141D01*
X12968497Y-16374141D02*
X12978021Y-16326522D01*
X12978021Y-16326522D02*
X12978021Y-16288427D01*
X12978021Y-16288427D02*
X12968497Y-16240808D01*
X12968497Y-16240808D02*
X12958973Y-16212237D01*
X12958973Y-16212237D02*
X12949449Y-16193189D01*
X12949449Y-16193189D02*
X12930402Y-16164617D01*
X12930402Y-16164617D02*
X12920878Y-16155094D01*
D17*
X8145497Y-16502689D02*
X8288497Y-16645689D01*
X8288497Y-16502689D02*
X8145497Y-16645689D01*
X8216997Y-16502689D02*
X8216997Y-16645689D01*
X8145497Y-16574189D02*
X8288497Y-16574189D01*
D11*
X8640878Y-16647665D02*
X8526592Y-16647665D01*
X8583735Y-16647665D02*
X8583735Y-16447665D01*
X8583735Y-16447665D02*
X8564687Y-16476237D01*
X8564687Y-16476237D02*
X8545640Y-16495284D01*
X8545640Y-16495284D02*
X8526592Y-16504808D01*
X8726592Y-16628617D02*
X8736116Y-16638141D01*
X8736116Y-16638141D02*
X8726592Y-16647665D01*
X8726592Y-16647665D02*
X8717068Y-16638141D01*
X8717068Y-16638141D02*
X8726592Y-16628617D01*
X8726592Y-16628617D02*
X8726592Y-16647665D01*
X8907544Y-16514332D02*
X8907544Y-16647665D01*
X8859925Y-16438141D02*
X8812306Y-16580998D01*
X8812306Y-16580998D02*
X8936116Y-16580998D01*
X8993259Y-16447665D02*
X9117068Y-16447665D01*
X9117068Y-16447665D02*
X9050402Y-16523856D01*
X9050402Y-16523856D02*
X9078973Y-16523856D01*
X9078973Y-16523856D02*
X9098021Y-16533379D01*
X9098021Y-16533379D02*
X9107544Y-16542903D01*
X9107544Y-16542903D02*
X9117068Y-16561951D01*
X9117068Y-16561951D02*
X9117068Y-16609570D01*
X9117068Y-16609570D02*
X9107544Y-16628617D01*
X9107544Y-16628617D02*
X9098021Y-16638141D01*
X9098021Y-16638141D02*
X9078973Y-16647665D01*
X9078973Y-16647665D02*
X9021830Y-16647665D01*
X9021830Y-16647665D02*
X9002783Y-16638141D01*
X9002783Y-16638141D02*
X8993259Y-16628617D01*
X9240878Y-16447665D02*
X9259925Y-16447665D01*
X9259925Y-16447665D02*
X9278973Y-16457189D01*
X9278973Y-16457189D02*
X9288497Y-16466713D01*
X9288497Y-16466713D02*
X9298021Y-16485760D01*
X9298021Y-16485760D02*
X9307544Y-16523856D01*
X9307544Y-16523856D02*
X9307544Y-16571475D01*
X9307544Y-16571475D02*
X9298021Y-16609570D01*
X9298021Y-16609570D02*
X9288497Y-16628617D01*
X9288497Y-16628617D02*
X9278973Y-16638141D01*
X9278973Y-16638141D02*
X9259925Y-16647665D01*
X9259925Y-16647665D02*
X9240878Y-16647665D01*
X9240878Y-16647665D02*
X9221830Y-16638141D01*
X9221830Y-16638141D02*
X9212306Y-16628617D01*
X9212306Y-16628617D02*
X9202783Y-16609570D01*
X9202783Y-16609570D02*
X9193259Y-16571475D01*
X9193259Y-16571475D02*
X9193259Y-16523856D01*
X9193259Y-16523856D02*
X9202783Y-16485760D01*
X9202783Y-16485760D02*
X9212306Y-16466713D01*
X9212306Y-16466713D02*
X9221830Y-16457189D01*
X9221830Y-16457189D02*
X9240878Y-16447665D01*
X9393259Y-16647665D02*
X9393259Y-16514332D01*
X9393259Y-16533379D02*
X9402783Y-16523856D01*
X9402783Y-16523856D02*
X9421830Y-16514332D01*
X9421830Y-16514332D02*
X9450402Y-16514332D01*
X9450402Y-16514332D02*
X9469449Y-16523856D01*
X9469449Y-16523856D02*
X9478973Y-16542903D01*
X9478973Y-16542903D02*
X9478973Y-16647665D01*
X9478973Y-16542903D02*
X9488497Y-16523856D01*
X9488497Y-16523856D02*
X9507544Y-16514332D01*
X9507544Y-16514332D02*
X9536116Y-16514332D01*
X9536116Y-16514332D02*
X9555164Y-16523856D01*
X9555164Y-16523856D02*
X9564687Y-16542903D01*
X9564687Y-16542903D02*
X9564687Y-16647665D01*
X9659925Y-16647665D02*
X9659925Y-16514332D01*
X9659925Y-16533379D02*
X9669449Y-16523856D01*
X9669449Y-16523856D02*
X9688497Y-16514332D01*
X9688497Y-16514332D02*
X9717068Y-16514332D01*
X9717068Y-16514332D02*
X9736116Y-16523856D01*
X9736116Y-16523856D02*
X9745640Y-16542903D01*
X9745640Y-16542903D02*
X9745640Y-16647665D01*
X9745640Y-16542903D02*
X9755164Y-16523856D01*
X9755164Y-16523856D02*
X9774211Y-16514332D01*
X9774211Y-16514332D02*
X9802783Y-16514332D01*
X9802783Y-16514332D02*
X9821830Y-16523856D01*
X9821830Y-16523856D02*
X9831354Y-16542903D01*
X9831354Y-16542903D02*
X9831354Y-16647665D01*
X10189449Y-16438141D02*
X10018021Y-16695284D01*
X10414211Y-16447665D02*
X10433259Y-16447665D01*
X10433259Y-16447665D02*
X10452306Y-16457189D01*
X10452306Y-16457189D02*
X10461830Y-16466713D01*
X10461830Y-16466713D02*
X10471354Y-16485760D01*
X10471354Y-16485760D02*
X10480878Y-16523856D01*
X10480878Y-16523856D02*
X10480878Y-16571475D01*
X10480878Y-16571475D02*
X10471354Y-16609570D01*
X10471354Y-16609570D02*
X10461830Y-16628617D01*
X10461830Y-16628617D02*
X10452306Y-16638141D01*
X10452306Y-16638141D02*
X10433259Y-16647665D01*
X10433259Y-16647665D02*
X10414211Y-16647665D01*
X10414211Y-16647665D02*
X10395164Y-16638141D01*
X10395164Y-16638141D02*
X10385640Y-16628617D01*
X10385640Y-16628617D02*
X10376116Y-16609570D01*
X10376116Y-16609570D02*
X10366592Y-16571475D01*
X10366592Y-16571475D02*
X10366592Y-16523856D01*
X10366592Y-16523856D02*
X10376116Y-16485760D01*
X10376116Y-16485760D02*
X10385640Y-16466713D01*
X10385640Y-16466713D02*
X10395164Y-16457189D01*
X10395164Y-16457189D02*
X10414211Y-16447665D01*
X10566592Y-16628617D02*
X10576116Y-16638141D01*
X10576116Y-16638141D02*
X10566592Y-16647665D01*
X10566592Y-16647665D02*
X10557068Y-16638141D01*
X10557068Y-16638141D02*
X10566592Y-16628617D01*
X10566592Y-16628617D02*
X10566592Y-16647665D01*
X10699925Y-16447665D02*
X10718973Y-16447665D01*
X10718973Y-16447665D02*
X10738021Y-16457189D01*
X10738021Y-16457189D02*
X10747545Y-16466713D01*
X10747545Y-16466713D02*
X10757068Y-16485760D01*
X10757068Y-16485760D02*
X10766592Y-16523856D01*
X10766592Y-16523856D02*
X10766592Y-16571475D01*
X10766592Y-16571475D02*
X10757068Y-16609570D01*
X10757068Y-16609570D02*
X10747545Y-16628617D01*
X10747545Y-16628617D02*
X10738021Y-16638141D01*
X10738021Y-16638141D02*
X10718973Y-16647665D01*
X10718973Y-16647665D02*
X10699925Y-16647665D01*
X10699925Y-16647665D02*
X10680878Y-16638141D01*
X10680878Y-16638141D02*
X10671354Y-16628617D01*
X10671354Y-16628617D02*
X10661830Y-16609570D01*
X10661830Y-16609570D02*
X10652306Y-16571475D01*
X10652306Y-16571475D02*
X10652306Y-16523856D01*
X10652306Y-16523856D02*
X10661830Y-16485760D01*
X10661830Y-16485760D02*
X10671354Y-16466713D01*
X10671354Y-16466713D02*
X10680878Y-16457189D01*
X10680878Y-16457189D02*
X10699925Y-16447665D01*
X10947545Y-16447665D02*
X10852306Y-16447665D01*
X10852306Y-16447665D02*
X10842783Y-16542903D01*
X10842783Y-16542903D02*
X10852306Y-16533379D01*
X10852306Y-16533379D02*
X10871354Y-16523856D01*
X10871354Y-16523856D02*
X10918973Y-16523856D01*
X10918973Y-16523856D02*
X10938021Y-16533379D01*
X10938021Y-16533379D02*
X10947545Y-16542903D01*
X10947545Y-16542903D02*
X10957068Y-16561951D01*
X10957068Y-16561951D02*
X10957068Y-16609570D01*
X10957068Y-16609570D02*
X10947545Y-16628617D01*
X10947545Y-16628617D02*
X10938021Y-16638141D01*
X10938021Y-16638141D02*
X10918973Y-16647665D01*
X10918973Y-16647665D02*
X10871354Y-16647665D01*
X10871354Y-16647665D02*
X10852306Y-16638141D01*
X10852306Y-16638141D02*
X10842783Y-16628617D01*
X11128497Y-16447665D02*
X11090402Y-16447665D01*
X11090402Y-16447665D02*
X11071354Y-16457189D01*
X11071354Y-16457189D02*
X11061830Y-16466713D01*
X11061830Y-16466713D02*
X11042783Y-16495284D01*
X11042783Y-16495284D02*
X11033259Y-16533379D01*
X11033259Y-16533379D02*
X11033259Y-16609570D01*
X11033259Y-16609570D02*
X11042783Y-16628617D01*
X11042783Y-16628617D02*
X11052306Y-16638141D01*
X11052306Y-16638141D02*
X11071354Y-16647665D01*
X11071354Y-16647665D02*
X11109449Y-16647665D01*
X11109449Y-16647665D02*
X11128497Y-16638141D01*
X11128497Y-16638141D02*
X11138021Y-16628617D01*
X11138021Y-16628617D02*
X11147545Y-16609570D01*
X11147545Y-16609570D02*
X11147545Y-16561951D01*
X11147545Y-16561951D02*
X11138021Y-16542903D01*
X11138021Y-16542903D02*
X11128497Y-16533379D01*
X11128497Y-16533379D02*
X11109449Y-16523856D01*
X11109449Y-16523856D02*
X11071354Y-16523856D01*
X11071354Y-16523856D02*
X11052306Y-16533379D01*
X11052306Y-16533379D02*
X11042783Y-16542903D01*
X11042783Y-16542903D02*
X11033259Y-16561951D01*
X11214211Y-16447665D02*
X11338021Y-16447665D01*
X11338021Y-16447665D02*
X11271354Y-16523856D01*
X11271354Y-16523856D02*
X11299925Y-16523856D01*
X11299925Y-16523856D02*
X11318973Y-16533379D01*
X11318973Y-16533379D02*
X11328497Y-16542903D01*
X11328497Y-16542903D02*
X11338021Y-16561951D01*
X11338021Y-16561951D02*
X11338021Y-16609570D01*
X11338021Y-16609570D02*
X11328497Y-16628617D01*
X11328497Y-16628617D02*
X11318973Y-16638141D01*
X11318973Y-16638141D02*
X11299925Y-16647665D01*
X11299925Y-16647665D02*
X11242783Y-16647665D01*
X11242783Y-16647665D02*
X11223735Y-16638141D01*
X11223735Y-16638141D02*
X11214211Y-16628617D01*
X11414211Y-16447665D02*
X11414211Y-16485760D01*
X11490402Y-16447665D02*
X11490402Y-16485760D01*
X11753259Y-16723856D02*
X11743735Y-16714332D01*
X11743735Y-16714332D02*
X11724687Y-16685760D01*
X11724687Y-16685760D02*
X11715164Y-16666713D01*
X11715164Y-16666713D02*
X11705640Y-16638141D01*
X11705640Y-16638141D02*
X11696116Y-16590522D01*
X11696116Y-16590522D02*
X11696116Y-16552427D01*
X11696116Y-16552427D02*
X11705640Y-16504808D01*
X11705640Y-16504808D02*
X11715164Y-16476237D01*
X11715164Y-16476237D02*
X11724687Y-16457189D01*
X11724687Y-16457189D02*
X11743735Y-16428617D01*
X11743735Y-16428617D02*
X11753259Y-16419094D01*
X11915164Y-16514332D02*
X11915164Y-16647665D01*
X11867544Y-16438141D02*
X11819925Y-16580998D01*
X11819925Y-16580998D02*
X11943735Y-16580998D01*
X12139925Y-16647665D02*
X12139925Y-16447665D01*
X12225640Y-16647665D02*
X12225640Y-16542903D01*
X12225640Y-16542903D02*
X12216116Y-16523856D01*
X12216116Y-16523856D02*
X12197068Y-16514332D01*
X12197068Y-16514332D02*
X12168497Y-16514332D01*
X12168497Y-16514332D02*
X12149449Y-16523856D01*
X12149449Y-16523856D02*
X12139925Y-16533379D01*
X12349449Y-16647665D02*
X12330402Y-16638141D01*
X12330402Y-16638141D02*
X12320878Y-16628617D01*
X12320878Y-16628617D02*
X12311354Y-16609570D01*
X12311354Y-16609570D02*
X12311354Y-16552427D01*
X12311354Y-16552427D02*
X12320878Y-16533379D01*
X12320878Y-16533379D02*
X12330402Y-16523856D01*
X12330402Y-16523856D02*
X12349449Y-16514332D01*
X12349449Y-16514332D02*
X12378021Y-16514332D01*
X12378021Y-16514332D02*
X12397068Y-16523856D01*
X12397068Y-16523856D02*
X12406592Y-16533379D01*
X12406592Y-16533379D02*
X12416116Y-16552427D01*
X12416116Y-16552427D02*
X12416116Y-16609570D01*
X12416116Y-16609570D02*
X12406592Y-16628617D01*
X12406592Y-16628617D02*
X12397068Y-16638141D01*
X12397068Y-16638141D02*
X12378021Y-16647665D01*
X12378021Y-16647665D02*
X12349449Y-16647665D01*
X12530402Y-16647665D02*
X12511354Y-16638141D01*
X12511354Y-16638141D02*
X12501830Y-16619094D01*
X12501830Y-16619094D02*
X12501830Y-16447665D01*
X12682783Y-16638141D02*
X12663735Y-16647665D01*
X12663735Y-16647665D02*
X12625640Y-16647665D01*
X12625640Y-16647665D02*
X12606592Y-16638141D01*
X12606592Y-16638141D02*
X12597068Y-16619094D01*
X12597068Y-16619094D02*
X12597068Y-16542903D01*
X12597068Y-16542903D02*
X12606592Y-16523856D01*
X12606592Y-16523856D02*
X12625640Y-16514332D01*
X12625640Y-16514332D02*
X12663735Y-16514332D01*
X12663735Y-16514332D02*
X12682783Y-16523856D01*
X12682783Y-16523856D02*
X12692306Y-16542903D01*
X12692306Y-16542903D02*
X12692306Y-16561951D01*
X12692306Y-16561951D02*
X12597068Y-16580998D01*
X12768497Y-16638141D02*
X12787545Y-16647665D01*
X12787545Y-16647665D02*
X12825640Y-16647665D01*
X12825640Y-16647665D02*
X12844687Y-16638141D01*
X12844687Y-16638141D02*
X12854211Y-16619094D01*
X12854211Y-16619094D02*
X12854211Y-16609570D01*
X12854211Y-16609570D02*
X12844687Y-16590522D01*
X12844687Y-16590522D02*
X12825640Y-16580998D01*
X12825640Y-16580998D02*
X12797068Y-16580998D01*
X12797068Y-16580998D02*
X12778021Y-16571475D01*
X12778021Y-16571475D02*
X12768497Y-16552427D01*
X12768497Y-16552427D02*
X12768497Y-16542903D01*
X12768497Y-16542903D02*
X12778021Y-16523856D01*
X12778021Y-16523856D02*
X12797068Y-16514332D01*
X12797068Y-16514332D02*
X12825640Y-16514332D01*
X12825640Y-16514332D02*
X12844687Y-16523856D01*
X12920878Y-16723856D02*
X12930402Y-16714332D01*
X12930402Y-16714332D02*
X12949449Y-16685760D01*
X12949449Y-16685760D02*
X12958973Y-16666713D01*
X12958973Y-16666713D02*
X12968497Y-16638141D01*
X12968497Y-16638141D02*
X12978021Y-16590522D01*
X12978021Y-16590522D02*
X12978021Y-16552427D01*
X12978021Y-16552427D02*
X12968497Y-16504808D01*
X12968497Y-16504808D02*
X12958973Y-16476237D01*
X12958973Y-16476237D02*
X12949449Y-16457189D01*
X12949449Y-16457189D02*
X12930402Y-16428617D01*
X12930402Y-16428617D02*
X12920878Y-16419094D01*
X8088497Y-16738189D02*
X8288497Y-16938189D01*
X8288497Y-16738189D02*
X8088497Y-16938189D01*
X8259208Y-16908900D02*
X8259208Y-16767478D01*
X8117785Y-16767478D01*
X8117785Y-16908900D01*
X8259208Y-16908900D01*
X8526592Y-16730713D02*
X8536116Y-16721189D01*
X8536116Y-16721189D02*
X8555163Y-16711665D01*
X8555163Y-16711665D02*
X8602783Y-16711665D01*
X8602783Y-16711665D02*
X8621830Y-16721189D01*
X8621830Y-16721189D02*
X8631354Y-16730713D01*
X8631354Y-16730713D02*
X8640878Y-16749760D01*
X8640878Y-16749760D02*
X8640878Y-16768808D01*
X8640878Y-16768808D02*
X8631354Y-16797379D01*
X8631354Y-16797379D02*
X8517068Y-16911665D01*
X8517068Y-16911665D02*
X8640878Y-16911665D01*
X8726592Y-16892618D02*
X8736116Y-16902141D01*
X8736116Y-16902141D02*
X8726592Y-16911665D01*
X8726592Y-16911665D02*
X8717068Y-16902141D01*
X8717068Y-16902141D02*
X8726592Y-16892618D01*
X8726592Y-16892618D02*
X8726592Y-16911665D01*
X8859925Y-16711665D02*
X8878973Y-16711665D01*
X8878973Y-16711665D02*
X8898021Y-16721189D01*
X8898021Y-16721189D02*
X8907544Y-16730713D01*
X8907544Y-16730713D02*
X8917068Y-16749760D01*
X8917068Y-16749760D02*
X8926592Y-16787856D01*
X8926592Y-16787856D02*
X8926592Y-16835475D01*
X8926592Y-16835475D02*
X8917068Y-16873570D01*
X8917068Y-16873570D02*
X8907544Y-16892618D01*
X8907544Y-16892618D02*
X8898021Y-16902141D01*
X8898021Y-16902141D02*
X8878973Y-16911665D01*
X8878973Y-16911665D02*
X8859925Y-16911665D01*
X8859925Y-16911665D02*
X8840878Y-16902141D01*
X8840878Y-16902141D02*
X8831354Y-16892618D01*
X8831354Y-16892618D02*
X8821830Y-16873570D01*
X8821830Y-16873570D02*
X8812306Y-16835475D01*
X8812306Y-16835475D02*
X8812306Y-16787856D01*
X8812306Y-16787856D02*
X8821830Y-16749760D01*
X8821830Y-16749760D02*
X8831354Y-16730713D01*
X8831354Y-16730713D02*
X8840878Y-16721189D01*
X8840878Y-16721189D02*
X8859925Y-16711665D01*
X9050402Y-16711665D02*
X9069449Y-16711665D01*
X9069449Y-16711665D02*
X9088497Y-16721189D01*
X9088497Y-16721189D02*
X9098021Y-16730713D01*
X9098021Y-16730713D02*
X9107544Y-16749760D01*
X9107544Y-16749760D02*
X9117068Y-16787856D01*
X9117068Y-16787856D02*
X9117068Y-16835475D01*
X9117068Y-16835475D02*
X9107544Y-16873570D01*
X9107544Y-16873570D02*
X9098021Y-16892618D01*
X9098021Y-16892618D02*
X9088497Y-16902141D01*
X9088497Y-16902141D02*
X9069449Y-16911665D01*
X9069449Y-16911665D02*
X9050402Y-16911665D01*
X9050402Y-16911665D02*
X9031354Y-16902141D01*
X9031354Y-16902141D02*
X9021830Y-16892618D01*
X9021830Y-16892618D02*
X9012306Y-16873570D01*
X9012306Y-16873570D02*
X9002783Y-16835475D01*
X9002783Y-16835475D02*
X9002783Y-16787856D01*
X9002783Y-16787856D02*
X9012306Y-16749760D01*
X9012306Y-16749760D02*
X9021830Y-16730713D01*
X9021830Y-16730713D02*
X9031354Y-16721189D01*
X9031354Y-16721189D02*
X9050402Y-16711665D01*
X9240878Y-16711665D02*
X9259925Y-16711665D01*
X9259925Y-16711665D02*
X9278973Y-16721189D01*
X9278973Y-16721189D02*
X9288497Y-16730713D01*
X9288497Y-16730713D02*
X9298021Y-16749760D01*
X9298021Y-16749760D02*
X9307544Y-16787856D01*
X9307544Y-16787856D02*
X9307544Y-16835475D01*
X9307544Y-16835475D02*
X9298021Y-16873570D01*
X9298021Y-16873570D02*
X9288497Y-16892618D01*
X9288497Y-16892618D02*
X9278973Y-16902141D01*
X9278973Y-16902141D02*
X9259925Y-16911665D01*
X9259925Y-16911665D02*
X9240878Y-16911665D01*
X9240878Y-16911665D02*
X9221830Y-16902141D01*
X9221830Y-16902141D02*
X9212306Y-16892618D01*
X9212306Y-16892618D02*
X9202783Y-16873570D01*
X9202783Y-16873570D02*
X9193259Y-16835475D01*
X9193259Y-16835475D02*
X9193259Y-16787856D01*
X9193259Y-16787856D02*
X9202783Y-16749760D01*
X9202783Y-16749760D02*
X9212306Y-16730713D01*
X9212306Y-16730713D02*
X9221830Y-16721189D01*
X9221830Y-16721189D02*
X9240878Y-16711665D01*
X9393259Y-16911665D02*
X9393259Y-16778332D01*
X9393259Y-16797379D02*
X9402783Y-16787856D01*
X9402783Y-16787856D02*
X9421830Y-16778332D01*
X9421830Y-16778332D02*
X9450402Y-16778332D01*
X9450402Y-16778332D02*
X9469449Y-16787856D01*
X9469449Y-16787856D02*
X9478973Y-16806903D01*
X9478973Y-16806903D02*
X9478973Y-16911665D01*
X9478973Y-16806903D02*
X9488497Y-16787856D01*
X9488497Y-16787856D02*
X9507544Y-16778332D01*
X9507544Y-16778332D02*
X9536116Y-16778332D01*
X9536116Y-16778332D02*
X9555164Y-16787856D01*
X9555164Y-16787856D02*
X9564687Y-16806903D01*
X9564687Y-16806903D02*
X9564687Y-16911665D01*
X9659925Y-16911665D02*
X9659925Y-16778332D01*
X9659925Y-16797379D02*
X9669449Y-16787856D01*
X9669449Y-16787856D02*
X9688497Y-16778332D01*
X9688497Y-16778332D02*
X9717068Y-16778332D01*
X9717068Y-16778332D02*
X9736116Y-16787856D01*
X9736116Y-16787856D02*
X9745640Y-16806903D01*
X9745640Y-16806903D02*
X9745640Y-16911665D01*
X9745640Y-16806903D02*
X9755164Y-16787856D01*
X9755164Y-16787856D02*
X9774211Y-16778332D01*
X9774211Y-16778332D02*
X9802783Y-16778332D01*
X9802783Y-16778332D02*
X9821830Y-16787856D01*
X9821830Y-16787856D02*
X9831354Y-16806903D01*
X9831354Y-16806903D02*
X9831354Y-16911665D01*
X10189449Y-16702141D02*
X10018021Y-16959284D01*
X10414211Y-16711665D02*
X10433259Y-16711665D01*
X10433259Y-16711665D02*
X10452306Y-16721189D01*
X10452306Y-16721189D02*
X10461830Y-16730713D01*
X10461830Y-16730713D02*
X10471354Y-16749760D01*
X10471354Y-16749760D02*
X10480878Y-16787856D01*
X10480878Y-16787856D02*
X10480878Y-16835475D01*
X10480878Y-16835475D02*
X10471354Y-16873570D01*
X10471354Y-16873570D02*
X10461830Y-16892618D01*
X10461830Y-16892618D02*
X10452306Y-16902141D01*
X10452306Y-16902141D02*
X10433259Y-16911665D01*
X10433259Y-16911665D02*
X10414211Y-16911665D01*
X10414211Y-16911665D02*
X10395164Y-16902141D01*
X10395164Y-16902141D02*
X10385640Y-16892618D01*
X10385640Y-16892618D02*
X10376116Y-16873570D01*
X10376116Y-16873570D02*
X10366592Y-16835475D01*
X10366592Y-16835475D02*
X10366592Y-16787856D01*
X10366592Y-16787856D02*
X10376116Y-16749760D01*
X10376116Y-16749760D02*
X10385640Y-16730713D01*
X10385640Y-16730713D02*
X10395164Y-16721189D01*
X10395164Y-16721189D02*
X10414211Y-16711665D01*
X10566592Y-16892618D02*
X10576116Y-16902141D01*
X10576116Y-16902141D02*
X10566592Y-16911665D01*
X10566592Y-16911665D02*
X10557068Y-16902141D01*
X10557068Y-16902141D02*
X10566592Y-16892618D01*
X10566592Y-16892618D02*
X10566592Y-16911665D01*
X10699925Y-16711665D02*
X10718973Y-16711665D01*
X10718973Y-16711665D02*
X10738021Y-16721189D01*
X10738021Y-16721189D02*
X10747545Y-16730713D01*
X10747545Y-16730713D02*
X10757068Y-16749760D01*
X10757068Y-16749760D02*
X10766592Y-16787856D01*
X10766592Y-16787856D02*
X10766592Y-16835475D01*
X10766592Y-16835475D02*
X10757068Y-16873570D01*
X10757068Y-16873570D02*
X10747545Y-16892618D01*
X10747545Y-16892618D02*
X10738021Y-16902141D01*
X10738021Y-16902141D02*
X10718973Y-16911665D01*
X10718973Y-16911665D02*
X10699925Y-16911665D01*
X10699925Y-16911665D02*
X10680878Y-16902141D01*
X10680878Y-16902141D02*
X10671354Y-16892618D01*
X10671354Y-16892618D02*
X10661830Y-16873570D01*
X10661830Y-16873570D02*
X10652306Y-16835475D01*
X10652306Y-16835475D02*
X10652306Y-16787856D01*
X10652306Y-16787856D02*
X10661830Y-16749760D01*
X10661830Y-16749760D02*
X10671354Y-16730713D01*
X10671354Y-16730713D02*
X10680878Y-16721189D01*
X10680878Y-16721189D02*
X10699925Y-16711665D01*
X10833259Y-16711665D02*
X10966592Y-16711665D01*
X10966592Y-16711665D02*
X10880878Y-16911665D01*
X11071354Y-16797379D02*
X11052306Y-16787856D01*
X11052306Y-16787856D02*
X11042783Y-16778332D01*
X11042783Y-16778332D02*
X11033259Y-16759284D01*
X11033259Y-16759284D02*
X11033259Y-16749760D01*
X11033259Y-16749760D02*
X11042783Y-16730713D01*
X11042783Y-16730713D02*
X11052306Y-16721189D01*
X11052306Y-16721189D02*
X11071354Y-16711665D01*
X11071354Y-16711665D02*
X11109449Y-16711665D01*
X11109449Y-16711665D02*
X11128497Y-16721189D01*
X11128497Y-16721189D02*
X11138021Y-16730713D01*
X11138021Y-16730713D02*
X11147545Y-16749760D01*
X11147545Y-16749760D02*
X11147545Y-16759284D01*
X11147545Y-16759284D02*
X11138021Y-16778332D01*
X11138021Y-16778332D02*
X11128497Y-16787856D01*
X11128497Y-16787856D02*
X11109449Y-16797379D01*
X11109449Y-16797379D02*
X11071354Y-16797379D01*
X11071354Y-16797379D02*
X11052306Y-16806903D01*
X11052306Y-16806903D02*
X11042783Y-16816427D01*
X11042783Y-16816427D02*
X11033259Y-16835475D01*
X11033259Y-16835475D02*
X11033259Y-16873570D01*
X11033259Y-16873570D02*
X11042783Y-16892618D01*
X11042783Y-16892618D02*
X11052306Y-16902141D01*
X11052306Y-16902141D02*
X11071354Y-16911665D01*
X11071354Y-16911665D02*
X11109449Y-16911665D01*
X11109449Y-16911665D02*
X11128497Y-16902141D01*
X11128497Y-16902141D02*
X11138021Y-16892618D01*
X11138021Y-16892618D02*
X11147545Y-16873570D01*
X11147545Y-16873570D02*
X11147545Y-16835475D01*
X11147545Y-16835475D02*
X11138021Y-16816427D01*
X11138021Y-16816427D02*
X11128497Y-16806903D01*
X11128497Y-16806903D02*
X11109449Y-16797379D01*
X11214211Y-16711665D02*
X11347544Y-16711665D01*
X11347544Y-16711665D02*
X11261830Y-16911665D01*
X11414211Y-16711665D02*
X11414211Y-16749760D01*
X11490402Y-16711665D02*
X11490402Y-16749760D01*
X11753259Y-16987856D02*
X11743735Y-16978332D01*
X11743735Y-16978332D02*
X11724687Y-16949760D01*
X11724687Y-16949760D02*
X11715164Y-16930713D01*
X11715164Y-16930713D02*
X11705640Y-16902141D01*
X11705640Y-16902141D02*
X11696116Y-16854522D01*
X11696116Y-16854522D02*
X11696116Y-16816427D01*
X11696116Y-16816427D02*
X11705640Y-16768808D01*
X11705640Y-16768808D02*
X11715164Y-16740237D01*
X11715164Y-16740237D02*
X11724687Y-16721189D01*
X11724687Y-16721189D02*
X11743735Y-16692617D01*
X11743735Y-16692617D02*
X11753259Y-16683094D01*
X11867544Y-16711665D02*
X11886592Y-16711665D01*
X11886592Y-16711665D02*
X11905640Y-16721189D01*
X11905640Y-16721189D02*
X11915164Y-16730713D01*
X11915164Y-16730713D02*
X11924687Y-16749760D01*
X11924687Y-16749760D02*
X11934211Y-16787856D01*
X11934211Y-16787856D02*
X11934211Y-16835475D01*
X11934211Y-16835475D02*
X11924687Y-16873570D01*
X11924687Y-16873570D02*
X11915164Y-16892618D01*
X11915164Y-16892618D02*
X11905640Y-16902141D01*
X11905640Y-16902141D02*
X11886592Y-16911665D01*
X11886592Y-16911665D02*
X11867544Y-16911665D01*
X11867544Y-16911665D02*
X11848497Y-16902141D01*
X11848497Y-16902141D02*
X11838973Y-16892618D01*
X11838973Y-16892618D02*
X11829449Y-16873570D01*
X11829449Y-16873570D02*
X11819925Y-16835475D01*
X11819925Y-16835475D02*
X11819925Y-16787856D01*
X11819925Y-16787856D02*
X11829449Y-16749760D01*
X11829449Y-16749760D02*
X11838973Y-16730713D01*
X11838973Y-16730713D02*
X11848497Y-16721189D01*
X11848497Y-16721189D02*
X11867544Y-16711665D01*
X12139925Y-16911665D02*
X12139925Y-16711665D01*
X12225640Y-16911665D02*
X12225640Y-16806903D01*
X12225640Y-16806903D02*
X12216116Y-16787856D01*
X12216116Y-16787856D02*
X12197068Y-16778332D01*
X12197068Y-16778332D02*
X12168497Y-16778332D01*
X12168497Y-16778332D02*
X12149449Y-16787856D01*
X12149449Y-16787856D02*
X12139925Y-16797379D01*
X12349449Y-16911665D02*
X12330402Y-16902141D01*
X12330402Y-16902141D02*
X12320878Y-16892618D01*
X12320878Y-16892618D02*
X12311354Y-16873570D01*
X12311354Y-16873570D02*
X12311354Y-16816427D01*
X12311354Y-16816427D02*
X12320878Y-16797379D01*
X12320878Y-16797379D02*
X12330402Y-16787856D01*
X12330402Y-16787856D02*
X12349449Y-16778332D01*
X12349449Y-16778332D02*
X12378021Y-16778332D01*
X12378021Y-16778332D02*
X12397068Y-16787856D01*
X12397068Y-16787856D02*
X12406592Y-16797379D01*
X12406592Y-16797379D02*
X12416116Y-16816427D01*
X12416116Y-16816427D02*
X12416116Y-16873570D01*
X12416116Y-16873570D02*
X12406592Y-16892618D01*
X12406592Y-16892618D02*
X12397068Y-16902141D01*
X12397068Y-16902141D02*
X12378021Y-16911665D01*
X12378021Y-16911665D02*
X12349449Y-16911665D01*
X12530402Y-16911665D02*
X12511354Y-16902141D01*
X12511354Y-16902141D02*
X12501830Y-16883094D01*
X12501830Y-16883094D02*
X12501830Y-16711665D01*
X12682783Y-16902141D02*
X12663735Y-16911665D01*
X12663735Y-16911665D02*
X12625640Y-16911665D01*
X12625640Y-16911665D02*
X12606592Y-16902141D01*
X12606592Y-16902141D02*
X12597068Y-16883094D01*
X12597068Y-16883094D02*
X12597068Y-16806903D01*
X12597068Y-16806903D02*
X12606592Y-16787856D01*
X12606592Y-16787856D02*
X12625640Y-16778332D01*
X12625640Y-16778332D02*
X12663735Y-16778332D01*
X12663735Y-16778332D02*
X12682783Y-16787856D01*
X12682783Y-16787856D02*
X12692306Y-16806903D01*
X12692306Y-16806903D02*
X12692306Y-16825951D01*
X12692306Y-16825951D02*
X12597068Y-16844999D01*
X12768497Y-16902141D02*
X12787545Y-16911665D01*
X12787545Y-16911665D02*
X12825640Y-16911665D01*
X12825640Y-16911665D02*
X12844687Y-16902141D01*
X12844687Y-16902141D02*
X12854211Y-16883094D01*
X12854211Y-16883094D02*
X12854211Y-16873570D01*
X12854211Y-16873570D02*
X12844687Y-16854522D01*
X12844687Y-16854522D02*
X12825640Y-16844999D01*
X12825640Y-16844999D02*
X12797068Y-16844999D01*
X12797068Y-16844999D02*
X12778021Y-16835475D01*
X12778021Y-16835475D02*
X12768497Y-16816427D01*
X12768497Y-16816427D02*
X12768497Y-16806903D01*
X12768497Y-16806903D02*
X12778021Y-16787856D01*
X12778021Y-16787856D02*
X12797068Y-16778332D01*
X12797068Y-16778332D02*
X12825640Y-16778332D01*
X12825640Y-16778332D02*
X12844687Y-16787856D01*
X13059926Y-16835475D02*
X13212307Y-16835475D01*
X13136116Y-16911665D02*
X13136116Y-16759284D01*
X13418021Y-16730713D02*
X13427545Y-16721189D01*
X13427545Y-16721189D02*
X13446592Y-16711665D01*
X13446592Y-16711665D02*
X13494211Y-16711665D01*
X13494211Y-16711665D02*
X13513259Y-16721189D01*
X13513259Y-16721189D02*
X13522783Y-16730713D01*
X13522783Y-16730713D02*
X13532306Y-16749760D01*
X13532306Y-16749760D02*
X13532306Y-16768808D01*
X13532306Y-16768808D02*
X13522783Y-16797379D01*
X13522783Y-16797379D02*
X13408497Y-16911665D01*
X13408497Y-16911665D02*
X13532306Y-16911665D01*
X13728497Y-16902141D02*
X13747545Y-16911665D01*
X13747545Y-16911665D02*
X13785640Y-16911665D01*
X13785640Y-16911665D02*
X13804687Y-16902141D01*
X13804687Y-16902141D02*
X13814211Y-16883094D01*
X13814211Y-16883094D02*
X13814211Y-16873570D01*
X13814211Y-16873570D02*
X13804687Y-16854522D01*
X13804687Y-16854522D02*
X13785640Y-16844999D01*
X13785640Y-16844999D02*
X13757068Y-16844999D01*
X13757068Y-16844999D02*
X13738021Y-16835475D01*
X13738021Y-16835475D02*
X13728497Y-16816427D01*
X13728497Y-16816427D02*
X13728497Y-16806903D01*
X13728497Y-16806903D02*
X13738021Y-16787856D01*
X13738021Y-16787856D02*
X13757068Y-16778332D01*
X13757068Y-16778332D02*
X13785640Y-16778332D01*
X13785640Y-16778332D02*
X13804687Y-16787856D01*
X13928497Y-16911665D02*
X13909449Y-16902141D01*
X13909449Y-16902141D02*
X13899926Y-16883094D01*
X13899926Y-16883094D02*
X13899926Y-16711665D01*
X14033259Y-16911665D02*
X14014211Y-16902141D01*
X14014211Y-16902141D02*
X14004687Y-16892618D01*
X14004687Y-16892618D02*
X13995164Y-16873570D01*
X13995164Y-16873570D02*
X13995164Y-16816427D01*
X13995164Y-16816427D02*
X14004687Y-16797379D01*
X14004687Y-16797379D02*
X14014211Y-16787856D01*
X14014211Y-16787856D02*
X14033259Y-16778332D01*
X14033259Y-16778332D02*
X14061830Y-16778332D01*
X14061830Y-16778332D02*
X14080878Y-16787856D01*
X14080878Y-16787856D02*
X14090402Y-16797379D01*
X14090402Y-16797379D02*
X14099926Y-16816427D01*
X14099926Y-16816427D02*
X14099926Y-16873570D01*
X14099926Y-16873570D02*
X14090402Y-16892618D01*
X14090402Y-16892618D02*
X14080878Y-16902141D01*
X14080878Y-16902141D02*
X14061830Y-16911665D01*
X14061830Y-16911665D02*
X14033259Y-16911665D01*
X14157068Y-16778332D02*
X14233259Y-16778332D01*
X14185640Y-16711665D02*
X14185640Y-16883094D01*
X14185640Y-16883094D02*
X14195164Y-16902141D01*
X14195164Y-16902141D02*
X14214211Y-16911665D01*
X14214211Y-16911665D02*
X14233259Y-16911665D01*
X14290402Y-16902141D02*
X14309449Y-16911665D01*
X14309449Y-16911665D02*
X14347545Y-16911665D01*
X14347545Y-16911665D02*
X14366592Y-16902141D01*
X14366592Y-16902141D02*
X14376116Y-16883094D01*
X14376116Y-16883094D02*
X14376116Y-16873570D01*
X14376116Y-16873570D02*
X14366592Y-16854522D01*
X14366592Y-16854522D02*
X14347545Y-16844999D01*
X14347545Y-16844999D02*
X14318973Y-16844999D01*
X14318973Y-16844999D02*
X14299926Y-16835475D01*
X14299926Y-16835475D02*
X14290402Y-16816427D01*
X14290402Y-16816427D02*
X14290402Y-16806903D01*
X14290402Y-16806903D02*
X14299926Y-16787856D01*
X14299926Y-16787856D02*
X14318973Y-16778332D01*
X14318973Y-16778332D02*
X14347545Y-16778332D01*
X14347545Y-16778332D02*
X14366592Y-16787856D01*
X14442783Y-16987856D02*
X14452307Y-16978332D01*
X14452307Y-16978332D02*
X14471354Y-16949760D01*
X14471354Y-16949760D02*
X14480878Y-16930713D01*
X14480878Y-16930713D02*
X14490402Y-16902141D01*
X14490402Y-16902141D02*
X14499926Y-16854522D01*
X14499926Y-16854522D02*
X14499926Y-16816427D01*
X14499926Y-16816427D02*
X14490402Y-16768808D01*
X14490402Y-16768808D02*
X14480878Y-16740237D01*
X14480878Y-16740237D02*
X14471354Y-16721189D01*
X14471354Y-16721189D02*
X14452307Y-16692617D01*
X14452307Y-16692617D02*
X14442783Y-16683094D01*
M02*
