G04 #@! TF.GenerationSoftware,KiCad,Pcbnew,(7.0.0)*
G04 #@! TF.CreationDate,2023-03-19T22:56:20+00:00*
G04 #@! TF.ProjectId,front_microlidian,66726f6e-745f-46d6-9963-726f6c696469,rev?*
G04 #@! TF.SameCoordinates,Original*
G04 #@! TF.FileFunction,Soldermask,Top*
G04 #@! TF.FilePolarity,Negative*
%FSLAX46Y46*%
G04 Gerber Fmt 4.6, Leading zero omitted, Abs format (unit mm)*
G04 Created by KiCad (PCBNEW (7.0.0)) date 2023-03-19 22:56:20*
%MOMM*%
%LPD*%
G01*
G04 APERTURE LIST*
%ADD10C,1.600000*%
%ADD11O,1.600000X1.600000*%
%ADD12C,2.000000*%
%ADD13R,1.524000X1.524000*%
%ADD14C,1.524000*%
%ADD15R,2.000000X2.000000*%
%ADD16R,2.500000X3.000000*%
%ADD17R,1.930000X1.830000*%
%ADD18C,2.130000*%
%ADD19R,1.700000X1.700000*%
%ADD20O,1.700000X1.700000*%
G04 APERTURE END LIST*
D10*
X101955600Y-104682600D03*
D11*
X101955599Y-112182599D03*
D10*
X116255800Y-101320600D03*
D11*
X108635799Y-101320599D03*
D10*
X120421400Y-136982200D03*
D11*
X120421399Y-129362199D03*
D10*
X105054400Y-129438400D03*
D11*
X105054399Y-137058399D03*
D12*
X109305590Y-91761880D03*
X115805590Y-91761880D03*
X109305590Y-96261880D03*
X115805590Y-96261880D03*
D13*
X94195389Y-53319879D03*
D14*
X96735390Y-53319880D03*
X99275390Y-53319880D03*
X101815390Y-53319880D03*
X104355390Y-53319880D03*
X106895390Y-53319880D03*
X109435390Y-53319880D03*
X111975390Y-53319880D03*
D15*
X91299589Y-101653879D03*
D12*
X96299590Y-101653880D03*
X93799590Y-101653880D03*
D16*
X88199589Y-94153879D03*
X99399589Y-94153879D03*
D12*
X91299590Y-87153880D03*
X96299590Y-87153880D03*
D17*
X93793389Y-107479279D03*
D18*
X93793390Y-118879280D03*
X93793390Y-110579280D03*
D17*
X93792989Y-126265879D03*
D18*
X93792990Y-137665880D03*
X93792990Y-129365880D03*
D10*
X86156800Y-112131800D03*
D11*
X86156799Y-104631799D03*
D18*
X111963390Y-129365880D03*
D17*
X111963389Y-126265879D03*
D18*
X111963390Y-137665880D03*
D10*
X96342200Y-83159600D03*
D11*
X103962199Y-83159599D03*
D17*
X111963389Y-107479279D03*
D18*
X111963390Y-118879280D03*
X111963390Y-110579280D03*
D10*
X96734000Y-59080400D03*
X91734000Y-59080400D03*
D19*
X116738799Y-49124999D03*
D20*
X114198799Y-49124999D03*
X111658799Y-49124999D03*
X109118799Y-49124999D03*
X106578799Y-49124999D03*
X104038799Y-49124999D03*
X101498799Y-49124999D03*
X98958799Y-49124999D03*
X96418799Y-49124999D03*
X93878799Y-49124999D03*
X91338799Y-49124999D03*
X88798799Y-49124999D03*
D19*
X111353599Y-141300199D03*
D20*
X108813599Y-141300199D03*
X106273599Y-141300199D03*
X103733599Y-141300199D03*
X101193599Y-141300199D03*
X98653599Y-141300199D03*
X96113599Y-141300199D03*
X93573599Y-141300199D03*
M02*
