%TF.GenerationSoftware,KiCad,Pcbnew,(7.0.0)*%
%TF.CreationDate,2023-03-19T22:56:33+00:00*%
%TF.ProjectId,front_microlidian,66726f6e-745f-46d6-9963-726f6c696469,rev?*%
%TF.SameCoordinates,Original*%
%TF.FileFunction,Drillmap*%
%TF.FilePolarity,Positive*%
%FSLAX45Y45*%
G04 Gerber Fmt 4.5, Leading zero omitted, Abs format (unit mm)*
G04 Created by KiCad (PCBNEW (7.0.0)) date 2023-03-19 22:56:33*
%MOMM*%
%LPD*%
G01*
G04 APERTURE LIST*
%ADD10C,0.100000*%
%ADD11C,0.200000*%
G04 APERTURE END LIST*
D10*
X8293497Y-4623089D02*
X12323497Y-4623089D01*
X12323497Y-4623089D02*
X12323497Y-14345189D01*
X12323497Y-14345189D02*
X8293497Y-14345189D01*
X8293497Y-14345189D02*
X8293497Y-4623089D01*
D11*
X8536116Y-14643665D02*
X8536116Y-14443665D01*
X8536116Y-14443665D02*
X8583735Y-14443665D01*
X8583735Y-14443665D02*
X8612306Y-14453189D01*
X8612306Y-14453189D02*
X8631354Y-14472237D01*
X8631354Y-14472237D02*
X8640878Y-14491284D01*
X8640878Y-14491284D02*
X8650402Y-14529379D01*
X8650402Y-14529379D02*
X8650402Y-14557951D01*
X8650402Y-14557951D02*
X8640878Y-14596046D01*
X8640878Y-14596046D02*
X8631354Y-14615094D01*
X8631354Y-14615094D02*
X8612306Y-14634141D01*
X8612306Y-14634141D02*
X8583735Y-14643665D01*
X8583735Y-14643665D02*
X8536116Y-14643665D01*
X8736116Y-14643665D02*
X8736116Y-14510332D01*
X8736116Y-14548427D02*
X8745640Y-14529379D01*
X8745640Y-14529379D02*
X8755163Y-14519856D01*
X8755163Y-14519856D02*
X8774211Y-14510332D01*
X8774211Y-14510332D02*
X8793259Y-14510332D01*
X8859925Y-14643665D02*
X8859925Y-14510332D01*
X8859925Y-14443665D02*
X8850402Y-14453189D01*
X8850402Y-14453189D02*
X8859925Y-14462713D01*
X8859925Y-14462713D02*
X8869449Y-14453189D01*
X8869449Y-14453189D02*
X8859925Y-14443665D01*
X8859925Y-14443665D02*
X8859925Y-14462713D01*
X8983735Y-14643665D02*
X8964687Y-14634141D01*
X8964687Y-14634141D02*
X8955163Y-14615094D01*
X8955163Y-14615094D02*
X8955163Y-14443665D01*
X9088497Y-14643665D02*
X9069449Y-14634141D01*
X9069449Y-14634141D02*
X9059925Y-14615094D01*
X9059925Y-14615094D02*
X9059925Y-14443665D01*
X9284687Y-14643665D02*
X9284687Y-14443665D01*
X9284687Y-14443665D02*
X9351354Y-14586522D01*
X9351354Y-14586522D02*
X9418021Y-14443665D01*
X9418021Y-14443665D02*
X9418021Y-14643665D01*
X9598973Y-14643665D02*
X9598973Y-14538903D01*
X9598973Y-14538903D02*
X9589449Y-14519856D01*
X9589449Y-14519856D02*
X9570402Y-14510332D01*
X9570402Y-14510332D02*
X9532306Y-14510332D01*
X9532306Y-14510332D02*
X9513259Y-14519856D01*
X9598973Y-14634141D02*
X9579925Y-14643665D01*
X9579925Y-14643665D02*
X9532306Y-14643665D01*
X9532306Y-14643665D02*
X9513259Y-14634141D01*
X9513259Y-14634141D02*
X9503735Y-14615094D01*
X9503735Y-14615094D02*
X9503735Y-14596046D01*
X9503735Y-14596046D02*
X9513259Y-14576998D01*
X9513259Y-14576998D02*
X9532306Y-14567475D01*
X9532306Y-14567475D02*
X9579925Y-14567475D01*
X9579925Y-14567475D02*
X9598973Y-14557951D01*
X9694211Y-14510332D02*
X9694211Y-14710332D01*
X9694211Y-14519856D02*
X9713259Y-14510332D01*
X9713259Y-14510332D02*
X9751354Y-14510332D01*
X9751354Y-14510332D02*
X9770402Y-14519856D01*
X9770402Y-14519856D02*
X9779925Y-14529379D01*
X9779925Y-14529379D02*
X9789449Y-14548427D01*
X9789449Y-14548427D02*
X9789449Y-14605570D01*
X9789449Y-14605570D02*
X9779925Y-14624617D01*
X9779925Y-14624617D02*
X9770402Y-14634141D01*
X9770402Y-14634141D02*
X9751354Y-14643665D01*
X9751354Y-14643665D02*
X9713259Y-14643665D01*
X9713259Y-14643665D02*
X9694211Y-14634141D01*
X9875163Y-14624617D02*
X9884687Y-14634141D01*
X9884687Y-14634141D02*
X9875163Y-14643665D01*
X9875163Y-14643665D02*
X9865640Y-14634141D01*
X9865640Y-14634141D02*
X9875163Y-14624617D01*
X9875163Y-14624617D02*
X9875163Y-14643665D01*
X9875163Y-14519856D02*
X9884687Y-14529379D01*
X9884687Y-14529379D02*
X9875163Y-14538903D01*
X9875163Y-14538903D02*
X9865640Y-14529379D01*
X9865640Y-14529379D02*
X9875163Y-14519856D01*
X9875163Y-14519856D02*
X9875163Y-14538903D01*
M02*
