G04 #@! TF.GenerationSoftware,KiCad,Pcbnew,(7.0.0)*
G04 #@! TF.CreationDate,2023-03-19T23:08:36+00:00*
G04 #@! TF.ProjectId,panel_microlidian,70616e65-6c5f-46d6-9963-726f6c696469,rev?*
G04 #@! TF.SameCoordinates,Original*
G04 #@! TF.FileFunction,Profile,NP*
%FSLAX46Y46*%
G04 Gerber Fmt 4.6, Leading zero omitted, Abs format (unit mm)*
G04 Created by KiCad (PCBNEW (7.0.0)) date 2023-03-19 23:08:36*
%MOMM*%
%LPD*%
G01*
G04 APERTURE LIST*
G04 #@! TA.AperFunction,Profile*
%ADD10C,0.050000*%
G04 #@! TD*
G04 APERTURE END LIST*
D10*
X126832000Y-35584000D02*
X167132000Y-35584000D01*
X167132000Y-35584000D02*
X167132000Y-164084000D01*
X167132000Y-164084000D02*
X126832000Y-164084000D01*
X126832000Y-164084000D02*
X126832000Y-35584000D01*
X158637581Y-94036880D02*
G75*
G03*
X158637581Y-94036880I-2184991J0D01*
G01*
X135332000Y-162684000D02*
G75*
G03*
X135332000Y-159484000I0J1600000D01*
G01*
X133332000Y-36984000D02*
G75*
G03*
X133332000Y-40184000I0J-1600000D01*
G01*
X158732000Y-40184000D02*
X160732000Y-40184000D01*
X160732000Y-40184000D02*
G75*
G03*
X160732000Y-36984000I0J1600000D01*
G01*
X141196590Y-94245880D02*
G75*
G03*
X141196590Y-94245880I-3500000J0D01*
G01*
X160732000Y-159484000D02*
X158732000Y-159484000D01*
X141232390Y-146049800D02*
X152732390Y-146049800D01*
X152732390Y-146049800D02*
X152732390Y-151549800D01*
X152732390Y-151549800D02*
X141232390Y-151549800D01*
X141232390Y-151549800D02*
X141232390Y-146049800D01*
X159364341Y-113959331D02*
G75*
G03*
X159364341Y-113959331I-3503451J0D01*
G01*
X160732000Y-36984000D02*
X158732000Y-36984000D01*
X126832000Y-35584000D02*
X126832000Y-164084000D01*
X160732000Y-162684000D02*
G75*
G03*
X160732000Y-159484000I0J1600000D01*
G01*
X135332000Y-36984000D02*
X133332000Y-36984000D01*
X141157315Y-113958844D02*
G75*
G03*
X141157315Y-113958844I-3466425J0D01*
G01*
X133332000Y-40184000D02*
X135332000Y-40184000D01*
X141178191Y-132745590D02*
G75*
G03*
X141178191Y-132745590I-3487301J0D01*
G01*
X167132000Y-164084000D02*
X167132000Y-35584000D01*
X133332000Y-159484000D02*
G75*
G03*
X133332000Y-162684000I0J-1600000D01*
G01*
X126832000Y-164084000D02*
X167132000Y-164084000D01*
X135397922Y-77380272D02*
G75*
G03*
X135397922Y-77380272I-1615216J0D01*
G01*
X158732000Y-162684000D02*
X160732000Y-162684000D01*
X167132000Y-35584000D02*
X126832000Y-35584000D01*
X135332000Y-40184000D02*
G75*
G03*
X135332000Y-36984000I0J1600000D01*
G01*
X133332000Y-162684000D02*
X135332000Y-162684000D01*
X158732000Y-36984000D02*
G75*
G03*
X158732000Y-40184000I0J-1600000D01*
G01*
X140282390Y-148799800D02*
G75*
G03*
X140282390Y-148799800I-550000J0D01*
G01*
X135397922Y-54380272D02*
G75*
G03*
X135397922Y-54380272I-1615216J0D01*
G01*
X154782390Y-148799800D02*
G75*
G03*
X154782390Y-148799800I-550000J0D01*
G01*
X130750490Y-56758272D02*
X163897490Y-56758272D01*
X163897490Y-56758272D02*
X163897490Y-74919272D01*
X163897490Y-74919272D02*
X130750490Y-74919272D01*
X130750490Y-74919272D02*
X130750490Y-56758272D01*
X159360890Y-132745600D02*
G75*
G03*
X159360890Y-132745600I-3500000J0D01*
G01*
X161797922Y-77380272D02*
G75*
G03*
X161797922Y-77380272I-1615216J0D01*
G01*
X158732000Y-159484000D02*
G75*
G03*
X158732000Y-162684000I0J-1600000D01*
G01*
X161796306Y-54381472D02*
G75*
G03*
X161796306Y-54381472I-1615216J0D01*
G01*
X136546890Y-51896272D02*
X157120890Y-51896272D01*
X157120890Y-51896272D02*
X157120890Y-54436272D01*
X157120890Y-54436272D02*
X136546890Y-54436272D01*
X136546890Y-54436272D02*
X136546890Y-51896272D01*
X135332000Y-159484000D02*
X133332000Y-159484000D01*
M02*
